<?xml version="1.0" encoding="UTF-8"?>
<svg version="1.1" xmlns="http://www.w3.org/2000/svg" width="221" height="482">
<path d="M0 0 C1.88838196 1.70426941 1.88838196 1.70426941 2.42996216 3.75753784 C2.44822556 4.54393143 2.46648895 5.33032501 2.48530579 6.14054871 C2.51405289 7.03545517 2.54279999 7.93036163 2.57241821 8.85238647 C2.58000656 9.81800003 2.58759491 10.78361359 2.59541321 11.77848816 C2.61109848 12.77628799 2.62678375 13.77408783 2.64294434 14.80212402 C2.66759053 16.9161361 2.68115371 19.0303019 2.68452454 21.14445496 C2.70074356 24.36429331 2.78610798 27.57751467 2.87471008 30.79606628 C3.07255191 45.77654413 3.07255191 45.77654413 -0.1023407 50.94499207 C-5.33135945 55.70426941 -5.33135945 55.70426941 -9.11161804 55.70426941 C-9.11161804 102.56426941 -9.11161804 149.42426941 -9.11161804 197.70426941 C-4.16161804 198.03426941 0.78838196 198.36426941 5.88838196 198.70426941 C23.91720954 201.91278957 38.61261687 209.23520814 49.79463196 224.26676941 C59.21417509 238.31625748 62.18310105 254.13275816 59.27510071 270.77458191 C57.31950735 279.30338113 54.23703819 287.18688236 50.61885071 295.14738464 C48.59206487 299.66172132 47.00134043 303.67464464 46.88838196 308.70426941 C48.00133049 311.73599537 48.00133049 311.73599537 49.88838196 314.51676941 C50.54064758 315.55833191 51.19291321 316.59989441 51.86494446 317.67301941 C54.18418112 321.14739711 56.57927847 324.5581042 59.00556946 327.95817566 C76.0456278 352.81120682 87.1172896 379.69986813 82.27510071 410.34880066 C78.85164263 427.33831978 68.44540611 441.88053969 54.1632843 451.5131073 C44.46062318 457.70903247 34.06543735 461.65002672 22.95088196 464.51676941 C22.20185608 464.71174011 21.4528302 464.90671082 20.68110657 465.10758972 C6.38681668 468.51908604 -8.17165991 469.08406914 -22.79911804 469.01676941 C-23.62689758 469.01494659 -24.45467712 469.01312378 -25.30754089 469.01124573 C-38.41778633 468.96280264 -51.24652775 468.44450667 -64.11161804 465.70426941 C-64.89826843 465.53798035 -65.68491882 465.37169128 -66.4954071 465.20036316 C-86.15134793 460.83417309 -106.05640646 451.38762437 -118.11161804 434.70426941 C-129.19228602 416.81891615 -132.38584929 395.8515092 -128.0320282 375.18717957 C-127.22150297 371.96392808 -126.19937281 368.84377717 -125.11161804 365.70426941 C-124.89151062 365.05007019 -124.6714032 364.39587097 -124.44462585 363.72184753 C-118.61385891 346.79066652 -108.20193643 332.01590305 -98.18266296 317.32096863 C-97.14289019 315.79289498 -96.12591309 314.24937201 -95.11161804 312.70426941 C-94.67204773 312.05587097 -94.23247742 311.40747253 -93.77958679 310.73942566 C-91.19400579 302.86171979 -97.45343492 293.16317888 -100.42997742 286.12809753 C-107.32803833 269.45357548 -109.01846676 251.74527414 -102.11161804 234.70426941 C-95.61234185 220.48710273 -83.44864195 208.18821629 -68.80302429 202.39567566 C-58.59598137 199.23276679 -47.78811279 197.70426941 -37.11161804 197.70426941 C-37.11161804 150.84426941 -37.11161804 103.98426941 -37.11161804 55.70426941 C-38.43161804 55.04426941 -39.75161804 54.38426941 -41.11161804 53.70426941 C-44.6526695 51.57188138 -47.59360553 49.52305379 -48.76289368 45.41758728 C-49.02112737 42.65400125 -49.05604135 39.97168651 -49.00614929 37.19645691 C-49.0104747 36.19341522 -49.01480011 35.19037354 -49.01925659 34.15693665 C-49.01963697 32.04390512 -49.00262322 29.93080747 -48.96928406 27.81803894 C-48.92415072 24.58161243 -48.94856588 21.35090647 -48.98075867 18.11442566 C-48.97254087 16.05841529 -48.9603085 14.00241621 -48.94364929 11.94645691 C-48.95265762 10.97973053 -48.96166595 10.01300415 -48.97094727 9.01698303 C-48.90760182 6.43836085 -48.79466347 4.19196608 -48.11161804 1.70426941 C-45.19340515 -0.87043762 -45.19340515 -0.87043762 -42.11161804 -2.29573059 C-41.05200867 -2.81393372 -41.05200867 -2.81393372 -39.97099304 -3.34260559 C-27.35922708 -7.54652758 -11.45947205 -7.03175868 0 0 Z M-73.36161804 232.84489441 C-80.54812073 240.40129062 -84.56341441 248.8378905 -84.31083679 259.38786316 C-83.27806694 271.39634399 -77.68301644 282.48486592 -73.00370789 293.42106628 C-69.932067 301.28258396 -69.64124022 310.32633804 -72.32255554 318.30973816 C-75.58863048 325.09489384 -79.66956943 331.07210162 -84.12773132 337.10514832 C-98.10052723 356.19340849 -109.11707011 377.49029256 -107.11161804 401.70426941 C-105.53250164 409.50595801 -102.86143205 416.31709716 -98.11161804 422.70426941 C-97.43099304 423.69426941 -96.75036804 424.68426941 -96.04911804 425.70426941 C-82.29552346 441.42878409 -58.50099365 445.02961249 -38.77861023 446.5431366 C-9.69636197 448.30021128 24.18631044 447.49095623 47.63056946 427.86833191 C56.89635734 418.98728263 60.91644063 406.9345114 61.20088196 394.32926941 C60.93602804 371.40736706 48.09207242 351.1771727 35.20088196 333.01676941 C27.53049943 321.9687272 22.99581104 313.50723028 24.88838196 299.70426941 C26.15848403 294.84894252 27.93301855 290.3209586 29.88838196 285.70426941 C38.1563618 266.1950662 38.1563618 266.1950662 35.75947571 245.48551941 C32.59981325 238.66684729 28.69112157 233.46605955 22.88838196 228.70426941 C22.29541321 228.21184753 21.70244446 227.71942566 21.09150696 227.21208191 C13.82625403 221.9649548 4.43436779 220.6189043 -4.34648132 220.67424011 C-5.68780624 220.68074333 -5.68780624 220.68074333 -7.05622864 220.68737793 C-8.07364639 220.69573921 -8.07364639 220.69573921 -9.11161804 220.70426941 C-9.30981663 226.71807187 -9.45474875 232.72996326 -9.55107117 238.7462616 C-9.5912314 240.79119488 -9.64577386 242.83589944 -9.71513367 244.88005066 C-9.81252263 247.82463473 -9.85761592 250.7661779 -9.89286804 253.71208191 C-9.93415833 254.62168671 -9.97544861 255.5312915 -10.01799011 256.46846008 C-10.03148633 261.49911064 -10.03148633 261.49911064 -7.35649109 265.57823181 C-5.33455442 267.09009891 -3.26687853 268.393822 -1.11161804 269.70426941 C4.95359285 275.7694803 7.13429844 283.36386439 7.38838196 291.76676941 C7.15284959 299.78359346 4.86292334 305.48609268 -0.11161804 311.70426941 C-0.11161804 312.36426941 -0.11161804 313.02426941 -0.11161804 313.70426941 C-0.94693054 314.11999207 -0.94693054 314.11999207 -1.79911804 314.54411316 C-3.38661978 315.34054562 -4.96975844 316.14571663 -6.54911804 316.95817566 C-7.81755554 317.60592957 -7.81755554 317.60592957 -9.11161804 318.26676941 C-10.38005554 318.9183905 -10.38005554 318.9183905 -11.67411804 319.58317566 C-18.94077379 322.92537149 -26.45895905 322.52672285 -33.92411804 319.95426941 C-37.89330701 318.38453366 -40.92159876 316.58557715 -44.11161804 313.70426941 C-44.77161804 313.70426941 -45.43161804 313.70426941 -46.11161804 313.70426941 C-46.39907898 313.12805847 -46.68653992 312.55184753 -46.98271179 311.95817566 C-47.69985477 310.52637116 -48.42077811 309.09644904 -49.14677429 307.66911316 C-49.48579773 307.00008972 -49.82482117 306.33106628 -50.17411804 305.64176941 C-50.5157196 304.97016785 -50.85732117 304.29856628 -51.20927429 303.60661316 C-54.3607312 296.96263259 -54.1617891 288.08841726 -52.46318054 280.99723816 C-50.19272818 275.45694628 -46.50681899 270.74310271 -42.11161804 266.70426941 C-41.2579364 266.37370544 -40.40425476 266.04314148 -39.52470398 265.70256042 C-36.97338138 264.00293908 -36.97338138 264.00293908 -36.67202759 261.77366638 C-36.53064465 259.17071058 -36.55064283 256.61092694 -36.62333679 254.00505066 C-36.63041153 253.05486557 -36.63748627 252.10468048 -36.64477539 251.1257019 C-36.67278135 248.08859265 -36.7355316 245.05332206 -36.79911804 242.01676941 C-36.82419288 239.95885331 -36.84700747 237.90090834 -36.86747742 235.84294128 C-36.92262849 230.79600807 -37.00894423 225.75045053 -37.11161804 220.70426941 C-38.70144573 220.69312939 -40.29129618 220.68521013 -41.88114929 220.67863464 C-42.76649353 220.67387619 -43.65183777 220.66911774 -44.56401062 220.66421509 C-56.33191442 220.84923394 -64.97760552 224.86843805 -73.36161804 232.84489441 Z M-39.91239929 280.65739441 C-42.58408118 285.21752896 -43.54064327 289.94187227 -42.72880554 295.16911316 C-40.79899438 301.83472527 -36.8368459 305.88745084 -31.11161804 309.70426941 C-25.70528412 311.50638072 -20.1558568 311.43710972 -14.79911804 309.51676941 C-9.05131396 305.6403434 -5.0844069 301.24800025 -3.23661804 294.51676941 C-3.04036865 288.53116299 -3.95035867 283.24363247 -7.92021179 278.57926941 C-13.19608645 273.79208635 -17.66533572 271.16090915 -24.99833679 271.39567566 C-31.20502248 272.30201239 -36.10581462 275.77662283 -39.91239929 280.65739441 Z " fill="#000000" transform="translate(134.1116180419922,10.295730590820313)"/>
<path d="M0 0 C27.72 0 55.44 0 84 0 C84 7.26 84 14.52 84 22 C56.28 22 28.56 22 0 22 C0 14.74 0 7.48 0 0 Z " fill="#010101" transform="translate(69,381)"/>
</svg>
