<?xml version="1.0" encoding="UTF-8"?>
<svg version="1.1" xmlns="http://www.w3.org/2000/svg" width="480" height="480">
<path d="M0 0 C1.86235946 -0.00648107 3.7247124 -0.01513699 5.58705276 -0.0257743 C10.69353045 -0.04856268 15.79955184 -0.04021283 20.90604484 -0.02663505 C26.4173771 -0.01737747 31.92861897 -0.03687272 37.43992615 -0.0526123 C48.23188619 -0.07869944 59.02367965 -0.07761163 69.81565923 -0.06657412 C78.58589215 -0.05801634 87.35607685 -0.05884598 96.12631035 -0.06637001 C97.37446908 -0.0674249 98.6226278 -0.06847979 99.90860952 -0.06956664 C102.44419688 -0.07173756 104.97978422 -0.07392433 107.51537155 -0.07612679 C124.53819273 -0.09003797 141.56099627 -0.0946927 158.58381748 -0.07988262 C159.58187861 -0.07901447 159.58187861 -0.07901447 160.60010259 -0.07812878 C166.0032003 -0.0733642 171.40629775 -0.06830618 176.80939517 -0.06323105 C197.890573 -0.04363371 218.97155931 -0.05284969 240.05271912 -0.08564758 C263.74493037 -0.12242968 287.43705365 -0.13943742 311.12930053 -0.12623531 C313.65526098 -0.1248942 316.18122145 -0.12358522 318.70718193 -0.12230873 C320.57143165 -0.12136273 320.57143165 -0.12136273 322.47334297 -0.12039762 C331.23417102 -0.11736862 339.99491391 -0.12863831 348.75572395 -0.14555931 C359.43057953 -0.16586655 370.10517969 -0.16504133 380.78002185 -0.13692691 C386.22717141 -0.12313809 391.67387478 -0.11900553 397.12100792 -0.14087677 C402.10702306 -0.16063233 407.09219801 -0.15271329 412.07815479 -0.12268243 C413.88218394 -0.11667205 415.6862811 -0.12079335 417.49025578 -0.13604566 C433.79224858 -0.26383536 433.79224858 -0.26383536 439.55379337 5.11308163 C441.2534278 7.11764407 442.63922613 9.02187854 443.78733826 11.39164734 C444.16761169 12.14961609 444.54788513 12.90758484 444.93968201 13.68852234 C445.39020935 14.65531921 445.39020935 14.65531921 445.84983826 15.64164734 C446.17983826 16.30164734 446.50983826 16.96164734 446.84983826 17.64164734 C446.94845717 19.18088029 446.98443942 20.7243215 446.98964596 22.2667017 C446.9953372 23.24745106 447.00102844 24.22820042 447.00689214 25.23866946 C447.00807202 26.32395211 447.0092519 27.40923477 447.01046753 28.52740479 C447.01809926 30.24778557 447.01809926 30.24778557 447.02588516 32.00292152 C447.03890905 35.1962732 447.04738127 38.38959972 447.05385816 41.58297026 C447.06022303 44.31970708 447.07029408 47.05642509 447.08041882 49.79315019 C447.11376917 58.81212144 447.13527103 67.83110415 447.15361866 76.85011688 C447.15841289 79.19869107 447.16339633 81.5472648 447.16842389 83.8958385 C447.19939842 98.47865089 447.22608566 113.06146724 447.24284267 127.64430332 C447.24679223 131.02338226 447.25079521 134.40246113 447.25486755 137.78153992 C447.25587591 138.62140149 447.25688428 139.46126305 447.25792319 140.32657497 C447.27492309 153.92602977 447.31602294 167.52530237 447.36689054 181.12466825 C447.4186827 195.08607769 447.4477872 209.0473935 447.45503956 223.0088982 C447.45970026 230.84804893 447.47443458 238.68690151 447.51478386 246.52595711 C447.5491138 253.20374181 447.56301145 259.88117458 447.55035972 266.55904246 C447.54453921 269.96492995 447.54835139 273.37007346 447.57852936 276.77584839 C447.60616369 280.47351605 447.59671994 284.16932176 447.57809448 287.86700439 C447.59488941 288.936672 447.61168434 290.00633961 447.62898821 291.10842139 C447.53691455 298.43007913 445.73503083 303.13828842 440.84983826 308.64164734 C434.84497176 313.9090211 429.30005957 315.94497259 421.27877426 315.90450287 C420.52099837 315.90860814 419.76322248 315.9127134 418.98248369 315.91694307 C416.4346837 315.92828245 413.88709997 315.92536875 411.33927917 315.92253113 C409.49758984 315.92769844 407.65590274 315.93372476 405.81421876 315.94053793 C400.74637624 315.9566842 395.67859036 315.96025741 390.61072516 315.96173286 C385.14772504 315.96543286 379.68475436 315.98052691 374.22177124 315.9940033 C362.27350106 316.0211747 350.32524429 316.0332199 338.37694836 316.04202461 C330.91814323 316.04754825 323.4593433 316.05602269 316.00054169 316.06503296 C295.35396525 316.08941814 274.70739298 316.11001731 254.06080246 316.11678314 C252.72587057 316.11722641 251.39093869 316.11766997 250.0560068 316.11811385 C248.71786325 316.11855513 247.3797197 316.11899609 246.04157615 316.11943674 C243.35705805 316.12032184 240.67253995 316.12121607 237.98802185 316.12211609 C236.98961672 316.12244426 236.98961672 316.12244426 235.97104179 316.12277906 C214.38699431 316.13004094 192.80308116 316.1618848 171.21908512 316.20849682 C148.39639443 316.25769373 125.57376186 316.28511535 102.75101399 316.28751898 C90.31098788 316.28935342 77.87113768 316.30088167 65.43115997 316.3371582 C54.83933796 316.36793625 44.24774621 316.37821538 33.65588799 316.361682 C28.25115355 316.35386051 22.84688299 316.35576845 17.44220543 316.38379669 C12.49363142 316.40922512 7.54587101 316.40692491 2.59729853 316.38261527 C0.80792453 316.37869251 -0.98150661 316.38489922 -2.77080026 316.40230399 C-18.90853005 316.54933013 -18.90853005 316.54933013 -25.52190566 311.28841543 C-30.35146732 306.4039454 -33.2666971 301.822217 -33.28996944 294.82828236 C-33.29566069 293.83099167 -33.30135193 292.83370098 -33.30721563 291.80618936 C-33.30839551 290.70757363 -33.30957538 289.6089579 -33.31079102 288.47705078 C-33.31587884 287.31223606 -33.32096666 286.14742133 -33.32620865 284.9473092 C-33.33921833 281.70867998 -33.34769938 278.47007553 -33.35418165 275.23142779 C-33.36055221 272.45487822 -33.37062235 269.67834713 -33.3807423 266.90180907 C-33.41406739 257.75401522 -33.43558745 248.60621014 -33.45394215 239.45837548 C-33.45873728 237.07647763 -33.46372058 234.69458024 -33.46874738 232.31268287 C-33.49971761 217.52194502 -33.52640334 202.73120327 -33.54316616 187.94044209 C-33.54711567 184.51442775 -33.55111866 181.08841348 -33.55519104 177.66239929 C-33.5561994 176.81087846 -33.55720776 175.95935762 -33.55824668 175.08203312 C-33.57525354 161.28797192 -33.61636303 147.49409011 -33.66721403 133.70011649 C-33.71899036 119.53866802 -33.74810838 105.37731181 -33.75536305 91.21576947 C-33.76002518 83.26432578 -33.77477496 75.31317592 -33.81510735 67.36182594 C-33.84941512 60.58998181 -33.86334378 53.81848453 -33.8506832 47.04655848 C-33.84485794 43.59218567 -33.84870876 40.13854632 -33.87885284 36.68428421 C-33.90644863 32.93596782 -33.89706066 29.18949255 -33.87841797 25.44116211 C-33.8952129 24.35369999 -33.91200783 23.26623787 -33.92931169 22.14582235 C-33.853714 16.06617256 -33.11368589 11.95331187 -28.98725367 7.33759546 C-20.35955464 -0.62723733 -11.13763574 -0.07051524 0 0 Z M-3.15016174 45.64164734 C-3.15016174 60.16164734 -3.15016174 74.68164734 -3.15016174 89.64164734 C11.36983826 89.64164734 25.88983826 89.64164734 40.84983826 89.64164734 C40.84983826 75.12164734 40.84983826 60.60164734 40.84983826 45.64164734 C26.32983826 45.64164734 11.80983826 45.64164734 -3.15016174 45.64164734 Z M56.84983826 45.64164734 C56.84983826 60.16164734 56.84983826 74.68164734 56.84983826 89.64164734 C72.68983826 89.64164734 88.52983826 89.64164734 104.84983826 89.64164734 C104.84983826 75.12164734 104.84983826 60.60164734 104.84983826 45.64164734 C89.00983826 45.64164734 73.16983826 45.64164734 56.84983826 45.64164734 Z M116.84983826 45.64164734 C116.84983826 60.16164734 116.84983826 74.68164734 116.84983826 89.64164734 C131.36983826 89.64164734 145.88983826 89.64164734 160.84983826 89.64164734 C160.84983826 75.12164734 160.84983826 60.60164734 160.84983826 45.64164734 C146.32983826 45.64164734 131.80983826 45.64164734 116.84983826 45.64164734 Z M176.84983826 45.64164734 C176.84983826 60.16164734 176.84983826 74.68164734 176.84983826 89.64164734 C191.36983826 89.64164734 205.88983826 89.64164734 220.84983826 89.64164734 C220.84983826 75.12164734 220.84983826 60.60164734 220.84983826 45.64164734 C206.32983826 45.64164734 191.80983826 45.64164734 176.84983826 45.64164734 Z M236.84983826 45.64164734 C236.84983826 60.16164734 236.84983826 74.68164734 236.84983826 89.64164734 C251.36983826 89.64164734 265.88983826 89.64164734 280.84983826 89.64164734 C280.84983826 75.12164734 280.84983826 60.60164734 280.84983826 45.64164734 C266.32983826 45.64164734 251.80983826 45.64164734 236.84983826 45.64164734 Z M296.84983826 45.64164734 C296.84983826 60.16164734 296.84983826 74.68164734 296.84983826 89.64164734 C311.36983826 89.64164734 325.88983826 89.64164734 340.84983826 89.64164734 C340.84983826 75.12164734 340.84983826 60.60164734 340.84983826 45.64164734 C326.32983826 45.64164734 311.80983826 45.64164734 296.84983826 45.64164734 Z M356.84983826 45.64164734 C356.84983826 60.16164734 356.84983826 74.68164734 356.84983826 89.64164734 C376.31983826 89.64164734 395.78983826 89.64164734 415.84983826 89.64164734 C415.84983826 75.12164734 415.84983826 60.60164734 415.84983826 45.64164734 C396.37983826 45.64164734 376.90983826 45.64164734 356.84983826 45.64164734 Z M-3.15016174 105.64164734 C-3.15016174 120.16164734 -3.15016174 134.68164734 -3.15016174 149.64164734 C16.31983826 149.64164734 35.78983826 149.64164734 55.84983826 149.64164734 C55.84983826 135.12164734 55.84983826 120.60164734 55.84983826 105.64164734 C36.37983826 105.64164734 16.90983826 105.64164734 -3.15016174 105.64164734 Z M71.84983826 105.64164734 C71.84983826 120.16164734 71.84983826 134.68164734 71.84983826 149.64164734 C86.36983826 149.64164734 100.88983826 149.64164734 115.84983826 149.64164734 C115.84983826 135.12164734 115.84983826 120.60164734 115.84983826 105.64164734 C101.32983826 105.64164734 86.80983826 105.64164734 71.84983826 105.64164734 Z M131.84983826 105.64164734 C131.84983826 120.16164734 131.84983826 134.68164734 131.84983826 149.64164734 C146.36983826 149.64164734 160.88983826 149.64164734 175.84983826 149.64164734 C175.84983826 135.12164734 175.84983826 120.60164734 175.84983826 105.64164734 C161.32983826 105.64164734 146.80983826 105.64164734 131.84983826 105.64164734 Z M191.84983826 105.64164734 C191.84983826 120.16164734 191.84983826 134.68164734 191.84983826 149.64164734 C206.36983826 149.64164734 220.88983826 149.64164734 235.84983826 149.64164734 C235.84983826 135.12164734 235.84983826 120.60164734 235.84983826 105.64164734 C221.32983826 105.64164734 206.80983826 105.64164734 191.84983826 105.64164734 Z M251.84983826 105.64164734 C251.84983826 120.16164734 251.84983826 134.68164734 251.84983826 149.64164734 C266.36983826 149.64164734 280.88983826 149.64164734 295.84983826 149.64164734 C295.84983826 135.12164734 295.84983826 120.60164734 295.84983826 105.64164734 C281.32983826 105.64164734 266.80983826 105.64164734 251.84983826 105.64164734 Z M311.84983826 105.64164734 C311.84983826 120.16164734 311.84983826 134.68164734 311.84983826 149.64164734 C346.16983826 149.64164734 380.48983826 149.64164734 415.84983826 149.64164734 C415.84983826 135.12164734 415.84983826 120.60164734 415.84983826 105.64164734 C381.52983826 105.64164734 347.20983826 105.64164734 311.84983826 105.64164734 Z M-3.15016174 165.64164734 C-3.15016174 180.49164734 -3.15016174 195.34164734 -3.15016174 210.64164734 C21.26983826 210.64164734 45.68983826 210.64164734 70.84983826 210.64164734 C70.84983826 195.79164734 70.84983826 180.94164734 70.84983826 165.64164734 C46.42983826 165.64164734 22.00983826 165.64164734 -3.15016174 165.64164734 Z M86.84983826 165.64164734 C86.84983826 180.49164734 86.84983826 195.34164734 86.84983826 210.64164734 C102.68983826 210.64164734 118.52983826 210.64164734 134.84983826 210.64164734 C134.84983826 195.79164734 134.84983826 180.94164734 134.84983826 165.64164734 C119.00983826 165.64164734 103.16983826 165.64164734 86.84983826 165.64164734 Z M146.84983826 165.64164734 C146.84983826 180.49164734 146.84983826 195.34164734 146.84983826 210.64164734 C161.36983826 210.64164734 175.88983826 210.64164734 190.84983826 210.64164734 C190.84983826 195.79164734 190.84983826 180.94164734 190.84983826 165.64164734 C176.32983826 165.64164734 161.80983826 165.64164734 146.84983826 165.64164734 Z M206.84983826 165.64164734 C206.84983826 180.49164734 206.84983826 195.34164734 206.84983826 210.64164734 C221.36983826 210.64164734 235.88983826 210.64164734 250.84983826 210.64164734 C250.84983826 195.79164734 250.84983826 180.94164734 250.84983826 165.64164734 C236.32983826 165.64164734 221.80983826 165.64164734 206.84983826 165.64164734 Z M266.84983826 165.64164734 C266.84983826 180.49164734 266.84983826 195.34164734 266.84983826 210.64164734 C281.36983826 210.64164734 295.88983826 210.64164734 310.84983826 210.64164734 C310.84983826 195.79164734 310.84983826 180.94164734 310.84983826 165.64164734 C296.32983826 165.64164734 281.80983826 165.64164734 266.84983826 165.64164734 Z M326.84983826 165.64164734 C326.84983826 180.49164734 326.84983826 195.34164734 326.84983826 210.64164734 C356.21983826 210.64164734 385.58983826 210.64164734 415.84983826 210.64164734 C415.84983826 195.79164734 415.84983826 180.94164734 415.84983826 165.64164734 C386.47983826 165.64164734 357.10983826 165.64164734 326.84983826 165.64164734 Z M-3.15016174 225.64164734 C-3.15016174 240.16164734 -3.15016174 254.68164734 -3.15016174 269.64164734 C11.36983826 269.64164734 25.88983826 269.64164734 40.84983826 269.64164734 C40.84983826 255.12164734 40.84983826 240.60164734 40.84983826 225.64164734 C26.32983826 225.64164734 11.80983826 225.64164734 -3.15016174 225.64164734 Z M56.84983826 225.64164734 C56.84983826 240.16164734 56.84983826 254.68164734 56.84983826 269.64164734 C71.36983826 269.64164734 85.88983826 269.64164734 100.84983826 269.64164734 C100.84983826 255.12164734 100.84983826 240.60164734 100.84983826 225.64164734 C86.32983826 225.64164734 71.80983826 225.64164734 56.84983826 225.64164734 Z M116.84983826 225.64164734 C116.84983826 240.16164734 116.84983826 254.68164734 116.84983826 269.64164734 C175.91983826 269.64164734 234.98983826 269.64164734 295.84983826 269.64164734 C295.84983826 255.12164734 295.84983826 240.60164734 295.84983826 225.64164734 C236.77983826 225.64164734 177.70983826 225.64164734 116.84983826 225.64164734 Z M311.84983826 225.64164734 C311.84983826 240.16164734 311.84983826 254.68164734 311.84983826 269.64164734 C326.36983826 269.64164734 340.88983826 269.64164734 355.84983826 269.64164734 C355.84983826 255.12164734 355.84983826 240.60164734 355.84983826 225.64164734 C341.32983826 225.64164734 326.80983826 225.64164734 311.84983826 225.64164734 Z M371.84983826 225.64164734 C371.84983826 240.16164734 371.84983826 254.68164734 371.84983826 269.64164734 C386.36983826 269.64164734 400.88983826 269.64164734 415.84983826 269.64164734 C415.84983826 255.12164734 415.84983826 240.60164734 415.84983826 225.64164734 C401.32983826 225.64164734 386.80983826 225.64164734 371.84983826 225.64164734 Z " fill="#FFFFFF" transform="translate(33.15016174316406,81.35835266113281)"/>
</svg>
