<?xml version="1.0" encoding="UTF-8"?>
<svg version="1.1" xmlns="http://www.w3.org/2000/svg" width="512" height="512">
<path d="M0 0 C3.40343106 1.70171553 3.77760971 5.80635269 4.9375 9.25 C19.53609251 50.3729614 49.41869911 80.95562053 88.39160156 99.81347656 C94.74899711 102.70536559 101.33674418 104.9302862 108 107 C108 107.99 108 108.98 108 110 C105.84216137 112.10041716 103.68705084 114.01985286 101.375 115.9375 C100.69638916 116.51234131 100.01777832 117.08718262 99.31860352 117.67944336 C97.90647384 118.87525516 96.49147008 120.06768057 95.07373047 121.25683594 C92.58309993 123.35044343 90.11446172 125.46862579 87.64819336 127.59082031 C85.92700591 129.07152788 84.20224048 130.54796702 82.4765625 132.0234375 C80.11334439 134.04504983 77.75436957 136.07146437 75.3984375 138.1015625 C70.06449936 142.69377135 64.71957787 147.25644957 59.25 151.6875 C54.86848205 155.24267904 50.68289319 158.96769537 46.51171875 162.765625 C43.99848768 165.00134533 41.42688521 167.13377682 38.8125 169.25 C32.37451094 174.46386438 26.14836434 179.91041253 19.90087891 185.34912109 C11.95394318 192.25089085 3.93322101 199.06687286 -4.1081543 205.8581543 C-8.06486006 209.20217796 -12.00526212 212.56474685 -15.9375 215.9375 C-16.51669189 216.43419189 -17.09588379 216.93088379 -17.69262695 217.44262695 C-20.66756041 219.99510418 -23.6397708 222.55069982 -26.609375 225.109375 C-31.94120634 229.6983591 -37.28329671 234.25877834 -42.75 238.6875 C-47.13151795 242.24267904 -51.31710681 245.96769537 -55.48828125 249.765625 C-58.88433015 252.78668249 -62.41320768 255.62662907 -65.953125 258.4765625 C-68.21745511 260.35189231 -70.42149127 262.25014181 -72.609375 264.2109375 C-87.5288391 277.56417457 -101.80826672 285.92295346 -122.5703125 285.25390625 C-139.48100525 284.00197569 -152.48994335 276.68222642 -163.6796875 264.11328125 C-174.28658287 251.43508228 -177.26771832 236.17544388 -176 220 C-173.57908962 205.6195024 -167.45608688 195.16545775 -157.52734375 184.69921875 C-155.12151105 182.12977455 -152.89413832 179.49109018 -150.6875 176.75 C-147.10604116 172.31731414 -143.42768264 167.98587781 -139.6875 163.6875 C-138.86076782 162.73713867 -138.86076782 162.73713867 -138.01733398 161.76757812 C-136.89821841 160.48151545 -135.77899624 159.19554552 -134.65966797 157.90966797 C-128.45127377 150.76608759 -122.27176028 143.60354128 -116.3125 136.25 C-112.75732096 131.86848205 -109.03230463 127.68289319 -105.234375 123.51171875 C-102.99865467 120.99848768 -100.86622318 118.42688521 -98.75 115.8125 C-93.53613562 109.37451094 -88.08958747 103.14836434 -82.65087891 96.90087891 C-75.74910915 88.95394318 -68.93312714 80.93322101 -62.1418457 72.8918457 C-58.79782204 68.93513994 -55.43525315 64.99473788 -52.0625 61.0625 C-51.31746216 60.19371216 -51.31746216 60.19371216 -50.55737305 59.30737305 C-48.00489582 56.33243959 -45.44930018 53.3602292 -42.890625 50.390625 C-38.3016409 45.05879366 -33.74122166 39.71670329 -29.3125 34.25 C-25.76488154 29.87779995 -22.04903082 25.70015578 -18.2578125 21.5390625 C-15.10639156 17.99507701 -12.13551992 14.31462303 -9.15234375 10.62890625 C-6.18823137 7.00849313 -3.11260732 3.4929259 0 0 Z M-13.86659241 98.74633789 C-14.68155685 99.56352295 -15.4965213 100.38070801 -16.33618164 101.22265625 C-17.2570607 102.14361084 -18.17793976 103.06456543 -19.12672424 104.01342773 C-20.13792132 105.02973235 -21.14906403 106.04609106 -22.16015625 107.0625 C-23.18984081 108.09404861 -24.21974564 109.1253774 -25.24986267 110.15649414 C-27.96629124 112.87674886 -30.67970406 115.5999928 -33.39251709 118.32385254 C-36.15896483 121.10051231 -38.92823014 123.87435878 -41.69726562 126.6484375 C-47.13428497 132.0961959 -52.56812411 137.54711262 -58 143 C-56.30145963 146.62083128 -54.28895218 148.94255354 -51.4296875 151.765625 C-50.53378906 152.65507812 -49.63789063 153.54453125 -48.71484375 154.4609375 C-47.77769531 155.38132812 -46.84054688 156.30171875 -45.875 157.25 C-44.92011363 158.19484856 -43.96568141 159.14015633 -43.01171875 160.0859375 C-40.67890913 162.39518338 -38.34155914 164.69963203 -36 167 C-32.46760977 165.49315032 -30.2037834 163.44633388 -27.50683594 160.73388672 C-26.62622498 159.85312469 -25.74561401 158.97236267 -24.83831787 158.06491089 C-23.88689569 157.10327649 -22.93558397 156.1415328 -21.984375 155.1796875 C-21.00403871 154.19561893 -20.02325832 153.21199258 -19.04205322 152.22879028 C-16.46645533 149.64557286 -13.89692143 147.05640488 -11.32861328 144.46594238 C-8.70448933 141.8213238 -6.07466229 139.1823899 -3.4453125 136.54296875 C1.7087167 131.36751928 6.85635157 126.18576878 12 121 C8.68869179 117.07884322 5.35899375 113.23224975 1.73046875 109.59765625 C0.98732422 108.85322266 0.24417969 108.10878906 -0.52148438 107.34179688 C-1.27751953 106.58962891 -2.03355469 105.83746094 -2.8125 105.0625 C-3.58787109 104.28326172 -4.36324219 103.50402344 -5.16210938 102.70117188 C-5.89880859 101.96576172 -6.63550781 101.23035156 -7.39453125 100.47265625 C-8.06331299 99.80500244 -8.73209473 99.13734863 -9.42114258 98.44946289 C-11.70464778 96.3531013 -11.54393317 96.57331511 -13.86659241 98.74633789 Z " fill="#000000" transform="translate(235,168)"/>
<path d="M0 0 C1.4534125 1.18728167 2.89350512 2.39081438 4.33276367 3.59521484 C5.10233398 4.22427734 5.8719043 4.85333984 6.66479492 5.50146484 C29.46164594 24.68045997 43.83981553 54.29619006 47.33276367 83.59521484 C49.66624588 118.11190974 42.57344104 151.53423375 19.83276367 178.47021484 C18.45717938 180.0403672 17.06594348 181.5931745 15.65844727 183.13476562 C14.38635216 184.53617869 13.14964416 185.96946837 11.91479492 187.40380859 C11.16584961 188.23009766 10.4169043 189.05638672 9.64526367 189.90771484 C9.00202148 190.62572266 8.3587793 191.34373047 7.69604492 192.08349609 C3.22845085 194.94127941 -1.49077094 193.82733159 -6.42895508 192.85302734 C-7.7424806 192.49295344 -9.05103201 192.11436907 -10.35473633 191.72021484 C-11.43779053 191.39355835 -11.43779053 191.39355835 -12.54272461 191.06030273 C-54.97621869 177.50878674 -95.5946043 142.66677032 -123.66723633 108.59521484 C-124.11357422 108.0626709 -124.55991211 107.53012695 -125.01977539 106.98144531 C-143.50914099 84.89921959 -161.11722925 60.505256 -169.60473633 32.65771484 C-169.81662598 31.97177246 -170.02851563 31.28583008 -170.24682617 30.57910156 C-171.61921344 25.75995138 -172.28027974 21.60006107 -171.66723633 16.59521484 C-169.84997208 14.05472232 -168.36617502 12.33447299 -166.10473633 10.28271484 C-165.52191895 9.73075439 -164.93910156 9.17879395 -164.33862305 8.61010742 C-119.58295951 -32.81294034 -48.63529045 -38.78688461 0 0 Z " fill="#000000" transform="translate(464.667236328125,25.40478515625)"/>
<path d="M0 0 C2.60207708 2.33129413 4.01739638 4.67822144 5.56640625 7.796875 C6.0464209 8.74788086 6.52643555 9.69888672 7.02099609 10.67871094 C7.52969238 11.69223633 8.03838867 12.70576172 8.5625 13.75 C13.47415042 23.3245347 18.71294911 32.27847305 25 41 C25.52851563 41.7420166 26.05703125 42.4840332 26.6015625 43.24853516 C34.24254155 53.94895873 42.21123832 64.21986837 51 74 C51.4655127 74.52190918 51.93102539 75.04381836 52.41064453 75.58154297 C58.64809482 82.55128162 65.15198248 89.24681847 71.75 95.875 C72.44697998 96.57665283 73.14395996 97.27830566 73.86206055 98.0012207 C95.64003546 119.71208321 121.02039493 137.43487669 148 152 C149.1958424 152.65267589 150.39120039 153.30624056 151.5859375 153.9609375 C154.05446745 155.31260043 156.52554987 156.65921865 159 158 C155.42713289 160.38191141 151.93282963 161.13073156 147.8125 162.0625 C147.08224609 162.23587891 146.35199219 162.40925781 145.59960938 162.58789062 C127.30602632 166.81696518 107.20198521 166.61349084 89 162 C88.35337402 161.83902832 87.70674805 161.67805664 87.04052734 161.51220703 C55.2615709 153.29718501 28.37643104 133.08443575 11.25683594 105.14794922 C4.0263044 92.79087532 -0.87687255 79.94327522 -4 66 C-4.24492187 64.96488281 -4.48984375 63.92976563 -4.7421875 62.86328125 C-8.69286133 42.59578333 -6.89180444 19.45346217 0 0 Z " fill="#000000" transform="translate(269,84)"/>
<path d="M0 0 C2.78424399 2.73437801 5.13444651 5.47561282 7.4375 8.625 C12.38568052 14.93463436 18.53369619 19.36712989 25 24 C20.5021065 29.39190397 15.73873458 34.39391684 10.7578125 39.33984375 C9.98944061 40.10680069 9.22106873 40.87375763 8.42941284 41.66395569 C5.99696491 44.0908474 3.56104678 46.51422127 1.125 48.9375 C-0.53408552 50.59156486 -2.19294202 52.24585945 -3.8515625 53.90039062 C-7.89839709 57.93625433 -11.94807953 61.96924277 -16 66 C-19.71713736 64.26239853 -22.08741012 62.14323122 -24.984375 59.2109375 C-25.44483215 58.74765045 -25.90528931 58.2843634 -26.37969971 57.80703735 C-27.84125078 56.33434102 -29.29567168 54.85482597 -30.75 53.375 C-31.74302611 52.37193678 -32.73651089 51.36932743 -33.73046875 50.3671875 C-36.15897941 47.91669165 -38.58114675 45.4600333 -41 43 C-39.55419034 39.68386118 -37.75170208 37.50814272 -35.19287109 34.96582031 C-34.41221283 34.18531311 -33.63155457 33.40480591 -32.82723999 32.60064697 C-31.98448517 31.76821472 -31.14173035 30.93578247 -30.2734375 30.078125 C-29.41062164 29.21813904 -28.54780579 28.35815308 -27.65884399 27.47210693 C-24.90221971 24.7266769 -22.13872201 21.9882831 -19.375 19.25 C-17.50475143 17.38978217 -15.63495411 15.52911054 -13.765625 13.66796875 C-9.1823064 9.10670055 -4.59332522 4.55118989 0 0 Z " fill="#000000" transform="translate(41,446)"/>
</svg>
