<?xml version="1.0" encoding="UTF-8"?>
<svg version="1.1" xmlns="http://www.w3.org/2000/svg" width="302" height="178">
<path d="M0 0 C1.19496094 -0.00386719 1.19496094 -0.00386719 2.4140625 -0.0078125 C4.375 0.125 4.375 0.125 5.375 1.125 C5.79085806 4.19195322 6.02196212 6.1673763 5.375 9.125 C1.03548881 14.63078892 -5.91197654 17.61287022 -12.046875 20.63671875 C-13.51957855 21.37907524 -13.51957855 21.37907524 -15.02203369 22.13642883 C-18.13511317 23.70444218 -21.25443316 25.25944793 -24.375 26.8125 C-27.50911436 28.37763352 -30.64168619 29.94562342 -33.77081299 31.52070618 C-35.71203689 32.49736509 -37.65624149 33.46812708 -39.60369873 34.43229675 C-40.48181213 34.8731813 -41.35992554 35.31406586 -42.26464844 35.76831055 C-43.03629333 36.15214401 -43.80793823 36.53597748 -44.60296631 36.93144226 C-46.62502432 38.12501435 -48.05313862 39.39277531 -49.625 41.125 C-48.66013672 42.25808594 -48.66013672 42.25808594 -47.67578125 43.4140625 C-25.7233963 69.88702484 -10.52434044 103.87731943 -8.2109375 138.45703125 C-8.625 142.125 -8.625 142.125 -10.48828125 144.765625 C-14.7082976 147.93983406 -19.14944413 150.41168046 -23.8125 152.875 C-24.78050537 153.39288086 -25.74851074 153.91076172 -26.74584961 154.44433594 C-29.69931266 156.01674234 -32.66087996 157.57279212 -35.625 159.125 C-36.96449707 159.83269531 -36.96449707 159.83269531 -38.33105469 160.5546875 C-40.77633134 161.84196893 -43.22941228 163.11238414 -45.6875 164.375 C-46.41799561 164.7575293 -47.14849121 165.14005859 -47.90112305 165.53417969 C-54.76965248 168.99556234 -54.76965248 168.99556234 -58.625 168.125 C-60.14453125 166.4296875 -60.14453125 166.4296875 -61.4375 164 C-62.20126953 162.62134766 -62.20126953 162.62134766 -62.98046875 161.21484375 C-63.52316406 160.19519531 -64.06585938 159.17554688 -64.625 158.125 C-72.63435779 143.45617618 -81.61765412 129.79518973 -93.19140625 117.6796875 C-95.19606047 115.57528324 -97.04079003 113.43709085 -98.875 111.1875 C-127.51228944 78.42048324 -178.23234815 51.41608338 -221.484375 48.46484375 C-224.11401744 48.32005689 -226.74427086 48.1859779 -229.375 48.0625 C-232.03731657 47.93667385 -234.697962 47.79797328 -237.359375 47.65234375 C-238.51663086 47.59812256 -239.67388672 47.54390137 -240.86621094 47.48803711 C-243.625 47.125 -243.625 47.125 -245.625 45.125 C-239.52711502 39.10842015 -232.60948921 36.0914252 -224.8125 32.75 C-223.4995783 32.17870252 -222.1870812 31.60642832 -220.875 31.03320312 C-218.92003477 30.17953589 -216.96465401 29.32699299 -215.00692749 28.47967529 C-211.45845706 26.94145996 -207.94314786 25.35421652 -204.45703125 23.6796875 C-183.24606364 13.54491284 -160.44713117 10.74981573 -137.15209961 10.80932617 C-134.56126324 10.81250152 -131.97155719 10.78885752 -129.38085938 10.76367188 C-115.75178457 10.71017557 -103.07731037 12.17743807 -90.375 17.5 C-89.61977051 17.80309082 -88.86454102 18.10618164 -88.08642578 18.41845703 C-83.0210779 20.47256237 -78.05360156 22.70170426 -73.1796875 25.1796875 C-68.03642923 27.08285035 -63.77401184 27.89239491 -58.6875 25.75390625 C-57.32334595 25.0851018 -55.96939838 24.39517836 -54.625 23.6875 C-53.88789795 23.32060059 -53.1507959 22.95370117 -52.39135742 22.57568359 C-50.12602596 21.44386467 -47.87510189 20.28674553 -45.625 19.125 C-43.06576446 17.8268188 -40.50175989 16.538222 -37.9375 15.25 C-37.30690674 14.93095703 -36.67631348 14.61191406 -36.02661133 14.28320312 C-30.02346136 11.26872369 -23.92748864 8.46681429 -17.8125 5.6875 C-16.85061768 5.25002441 -15.88873535 4.81254883 -14.89770508 4.36181641 C-5.20286181 -0.01694743 -5.20286181 -0.01694743 0 0 Z " fill="#FEFFFF" transform="translate(296.625,-0.125)"/>
<path d="M0 0 C2.31415265 0.02381927 4.62715975 0.02049612 6.94140625 0.01391602 C20.92085313 0.03964751 33.69037025 2.11710448 47.05078125 6.33618164 C48.06785156 6.63782227 49.08492188 6.93946289 50.1328125 7.25024414 C64.93870282 12.03340476 80.33308776 19.35777767 93.05078125 28.33618164 C94.62859375 29.20243164 94.62859375 29.20243164 96.23828125 30.08618164 C101.48838327 33.04153708 106.23343052 36.73519479 111.05078125 40.33618164 C112.11232422 41.10188477 112.11232422 41.10188477 113.1953125 41.88305664 C127.71756555 52.65673577 140.84708844 66.21218201 152.05078125 80.33618164 C152.85773438 81.3377832 153.6646875 82.33938477 154.49609375 83.37133789 C159.19490703 89.27346078 163.53629814 95.36257868 167.61328125 101.71118164 C168.04310303 102.36497803 168.4729248 103.01877441 168.91577148 103.69238281 C171.53885486 107.87833562 172.79409331 111.29007244 173.05078125 116.33618164 C172.72078125 116.99618164 172.39078125 117.65618164 172.05078125 118.33618164 C164.76159662 119.25507319 159.54429506 116.02261949 153.17578125 112.77368164 C150.73465994 111.56327706 148.29223958 110.35594167 145.84765625 109.15258789 C145.21149384 108.83801636 144.57533142 108.52344482 143.91989136 108.19934082 C136.82927504 104.70593201 129.63251739 101.45623373 122.42578125 98.21118164 C119.62301375 96.94576484 116.82106679 95.67854215 114.01953125 94.41040039 C113.3007782 94.08508331 112.58202515 93.75976624 111.8414917 93.42459106 C102.84441584 89.3454955 93.88563858 85.18372066 84.92578125 81.02368164 C83.18359697 80.21499957 81.44140946 79.40632446 79.69921875 78.59765625 C77.07719977 77.38056295 74.45518927 76.16345148 71.83325195 74.94618225 C63.5090452 71.08251711 55.17789381 67.23397322 46.84472656 63.38967896 C44.42887517 62.27510904 42.01324517 61.16006051 39.59765625 60.04492188 C32.23159647 56.64504796 24.86384391 53.24894734 17.49124146 49.86328125 C-13.49029684 35.6352259 -13.49029684 35.6352259 -28.79241943 28.31066895 C-30.0484855 27.70991547 -31.30550459 27.11114991 -32.5635376 26.51452637 C-34.2733307 25.70247486 -35.97859352 24.88090499 -37.68359375 24.05883789 C-38.63459961 23.60259033 -39.58560547 23.14634277 -40.56542969 22.67626953 C-42.81998158 21.40883453 -44.34686894 20.3547898 -45.94921875 18.33618164 C-46.49473708 14.7513469 -46.25844554 12.90085665 -44.51171875 9.71118164 C-33.4430999 -0.54753827 -14.24641809 -0.15623734 0 0 Z M-26.94921875 16.33618164 C-23.95798229 20.07522722 -21.25322699 21.78546622 -16.79296875 23.53149414 C-11.82997239 25.53956329 -6.94825792 27.66503939 -2.08984375 29.91040039 C-1.03765152 30.39614029 -1.03765152 30.39614029 0.03579712 30.89169312 C1.51698215 31.5764711 2.99785988 32.26191411 4.47845459 32.94796753 C18.58628218 39.48278861 32.73792929 45.9147194 46.92578125 52.27368164 C60.3169915 58.27816172 73.66998142 64.35916034 86.98828125 70.52368164 C98.72103376 75.95310375 110.45676872 81.37506248 122.22146606 86.73501587 C123.6237633 87.37413477 125.02569448 88.0140576 126.42721558 88.65487671 C133.89706386 92.06921753 141.38159965 95.38951289 149.05078125 98.33618164 C147.05505909 91.24257851 142.82774918 86.79863375 138.05078125 81.33618164 C137.19871094 80.36036133 136.34664062 79.38454102 135.46875 78.37915039 C122.0399412 63.25558815 106.67750325 51.03207629 89.92578125 39.77368164 C89.32266113 39.36811035 88.71954102 38.96253906 88.09814453 38.54467773 C81.86077135 33.9648572 81.86077135 33.9648572 74.67578125 32.64868164 C73.80953125 32.87555664 72.94328125 33.10243164 72.05078125 33.33618164 C64.91680043 34.06167122 60.09463784 32.14713917 54.05078125 28.33618164 C51.34713657 26.09119097 51.09057128 25.53513177 50.36328125 21.89868164 C48.92497178 17.99082884 48.92497178 17.99082884 45.61328125 16.08618164 C33.28684388 10.87373172 21.07016904 10.15545093 7.86328125 10.14868164 C6.00606445 10.1303125 6.00606445 10.1303125 4.11132812 10.11157227 C-12.25607698 10.02948976 -12.25607698 10.02948976 -26.94921875 16.33618164 Z M56.05078125 20.33618164 C59.54165218 24.34041594 61.70030064 25.9628923 67.05078125 26.33618164 C67.05078125 25.67618164 67.05078125 25.01618164 67.05078125 24.33618164 C65.78386618 23.66209856 64.51207376 22.99717668 63.23828125 22.33618164 C62.53058594 21.96493164 61.82289062 21.59368164 61.09375 21.21118164 C58.96157396 20.13932806 58.96157396 20.13932806 56.05078125 20.33618164 Z " fill="#FEFFFF" transform="translate(45.94921875,58.663818359375)"/>
<path d="M0 0 C1.27191207 0.71393971 2.54405506 1.42746816 3.81640625 2.140625 C12.45077648 7.07113915 20.27769653 12.75474816 28 19 C28.91136719 19.72960937 29.82273438 20.45921875 30.76171875 21.2109375 C33.52934779 23.44928274 36.26946436 25.71654801 39 28 C39.83797119 28.70044434 39.83797119 28.70044434 40.69287109 29.41503906 C58.89489053 44.67868278 90.92763531 72.79830589 94 98 C93.0625 100.3125 93.0625 100.3125 91 102 C88.21834151 102.62457197 85.72728941 102.88526934 83 102 C81.59765625 100.0546875 81.59765625 100.0546875 80 97 C79.15170604 95.53877989 78.29540469 94.08219519 77.43359375 92.62890625 C76.95325684 91.81413818 76.47291992 90.99937012 75.97802734 90.15991211 C68.36561839 77.32498043 60.55172931 65.35618032 50.29296875 54.4453125 C48.32584779 52.34749696 46.46861204 50.20519213 44.625 48 C31.62521701 33.16034053 15.11856955 21.58322265 -2 12 C-2.68835938 11.60603027 -3.37671875 11.21206055 -4.0859375 10.80615234 C-17.79841213 3.00006627 -32.15184598 -2.71973242 -47 -8 C-47.68868164 -8.25007813 -48.37736328 -8.50015625 -49.08691406 -8.7578125 C-65.39657133 -14.56496934 -84.041937 -16.18673841 -101.25390625 -16.82421875 C-104 -17 -104 -17 -106 -18 C-105.67 -18.99 -105.34 -19.98 -105 -21 C-70.94165567 -28.30663442 -29.6143733 -17.27793075 0 0 Z " fill="#FEFFFF" transform="translate(141,72)"/>
</svg>
