<?xml version="1.0" encoding="UTF-8"?>
<svg version="1.1" xmlns="http://www.w3.org/2000/svg" width="459" height="676">
<path d="M0 0 C3.96 0 7.92 0 12 0 C12 0.66 12 1.32 12 2 C18.27 2 24.54 2 31 2 C31.33 3.32 31.66 4.64 32 6 C33.299375 5.979375 34.59875 5.95875 35.9375 5.9375 C37.29165633 5.91600546 38.64756083 5.92851801 40 6 C40.33 6.33 40.66 6.66 41 7 C43.32817964 7.36760731 45.6618385 7.70241581 48 8 C48.33 9.32 48.66 10.64 49 12 C49.61488281 12.04898437 50.22976563 12.09796875 50.86328125 12.1484375 C51.67152344 12.22320312 52.47976563 12.29796875 53.3125 12.375 C54.11300781 12.44460938 54.91351563 12.51421875 55.73828125 12.5859375 C58 13 58 13 61 15 C61 15.66 61 16.32 61 17 C62.65 17 64.3 17 66 17 C66 17.66 66 18.32 66 19 C66.66 19 67.32 19 68 19 C68 20.32 68 21.64 68 23 C69.32 23 70.64 23 72 23 C72 23.66 72 24.32 72 25 C73.65 25 75.3 25 77 25 C77.0825 25.61875 77.165 26.2375 77.25 26.875 C78.24596076 29.69688882 79.36950574 29.70354211 82 31 C83.921875 32.5859375 83.921875 32.5859375 85.75 34.375 C86.36359375 34.96023437 86.9771875 35.54546875 87.609375 36.1484375 C89 38 89 38 89 42 C89.66 42 90.32 42 91 42 C91 42.99 91 43.98 91 45 C91.61875 45.309375 92.2375 45.61875 92.875 45.9375 C94.25 46.625 95.625 47.3125 97 48 C97.625 51.0625 97.625 51.0625 98 54 C98.66 54 99.32 54 100 54 C103.42120706 60.39400348 106.45135429 66.55265421 106 74 C106.99 74.33 107.98 74.66 109 75 C112.34075347 81.68150694 111.15924347 91.62372327 111.16796875 98.96875 C111.17129715 99.97031128 111.17462555 100.97187256 111.17805481 102.00378418 C111.1830786 104.10456895 111.18546456 106.20536157 111.18530273 108.30615234 C111.18749449 111.4919969 111.20571357 114.67749745 111.22460938 117.86328125 C111.22754335 119.91926967 111.22952812 121.9752597 111.23046875 124.03125 C111.23765427 124.96803589 111.24483978 125.90482178 111.25224304 126.86999512 C111.22993126 133.43046122 110.36292594 139.58643599 109 146 C108.01 146 107.02 146 106 146 C106.12375 147.2375 106.2475 148.475 106.375 149.75 C106.43762584 156.29440043 103.15662937 161.44771442 100 167 C99.34 167 98.68 167 98 167 C97.896875 167.94875 97.79375 168.8975 97.6875 169.875 C97 173 97 173 94 175 C93.01 175 92.02 175 91 175 C91 176.98 91 178.96 91 181 C90.34 181 89.68 181 89 181 C88.7421875 181.58265625 88.484375 182.1653125 88.21875 182.765625 C86.90165983 185.1802903 85.44911616 186.81740177 83.5 188.75 C82.8915625 189.36359375 82.283125 189.9771875 81.65625 190.609375 C80 192 80 192 78 192 C77.7525 192.61875 77.505 193.2375 77.25 193.875 C75.76259631 196.40358627 74.56321991 196.71839004 72 198 C70.73195434 200.0335948 70.73195434 200.0335948 70 202 C69.34 202 68.68 202 68 202 C68 202.66 68 203.32 68 204 C66.35 204.66 64.7 205.32 63 206 C63 206.66 63 207.32 63 208 C64.2375 209.2065625 64.2375 209.2065625 65.5 210.4375 C68 213 68 213 68 216 C69.32 216.33 70.64 216.66 72 217 C72 217.66 72 218.32 72 219 C72.66 219 73.32 219 74 219 C74.33 220.98 74.66 222.96 75 225 C75.99 225.33 76.98 225.66 78 226 C78 226.99 78 227.98 78 229 C78.99 229 79.98 229 81 229 C81 229.66 81 230.32 81 231 C81.99 231.33 82.98 231.66 84 232 C85.82421875 233.77734375 85.82421875 233.77734375 87.6875 235.9375 C88.62142578 237.00291016 88.62142578 237.00291016 89.57421875 238.08984375 C91 240 91 240 91 242 C91.99 242 92.98 242 94 242 C95.6875 243.3125 95.6875 243.3125 97 245 C97 245.99 97 246.98 97 248 C97.99 248 98.98 248 100 248 C101.37868281 249.62935241 102.71274093 251.29749607 104 253 C104.66 253.33 105.32 253.66 106 254 C106 254.66 106 255.32 106 256 C106.99 256.33 107.98 256.66 109 257 C109 257.66 109 258.32 109 259 C109.66 259 110.32 259 111 259 C111 259.66 111 260.32 111 261 C111.99 261.33 112.98 261.66 114 262 C114 262.99 114 263.98 114 265 C114.99 265 115.98 265 117 265 C117 266.98 117 268.96 117 271 C117.99 271 118.98 271 120 271 C120 271.66 120 272.32 120 273 C120.99 273.33 121.98 273.66 123 274 C123 274.99 123 275.98 123 277 C123.61875 277.0825 124.2375 277.165 124.875 277.25 C127 278 127 278 128.25 280.0625 C128.4975 280.701875 128.745 281.34125 129 282 C129.66 282 130.32 282 131 282 C131 282.66 131 283.32 131 284 C131.99 284.33 132.98 284.66 134 285 C134 285.99 134 286.98 134 288 C134.99 288 135.98 288 137 288 C137 288.66 137 289.32 137 290 C137.99 290.33 138.98 290.66 140 291 C140 291.99 140 292.98 140 294 C140.99 294 141.98 294 143 294 C143 294.66 143 295.32 143 296 C143.99 296.33 144.98 296.66 146 297 C150.77272727 301.31818182 150.77272727 301.31818182 152 305 C152.66 305 153.32 305 154 305 C154 305.66 154 306.32 154 307 C154.99 307.33 155.98 307.66 157 308 C157 308.99 157 309.98 157 311 C157.99 311 158.98 311 160 311 C160 312.98 160 314.96 160 317 C160.99 317 161.98 317 163 317 C163 317.66 163 318.32 163 319 C163.7425 318.9175 164.485 318.835 165.25 318.75 C168 319 168 319 170.3125 320.6875 C172.28544288 323.39116247 172.36337162 324.72965541 172 328 C172.639375 328.268125 173.27875 328.53625 173.9375 328.8125 C176 330 176 330 177 333 C178.32 333 179.64 333 181 333 C181.33 332.01 181.66 331.02 182 330 C183.65 330 185.3 330 187 330 C187 329.34 187 328.68 187 328 C187.99 328 188.98 328 190 328 C190.33 326.68 190.66 325.36 191 324 C193.62506802 323.97309156 196.24986173 323.95320596 198.875 323.9375 C199.62136719 323.92912109 200.36773437 323.92074219 201.13671875 323.91210938 C206.7734375 323.88671875 206.7734375 323.88671875 209 325 C209 325.99 209 326.98 209 328 C209.66 328 210.32 328 211 328 C211 328.66 211 329.32 211 330 C212.32 330.33 213.64 330.66 215 331 C215 337.6 215 344.2 215 351 C213.68 351.33 212.36 351.66 211 352 C210.87625 352.61875 210.7525 353.2375 210.625 353.875 C210 356 210 356 208 358 C207.01 358 206.02 358 205 358 C205 359.32 205 360.64 205 362 C206.32 362.33 207.64 362.66 209 363 C209 363.66 209 364.32 209 365 C209.66 365 210.32 365 211 365 C211 365.66 211 366.32 211 367 C212.32 367.66 213.64 368.32 215 369 C215 370.32 215 371.64 215 373 C215.66 373 216.32 373 217 373 C217 373.99 217 374.98 217 376 C217.99 376 218.98 376 220 376 C222 379 222 379 222 382 C223.32 382 224.64 382 226 382 C226 383.98 226 385.96 226 388 C226.66 388 227.32 388 228 388 C228 393.94 228 399.88 228 406 C227.34 406 226.68 406 226 406 C226 406.99 226 407.98 226 409 C224.68 409.33 223.36 409.66 222 410 C222.0928125 411.1446875 222.0928125 411.1446875 222.1875 412.3125 C222 415 222 415 220.625 416.8125 C219 418 219 418 217 418 C217 418.99 217 419.98 217 421 C216.34 421 215.68 421 215 421 C215 421.66 215 422.32 215 423 C213.02 423.33 211.04 423.66 209 424 C208.67 424.99 208.34 425.98 208 427 C207.01 427 206.02 427 205 427 C205 427.66 205 428.32 205 429 C204.34 429 203.68 429 203 429 C203 429.99 203 430.98 203 432 C197.61792923 434.24105897 192.84254456 434.23693988 187.125 434.125 C186.24585938 434.11597656 185.36671875 434.10695313 184.4609375 434.09765625 C182.3071729 434.07424577 180.15354986 434.0383801 178 434 C178 433.34 178 432.68 178 432 C177.34 432 176.68 432 176 432 C176 431.01 176 430.02 176 429 C174.02 429 172.04 429 170 429 C170 428.34 170 427.68 170 427 C169.01 426.67 168.02 426.34 167 426 C167 425.01 167 424.02 167 423 C166.01 423 165.02 423 164 423 C164 422.34 164 421.68 164 421 C163.01 420.67 162.02 420.34 161 420 C159.3125 418.5625 159.3125 418.5625 158 417 C158 416.34 158 415.68 158 415 C157.34 415 156.68 415 156 415 C156 414.01 156 413.02 156 412 C155.071875 411.5359375 155.071875 411.5359375 154.125 411.0625 C152.75 410.375 151.375 409.6875 150 409 C150 407.35 150 405.7 150 404 C149.01 403.67 148.02 403.34 147 403 C147 402.34 147 401.68 147 401 C146.01 400.67 145.02 400.34 144 400 C144 399.34 144 398.68 144 398 C143.01 398 142.02 398 141 398 C141 397.01 141 396.02 141 395 C140.01 394.67 139.02 394.34 138 394 C138 393.34 138 392.68 138 392 C137.01 391.67 136.02 391.34 135 391 C135 390.34 135 389.68 135 389 C134.34 389 133.68 389 133 389 C133 388.34 133 387.68 133 387 C132.01 386.67 131.02 386.34 130 386 C130 385.34 130 384.68 130 384 C129.01 383.67 128.02 383.34 127 383 C127 382.34 127 381.68 127 381 C126.01 380.67 125.02 380.34 124 380 C124 379.34 124 378.68 124 378 C123.01 377.67 122.02 377.34 121 377 C121 376.34 121 375.68 121 375 C120.01 374.67 119.02 374.34 118 374 C118 373.34 118 372.68 118 372 C117.01 371.67 116.02 371.34 115 371 C115 370.34 115 369.68 115 369 C114.01 368.67 113.02 368.34 112 368 C110 365 110 365 110 361 C109.01 360.67 108.02 360.34 107 360 C107 359.34 107 358.68 107 358 C106.34 358 105.68 358 105 358 C105 357.34 105 356.68 105 356 C103.68 355.67 102.36 355.34 101 355 C101 354.01 101 353.02 101 352 C100.34 352 99.68 352 99 352 C98.67 351.34 98.34 350.68 98 350 C97.01 349.67 96.02 349.34 95 349 C95 348.01 95 347.02 95 346 C94.34 346 93.68 346 93 346 C93 345.01 93 344.02 93 343 C92.360625 342.896875 91.72125 342.79375 91.0625 342.6875 C90.0415625 342.3471875 90.0415625 342.3471875 89 342 C88.67 341.01 88.34 340.02 88 339 C85.99983534 337.79117904 85.99983534 337.79117904 84 337 C84 336.34 84 335.68 84 335 C83.34 335 82.68 335 82 335 C82 334.34 82 333.68 82 333 C80.68 332.34 79.36 331.68 78 331 C78 330.34 78 329.68 78 329 C77.34 329 76.68 329 76 329 C75.67 328.34 75.34 327.68 75 327 C74.01 326.67 73.02 326.34 72 326 C72 325.01 72 324.02 72 323 C71.34 323 70.68 323 70 323 C70 322.34 70 321.68 70 321 C69.34 321 68.68 321 68 321 C68 354.33 68 387.66 68 422 C69.32 422.33 70.64 422.66 72 423 C72 424.65 72 426.3 72 428 C72.99 428.33 73.98 428.66 75 429 C75 429.66 75 430.32 75 431 C75.99 431 76.98 431 78 431 C78 432.65 78 434.3 78 436 C78.66 436 79.32 436 80 436 C83.08536234 439.38394579 84.96545628 442.93091256 87 447 C87.66 447.33 88.32 447.66 89 448 C89 449.98 89 451.96 89 454 C89.7425 454.165 90.485 454.33 91.25 454.5 C94.82466174 456.4498155 95.55277462 458.56886964 97.10546875 462.22265625 C97.87092844 464.18458539 97.87092844 464.18458539 100 465 C100 465.66 100 466.32 100 467 C100.598125 467.185625 101.19625 467.37125 101.8125 467.5625 C105.01296996 469.66566597 105.60746667 472.51866668 107 476 C107.66 476.33 108.32 476.66 109 477 C109.73075648 479.3140622 110.40138258 481.64828869 111 484 C111.99 484 112.98 484 114 484 C114 485.98 114 487.96 114 490 C114.99 490 115.98 490 117 490 C117 491.32 117 492.64 117 494 C117.99 494 118.98 494 120 494 C120 494.66 120 495.32 120 496 C120.99 496 121.98 496 123 496 C123 497.65 123 499.3 123 501 C123.99 501.33 124.98 501.66 126 502 C129.02961194 504.33047072 129.32634221 506.34300058 130 510 C130.66 510.33 131.32 510.66 132 511 C132 511.66 132 512.32 132 513 C132.66 513 133.32 513 134 513 C134 514.98 134 516.96 134 519 C134.99 519 135.98 519 137 519 C138.6875 520.1875 138.6875 520.1875 140 522 C140.1875 524.6875 140.1875 524.6875 140 527 C140.99 527.33 141.98 527.66 143 528 C143 528.66 143 529.32 143 530 C143.99 530 144.98 530 146 530 C146 530.99 146 531.98 146 533 C146.99 533.33 147.98 533.66 149 534 C150.23867161 536.61497339 151.08503983 539.25511949 152 542 C152.66 542 153.32 542 154 542 C154.33 543.65 154.66 545.3 155 547 C155.66 547 156.32 547 157 547 C159.74375671 549.95481492 160 550.77471908 160 555 C160.99 555.33 161.98 555.66 163 556 C163 556.99 163 557.98 163 559 C163.99 559 164.98 559 166 559 C166 560.98 166 562.96 166 565 C166.99 565 167.98 565 169 565 C169 565.66 169 566.32 169 567 C169.99 567.33 170.98 567.66 172 568 C173.23867161 570.61497339 174.08503983 573.25511949 175 576 C175.66 576 176.32 576 177 576 C177 576.66 177 577.32 177 578 C177.99 578.33 178.98 578.66 180 579 C180 580.65 180 582.3 180 584 C180.99 584.33 181.98 584.66 183 585 C183 585.66 183 586.32 183 587 C188.04468729 589.21474076 190.85910687 588.85072153 196 587 C196 586.01 196 585.02 196 584 C197.65 584 199.3 584 201 584 C201 583.34 201 582.68 201 582 C202.65 582 204.3 582 206 582 C206.66 580.68 207.32 579.36 208 578 C209.65 578 211.3 578 213 578 C213 577.34 213 576.68 213 576 C215.97 576 218.94 576 222 576 C222 576.66 222 577.32 222 578 C223.98 578 225.96 578 228 578 C228 579.32 228 580.64 228 582 C229.32 582 230.64 582 232 582 C234.68017364 588.0303907 235.35731884 595.76328222 233.32421875 602.109375 C232.5 603.75 232.5 603.75 231 606 C230.01 606 229.02 606 228 606 C228 606.66 228 607.32 228 608 C226.02 608.33 224.04 608.66 222 609 C221.855625 609.639375 221.71125 610.27875 221.5625 610.9375 C221 613 221 613 220 614 C218.33382885 614.04063832 216.66611905 614.042721 215 614 C215 614.99 215 615.98 215 617 C214.01 617.33 213.02 617.66 212 618 C211.67 618.66 211.34 619.32 211 620 C210.34 620 209.68 620 209 620 C209 620.99 209 621.98 209 623 C207.02 623 205.04 623 203 623 C202.34 624.32 201.68 625.64 201 627 C200.34 627 199.68 627 199 627 C199 627.66 199 628.32 199 629 C196.69 629.66 194.38 630.32 192 631 C192 631.99 192 632.98 192 634 C190.02 634 188.04 634 186 634 C186 634.99 186 635.98 186 637 C185.01 637 184.02 637 183 637 C183 637.99 183 638.98 183 640 C181.02 640 179.04 640 177 640 C177 640.99 177 641.98 177 643 C176.34 643 175.68 643 175 643 C174.67 643.99 174.34 644.98 174 646 C172.35 646 170.7 646 169 646 C168.67 646.99 168.34 647.98 168 649 C167.34 649 166.68 649 166 649 C165.67 649.99 165.34 650.98 165 652 C164.34 652 163.68 652 163 652 C163 652.66 163 653.32 163 654 C161.02 654 159.04 654 157 654 C157 654.99 157 655.98 157 657 C150.07 657 143.14 657 136 657 C135.67 656.01 135.34 655.02 135 654 C134.34 654 133.68 654 133 654 C133 653.34 133 652.68 133 652 C132.01 651.67 131.02 651.34 130 651 C130 650.34 130 649.68 130 649 C129.01 648.67 128.02 648.34 127 648 C127 646.35 127 644.7 127 643 C126.01 643 125.02 643 124 643 C124 642.01 124 641.02 124 640 C123.01 639.67 122.02 639.34 121 639 C121 637.35 121 635.7 121 634 C120.01 634 119.02 634 118 634 C118 633.01 118 632.02 118 631 C117.01 630.67 116.02 630.34 115 630 C115 628.68 115 627.36 115 626 C114.01 625.67 113.02 625.34 112 625 C111.3125 622.9375 111.3125 622.9375 111 621 C109.68 620.67 108.36 620.34 107 620 C107 618.02 107 616.04 107 614 C106.34 614 105.68 614 105 614 C105 613.34 105 612.68 105 612 C103.68 611.67 102.36 611.34 101 611 C101 609.35 101 607.7 101 606 C100.34 606 99.68 606 99 606 C99 605.34 99 604.68 99 604 C98.38125 603.71125 97.7625 603.4225 97.125 603.125 C95 602 95 602 93 600 C92.875 597.375 92.875 597.375 93 595 C92.01 594.67 91.02 594.34 90 594 C87.8480563 590.77208445 87.79913557 589.71599191 88 586 C87.071875 585.87625 87.071875 585.87625 86.125 585.75 C83.33061257 584.76374561 83.283048 583.56609601 82 581 C80.68 580.67 79.36 580.34 78 580 C77.34 577.36 76.68 574.72 76 572 C74.68 571.67 73.36 571.34 72 571 C72 569.35 72 567.7 72 566 C71.34 566 70.68 566 70 566 C67.25624329 563.04518508 67 562.22528092 67 558 C66.34 558 65.68 558 65 558 C65 557.01 65 556.02 65 555 C64.071875 554.8453125 64.071875 554.8453125 63.125 554.6875 C61 554 61 554 59 551 C58.875 548.3125 58.875 548.3125 59 546 C57.68 545.67 56.36 545.34 55 545 C55 544.34 55 543.68 55 543 C54.34 543 53.68 543 53 543 C53 541.35 53 539.7 53 538 C52.38125 537.71125 51.7625 537.4225 51.125 537.125 C49 536 49 536 47 534 C46.875 531.375 46.875 531.375 47 529 C46.01 528.67 45.02 528.34 44 528 C44 527.34 44 526.68 44 526 C43.34 526 42.68 526 42 526 C42 525.01 42 524.02 42 523 C40.68 522.67 39.36 522.34 38 522 C37.7525 520.88625 37.505 519.7725 37.25 518.625 C36.38994661 514.95384802 36.38994661 514.95384802 33.875 513.5625 C33.25625 513.376875 32.6375 513.19125 32 513 C32 511.68 32 510.36 32 509 C31.34 509 30.68 509 30 509 C26.24100587 505.45551369 23.7947936 501.83213661 22 497 C21.01 496.34 20.02 495.68 19 495 C18.8125 492.375 18.8125 492.375 19 490 C18.34 490 17.68 490 17 490 C14.875 488.125 14.875 488.125 13 486 C13 485.34 13 484.68 13 484 C12.34 484 11.68 484 11 484 C10.67 482.68 10.34 481.36 10 480 C9.01 480 8.02 480 7 480 C6.67 479.01 6.34 478.02 6 477 C5.01 477.33 4.02 477.66 3 478 C3 479.65 3 481.3 3 483 C2.01 483.33 1.02 483.66 0 484 C0 484.66 0 485.32 0 486 C-0.66 486 -1.32 486 -2 486 C-3.12221661 488.16427488 -4.098563 490.26940553 -4.9375 492.5625 C-6.00683758 495.01568622 -6.91487664 496.34927734 -9 498 C-9.66 498 -10.32 498 -11 498 C-11.33 498.99 -11.66 499.98 -12 501 C-12.66 501 -13.32 501 -14 501 C-13.938125 501.763125 -13.87625 502.52625 -13.8125 503.3125 C-14 506 -14 506 -15.3125 507.8125 C-17 509 -17 509 -20 509 C-20 509.99 -20 510.98 -20 512 C-20.66 512 -21.32 512 -22 512 C-22.12375 512.763125 -22.2475 513.52625 -22.375 514.3125 C-23 517 -23 517 -25 520 C-25.66 520 -26.32 520 -27 520 C-27 521.65 -27 523.3 -27 525 C-27.928125 525.0928125 -27.928125 525.0928125 -28.875 525.1875 C-29.57625 525.455625 -30.2775 525.72375 -31 526 C-31.33 526.825 -31.66 527.65 -32 528.5 C-32.33 529.325 -32.66 530.15 -33 531 C-35.125 531.8125 -35.125 531.8125 -37 532 C-37 532.99 -37 533.98 -37 535 C-37.66 535 -38.32 535 -39 535 C-39.33 536.65 -39.66 538.3 -40 540 C-40.99 540.33 -41.98 540.66 -43 541 C-43.33 542.155 -43.66 543.31 -44 544.5 C-44.33 545.655 -44.66 546.81 -45 548 C-45.99 548.33 -46.98 548.66 -48 549 C-48.309375 549.825 -48.61875 550.65 -48.9375 551.5 C-49.288125 552.325 -49.63875 553.15 -50 554 C-52.125 554.8125 -52.125 554.8125 -54 555 C-53.896875 555.7425 -53.79375 556.485 -53.6875 557.25 C-54 560 -54 560 -56.4375 562.1875 C-57.283125 562.785625 -58.12875 563.38375 -59 564 C-59.33 564.66 -59.66 565.32 -60 566 C-60.66 566 -61.32 566 -62 566 C-62 567.65 -62 569.3 -62 571 C-63.32 571.33 -64.64 571.66 -66 572 C-66.0825 572.61875 -66.165 573.2375 -66.25 573.875 C-67 576 -67 576 -69.0625 577.25 C-69.701875 577.4975 -70.34125 577.745 -71 578 C-70.9175 578.763125 -70.835 579.52625 -70.75 580.3125 C-71 583 -71 583 -72.875 584.8125 C-75 586 -75 586 -77 586 C-77 586.99 -77 587.98 -77 589 C-77.66 589 -78.32 589 -79 589 C-79 590.65 -79 592.3 -79 594 C-79.928125 594.0928125 -79.928125 594.0928125 -80.875 594.1875 C-81.57625 594.455625 -82.2775 594.72375 -83 595 C-83.70211894 596.65204456 -84.36971413 598.31923769 -85 600 C-85.99 600.33 -86.98 600.66 -88 601 C-88.144375 601.78375 -88.28875 602.5675 -88.4375 603.375 C-89 606 -89 606 -90 608 C-90.99 608.33 -91.98 608.66 -93 609 C-95.14456926 611.75628937 -95.14456926 611.75628937 -95.375 614.5 C-96 617 -96 617 -97.9375 618.8125 C-100 620 -100 620 -102 620 C-102 620.99 -102 621.98 -102 623 C-102.99 623 -103.98 623 -105 623 C-105 624.65 -105 626.3 -105 628 C-105.99 628.33 -106.98 628.66 -108 629 C-108 630.32 -108 631.64 -108 633 C-107.195625 633.268125 -106.39125 633.53625 -105.5625 633.8125 C-104.2940625 634.4003125 -104.2940625 634.4003125 -103 635 C-102.505 636.485 -102.505 636.485 -102 638 C-100.02 638.33 -98.04 638.66 -96 639 C-96 639.66 -96 640.32 -96 641 C-95.34 641 -94.68 641 -94 641 C-94 641.99 -94 642.98 -94 644 C-93.38125 644.061875 -92.7625 644.12375 -92.125 644.1875 C-91.42375 644.455625 -90.7225 644.72375 -90 645 C-89.29788106 646.65204456 -88.63028587 648.31923769 -88 650 C-87.01 650.33 -86.02 650.66 -85 651 C-85 656.61 -85 662.22 -85 668 C-85.99 668.33 -86.98 668.66 -88 669 C-88.4021875 669.928125 -88.4021875 669.928125 -88.8125 670.875 C-90.64640113 674.15671782 -92.46360681 674.75916028 -96 676 C-101.826142 676.55527746 -106.62094088 676.44148976 -112 674 C-112 673.34 -112 672.68 -112 672 C-112.99 672 -113.98 672 -115 672 C-115 671.01 -115 670.02 -115 669 C-115.99 669 -116.98 669 -118 669 C-118 668.01 -118 667.02 -118 666 C-119.98 666 -121.96 666 -124 666 C-124 665.01 -124 664.02 -124 663 C-124.99 663 -125.98 663 -127 663 C-127 662.01 -127 661.02 -127 660 C-128.65 660 -130.3 660 -132 660 C-132 659.01 -132 658.02 -132 657 C-132.99 657 -133.98 657 -135 657 C-135 656.01 -135 655.02 -135 654 C-135.99 654 -136.98 654 -138 654 C-138 653.34 -138 652.68 -138 652 C-139.65 652 -141.3 652 -143 652 C-143.495 650.515 -143.495 650.515 -144 649 C-144.99 648.67 -145.98 648.34 -147 648 C-147 647.34 -147 646.68 -147 646 C-149.63904371 644.58622659 -152.07120629 643.62759865 -155 643 C-155 642.01 -155 641.02 -155 640 C-155.99 640 -156.98 640 -158 640 C-158 639.01 -158 638.02 -158 637 C-159.98 637 -161.96 637 -164 637 C-164 636.01 -164 635.02 -164 634 C-164.99 633.67 -165.98 633.34 -167 633 C-167 632.34 -167 631.68 -167 631 C-168.65 631 -170.3 631 -172 631 C-172 630.34 -172 629.68 -172 629 C-172.61875 628.7525 -173.2375 628.505 -173.875 628.25 C-176.35068687 626.79371361 -176.95125002 625.62187494 -178 623 C-178.99 623 -179.98 623 -181 623 C-181 622.01 -181 621.02 -181 620 C-181.99 619.67 -182.98 619.34 -184 619 C-184 617.35 -184 615.7 -184 614 C-184.99 614 -185.98 614 -187 614 C-187 609.05 -187 604.1 -187 599 C-186.01 599 -185.02 599 -184 599 C-184 597.35 -184 595.7 -184 594 C-183.01 593.67 -182.02 593.34 -181 593 C-181 591.35 -181 589.7 -181 588 C-180.01 587.67 -179.02 587.34 -178 587 C-177.67 586.34 -177.34 585.68 -177 585 C-176 583 -176 583 -173 582 C-172.67 580.02 -172.34 578.04 -172 576 C-171.34 576 -170.68 576 -170 576 C-169.7525 575.38125 -169.505 574.7625 -169.25 574.125 C-167.79371361 571.64931313 -166.62187494 571.04874998 -164 570 C-164 568.35 -164 566.7 -164 565 C-163.01 565 -162.02 565 -161 565 C-160.67 563.68 -160.34 562.36 -160 561 C-159.34 561 -158.68 561 -158 561 C-158 560.34 -158 559.68 -158 559 C-157.01 559 -156.02 559 -155 559 C-155 557.02 -155 555.04 -155 553 C-154.34 553 -153.68 553 -153 553 C-152.62875 552.071875 -152.62875 552.071875 -152.25 551.125 C-150.79371361 548.64931313 -149.62187494 548.04874998 -147 547 C-147 545.35 -147 543.7 -147 542 C-146.01 542 -145.02 542 -144 542 C-142.47700477 539.06279492 -141.19899698 536.0831351 -140 533 C-139.34 533 -138.68 533 -138 533 C-138 532.01 -138 531.02 -138 530 C-137.01 530 -136.02 530 -135 530 C-134.67 529.01 -134.34 528.02 -134 527 C-133.34 527 -132.68 527 -132 527 C-131.34 524.36 -130.68 521.72 -130 519 C-129.01 519 -128.02 519 -127 519 C-127 518.34 -127 517.68 -127 517 C-126.01 517 -125.02 517 -124 517 C-124 515.68 -124 514.36 -124 513 C-123.01 513 -122.02 513 -121 513 C-121 511.35 -121 509.7 -121 508 C-120.01 507.67 -119.02 507.34 -118 507 C-117.67 506.01 -117.34 505.02 -117 504 C-116.34 504 -115.68 504 -115 504 C-114.67 503.01 -114.34 502.02 -114 501 C-113.34 501 -112.68 501 -112 501 C-112 499.35 -112 497.7 -112 496 C-110.35 495.34 -108.7 494.68 -107 494 C-107.0825 493.0925 -107.165 492.185 -107.25 491.25 C-107 488 -107 488 -105.125 485.625 C-103 484 -103 484 -101 484 C-101 483.34 -101 482.68 -101 482 C-100.34 481.67 -99.68 481.34 -99 481 C-98.27840576 479.35636866 -97.60648579 477.68949614 -97 476 C-96.34 476 -95.68 476 -95 476 C-95 475.01 -95 474.02 -95 473 C-94.01 473 -93.02 473 -92 473 C-92 472.34 -92 471.68 -92 471 C-91.34 471 -90.68 471 -90 471 C-90.0825 470.278125 -90.165 469.55625 -90.25 468.8125 C-89.92256852 465.12889581 -88.53906064 463.61373889 -86 461 C-85.34 461 -84.68 461 -84 461 C-84 460.34 -84 459.68 -84 459 C-83.34 459 -82.68 459 -82 459 C-81.67 457.35 -81.34 455.7 -81 454 C-80.34 454 -79.68 454 -79 454 C-78.34 452.68 -77.68 451.36 -77 450 C-76.34 450 -75.68 450 -75 450 C-75 449.34 -75 448.68 -75 448 C-74.34 448 -73.68 448 -73 448 C-73 446.35 -73 444.7 -73 443 C-71.68 442.67 -70.36 442.34 -69 442 C-68.814375 441.1646875 -68.814375 441.1646875 -68.625 440.3125 C-68 438 -68 438 -66.97888184 435.84022522 C-65.75135193 432.27854772 -65.70777683 428.9647759 -65.71289062 425.24389648 C-65.70605759 424.47905945 -65.69922455 423.71422241 -65.69218445 422.9262085 C-65.67863449 421.27187966 -65.66955682 419.61750938 -65.66447449 417.96313286 C-65.65616562 415.34450154 -65.63564385 412.72621563 -65.61193848 410.10768127 C-65.55560741 403.60673306 -65.52031128 397.10570102 -65.48431396 390.60461426 C-65.45306693 385.10537299 -65.41387802 379.60630023 -65.36405945 374.1071949 C-65.34399832 371.52801888 -65.33567405 368.94897347 -65.32775879 366.36973572 C-65.31478672 364.78872196 -65.30126646 363.20771257 -65.28710938 361.62670898 C-65.28858223 360.55200096 -65.28858223 360.55200096 -65.29008484 359.45558167 C-65.24391097 355.75532083 -64.89048863 353.18748256 -63 350 C-62.63611114 347.29465143 -62.63611114 347.29465143 -62.5859375 344.359375 C-62.54726562 343.28945313 -62.50859375 342.21953125 -62.46875 341.1171875 C-62.4378125 340.00601562 -62.406875 338.89484375 -62.375 337.75 C-62.31699219 336.06003906 -62.31699219 336.06003906 -62.2578125 334.3359375 C-62.16362664 331.55745452 -62.07800414 328.77897666 -62 326 C-62.928125 326.495 -63.85625 326.99 -64.8125 327.5 C-68 329 -68 329 -71 329 C-71.12375 329.61875 -71.2475 330.2375 -71.375 330.875 C-72 333 -72 333 -74 335 C-74.99 335 -75.98 335 -77 335 C-77.12375 335.61875 -77.2475 336.2375 -77.375 336.875 C-78 339 -78 339 -80 341 C-80.99 341 -81.98 341 -83 341 C-83 341.66 -83 342.32 -83 343 C-83.66 343 -84.32 343 -85 343 C-85 343.99 -85 344.98 -85 346 C-85.99 346 -86.98 346 -88 346 C-88.37125 347.2065625 -88.37125 347.2065625 -88.75 348.4375 C-90 351 -90 351 -92.125 351.8125 C-93.053125 351.9053125 -93.053125 351.9053125 -94 352 C-94 352.99 -94 353.98 -94 355 C-94.66 355 -95.32 355 -96 355 C-96.33 355.99 -96.66 356.98 -97 358 C-97.99 358 -98.98 358 -100 358 C-100 358.99 -100 359.98 -100 361 C-100.66 361 -101.32 361 -102 361 C-102.33 361.99 -102.66 362.98 -103 364 C-103.66 364 -104.32 364 -105 364 C-105 364.66 -105 365.32 -105 366 C-105.99 366 -106.98 366 -108 366 C-108 366.99 -108 367.98 -108 369 C-108.99 369 -109.98 369 -111 369 C-111 369.99 -111 370.98 -111 372 C-111.66 372 -112.32 372 -113 372 C-113.33 372.99 -113.66 373.98 -114 375 C-115.65 375 -117.3 375 -119 375 C-119.33 375.99 -119.66 376.98 -120 378 C-120.66 378 -121.32 378 -122 378 C-122.93423645 381.01031744 -123.04449911 381.86650268 -122 385 C-121.01 385 -120.02 385 -119 385 C-119 386.65 -119 388.3 -119 390 C-118.01 390.33 -117.02 390.66 -116 391 C-116 391.66 -116 392.32 -116 393 C-115.01 393.33 -114.02 393.66 -113 394 C-113 400.6 -113 407.2 -113 414 C-113.99 414.33 -114.98 414.66 -116 415 C-116 415.66 -116 416.32 -116 417 C-116.66 417.33 -117.32 417.66 -118 418 C-118.33 418.99 -118.66 419.98 -119 421 C-125.27 421 -131.54 421 -138 421 C-138.495 419.515 -138.495 419.515 -139 418 C-139.66 417.67 -140.32 417.34 -141 417 C-141 416.34 -141 415.68 -141 415 C-142.98 415 -144.96 415 -147 415 C-147 414.01 -147 413.02 -147 412 C-147.99 411.67 -148.98 411.34 -150 411 C-150 410.34 -150 409.68 -150 409 C-150.99 408.67 -151.98 408.34 -153 408 C-153.33 409.32 -153.66 410.64 -154 412 C-154.66 412 -155.32 412 -156 412 C-156.33 412.99 -156.66 413.98 -157 415 C-157.66 415 -158.32 415 -159 415 C-159 415.66 -159 416.32 -159 417 C-159.66 417 -160.32 417 -161 417 C-161.33 418.98 -161.66 420.96 -162 423 C-162.99 423 -163.98 423 -165 423 C-165.33 424.32 -165.66 425.64 -166 427 C-166.66 427 -167.32 427 -168 427 C-168 427.66 -168 428.32 -168 429 C-169.98 429 -171.96 429 -174 429 C-174 429.99 -174 430.98 -174 432 C-176.64 432 -179.28 432 -182 432 C-182 432.66 -182 433.32 -182 434 C-185.63 434 -189.26 434 -193 434 C-193 433.34 -193 432.68 -193 432 C-194.65 432 -196.3 432 -198 432 C-198 431.01 -198 430.02 -198 429 C-199.1446875 429.061875 -199.1446875 429.061875 -200.3125 429.125 C-203 429 -203 429 -206 427 C-206.33 426.01 -206.66 425.02 -207 424 C-207.99 423.67 -208.98 423.34 -210 423 C-210 422.34 -210 421.68 -210 421 C-210.66 421 -211.32 421 -212 421 C-212 420.01 -212 419.02 -212 418 C-213.32 417.67 -214.64 417.34 -216 417 C-216 416.34 -216 415.68 -216 415 C-216.66 415 -217.32 415 -218 415 C-218 414.01 -218 413.02 -218 412 C-218.639375 411.690625 -219.27875 411.38125 -219.9375 411.0625 C-222 410 -222 410 -223 409 C-223.04063832 407.33382885 -223.042721 405.66611905 -223 404 C-223.66 404 -224.32 404 -225 404 C-225 396.74 -225 389.48 -225 382 C-224.34 382 -223.68 382 -223 382 C-223 381.01 -223 380.02 -223 379 C-222.34 379 -221.68 379 -221 379 C-221 377.35 -221 375.7 -221 374 C-220.01 373.67 -219.02 373.34 -218 373 C-217.690625 372.360625 -217.38125 371.72125 -217.0625 371.0625 C-215.7657662 368.54531085 -214.5778263 368.03113052 -212 367 C-212 366.34 -212 365.68 -212 365 C-211.34 365 -210.68 365 -210 365 C-209.67 364.01 -209.34 363.02 -209 362 C-208.01 362 -207.02 362 -206 362 C-206 361.01 -206 360.02 -206 359 C-205.34 359 -204.68 359 -204 359 C-203.67 358.01 -203.34 357.02 -203 356 C-202.01 356 -201.02 356 -200 356 C-200 355.01 -200 354.02 -200 353 C-199.34 353 -198.68 353 -198 353 C-197.67 352.01 -197.34 351.02 -197 350 C-196.34 350 -195.68 350 -195 350 C-194.62875 349.13375 -194.62875 349.13375 -194.25 348.25 C-192.81700012 345.67060021 -191.21575324 343.93878408 -189 342 C-188.34 342 -187.68 342 -187 342 C-187 341.34 -187 340.68 -187 340 C-185.125 337.875 -185.125 337.875 -183 336 C-182.34 336 -181.68 336 -181 336 C-181 335.34 -181 334.68 -181 334 C-176.69767442 329.23255814 -176.69767442 329.23255814 -173 328 C-172.690625 327.360625 -172.38125 326.72125 -172.0625 326.0625 C-170.74945658 323.513651 -169.51625085 323.21754073 -167 322 C-166.67 321.01 -166.34 320.02 -166 319 C-165.34 319 -164.68 319 -164 319 C-164 318.34 -164 317.68 -164 317 C-163.01 317 -162.02 317 -161 317 C-160.67 315.68 -160.34 314.36 -160 313 C-159.34 313 -158.68 313 -158 313 C-158 312.34 -158 311.68 -158 311 C-157.01 311 -156.02 311 -155 311 C-154.9175 310.38125 -154.835 309.7625 -154.75 309.125 C-153.76174558 306.32494581 -152.59640015 306.25886068 -150 305 C-149.31513275 303.67592331 -148.65129797 302.34090759 -148 301 C-145.5 298.25 -145.5 298.25 -143 296 C-142.34 296 -141.68 296 -141 296 C-141 295.34 -141 294.68 -141 294 C-140.01 294 -139.02 294 -138 294 C-137.67 292.68 -137.34 291.36 -137 290 C-136.34 290 -135.68 290 -135 290 C-135 289.34 -135 288.68 -135 288 C-134.01 288 -133.02 288 -132 288 C-131.9175 287.38125 -131.835 286.7625 -131.75 286.125 C-131 284 -131 284 -129 282.9375 C-128.01 282.4734375 -128.01 282.4734375 -127 282 C-126.67 281.01 -126.34 280.02 -126 279 C-125.34 279 -124.68 279 -124 279 C-124 278.34 -124 277.68 -124 277 C-123.01 277 -122.02 277 -121 277 C-120.67 275.68 -120.34 274.36 -120 273 C-119.34 273 -118.68 273 -118 273 C-118 272.34 -118 271.68 -118 271 C-117.01 271 -116.02 271 -115 271 C-114.67 269.68 -114.34 268.36 -114 267 C-113.34 267 -112.68 267 -112 267 C-112 266.34 -112 265.68 -112 265 C-107.69767442 260.23255814 -107.69767442 260.23255814 -104 259 C-103.67 258.01 -103.34 257.02 -103 256 C-102.34 256 -101.68 256 -101 256 C-101 255.34 -101 254.68 -101 254 C-100.01 254 -99.02 254 -98 254 C-98 253.01 -98 252.02 -98 251 C-96.6875 249.3125 -96.6875 249.3125 -95 248 C-94.01 248 -93.02 248 -92 248 C-92 247.01 -92 246.02 -92 245 C-90.625 243.3125 -90.625 243.3125 -89 242 C-88.34 242 -87.68 242 -87 242 C-87 241.34 -87 240.68 -87 240 C-85.125 237.875 -85.125 237.875 -83 236 C-82.34 236 -81.68 236 -81 236 C-81 235.34 -81 234.68 -81 234 C-80.34 234 -79.68 234 -79 234 C-78.67 233.01 -78.34 232.02 -78 231 C-77.01 231 -76.02 231 -75 231 C-75 230.34 -75 229.68 -75 229 C-74.34 229 -73.68 229 -73 229 C-72.67 227.68 -72.34 226.36 -72 225 C-71.01 225 -70.02 225 -69 225 C-69 224.34 -69 223.68 -69 223 C-68.34 223 -67.68 223 -67 223 C-66.67 221.68 -66.34 220.36 -66 219 C-65.34 219 -64.68 219 -64 219 C-64 218.34 -64 217.68 -64 217 C-63.34 217 -62.68 217 -62 217 C-61.731875 216.38125 -61.46375 215.7625 -61.1875 215.125 C-60 213 -60 213 -57 211 C-56.27617533 208.94074861 -56.27617533 208.94074861 -56 207 C-56.66 207 -57.32 207 -58 207 C-59.33333333 205.66666667 -60.66666667 204.33333333 -62 203 C-62.9075 202.46375 -63.815 201.9275 -64.75 201.375 C-65.4925 200.92125 -66.235 200.4675 -67 200 C-67 199.34 -67 198.68 -67 198 C-67.66 198 -68.32 198 -69 198 C-69 197.34 -69 196.68 -69 196 C-70.32 195.67 -71.64 195.34 -73 195 C-73 194.01 -73 193.02 -73 192 C-73.66 192 -74.32 192 -75 192 C-75 191.34 -75 190.68 -75 190 C-75.61875 189.690625 -76.2375 189.38125 -76.875 189.0625 C-78.25 188.375 -79.625 187.6875 -81 187 C-81 186.34 -81 185.68 -81 185 C-81.99 184.67 -82.98 184.34 -84 184 C-84 183.01 -84 182.02 -84 181 C-84.99 181 -85.98 181 -87 181 C-87 180.34 -87 179.68 -87 179 C-87.66 179 -88.32 179 -89 179 C-89.33 177.02 -89.66 175.04 -90 173 C-90.66 173 -91.32 173 -92 173 C-92 171.68 -92 170.36 -92 169 C-92.99 169 -93.98 169 -95 169 C-95 167.35 -95 165.7 -95 164 C-95.99 164 -96.98 164 -98 164 C-98 162.02 -98 160.04 -98 158 C-98.99 158 -99.98 158 -101 158 C-101 155.36 -101 152.72 -101 150 C-101.99 150 -102.98 150 -104 150 C-104 146.37 -104 142.74 -104 139 C-104.99 138.67 -105.98 138.34 -107 138 C-107 119.85 -107 101.7 -107 83 C-106.01 82.67 -105.02 82.34 -104 82 C-104 79.36 -104 76.72 -104 74 C-103.01 74 -102.02 74 -101 74 C-101 71.36 -101 68.72 -101 66 C-100.01 65.67 -99.02 65.34 -98 65 C-98 63.35 -98 61.7 -98 60 C-97.01 59.67 -96.02 59.34 -95 59 C-95 58.34 -95 57.68 -95 57 C-94.01 57 -93.02 57 -92 57 C-92.061875 56.071875 -92.12375 55.14375 -92.1875 54.1875 C-92 51 -92 51 -90.625 49.125 C-89 48 -89 48 -87 48 C-86.67 46.02 -86.34 44.04 -86 42 C-85.34 42 -84.68 42 -84 42 C-84 41.34 -84 40.68 -84 40 C-82.5390625 38.4921875 -82.5390625 38.4921875 -80.625 36.875 C-79.99851563 36.33617187 -79.37203125 35.79734375 -78.7265625 35.2421875 C-77 34 -77 34 -75 34 C-75 33.01 -75 32.02 -75 31 C-72 29 -72 29 -69 29 C-69 27.68 -69 26.36 -69 25 C-68.34 25 -67.68 25 -67 25 C-67 24.34 -67 23.68 -67 23 C-66.21625 22.896875 -65.4325 22.79375 -64.625 22.6875 C-61.66954819 22.22404978 -61.66954819 22.22404978 -60 19 C-59.34 19 -58.68 19 -58 19 C-58 18.34 -58 17.68 -58 17 C-56.02 17 -54.04 17 -52 17 C-51.67 15.68 -51.34 14.36 -51 13 C-50.37351563 12.97421875 -49.74703125 12.9484375 -49.1015625 12.921875 C-48.28429687 12.86515625 -47.46703125 12.8084375 -46.625 12.75 C-45.81289062 12.70359375 -45.00078125 12.6571875 -44.1640625 12.609375 C-43.44992188 12.40828125 -42.73578125 12.2071875 -42 12 C-41.32470355 10.67101658 -40.65861044 9.33733112 -40 8 C-36.22429492 5.89724306 -32.95222657 5.78126975 -28.6875 5.875 C-27.61886719 5.89304687 -26.55023438 5.91109375 -25.44921875 5.9296875 C-24.64097656 5.95289063 -23.83273438 5.97609375 -23 6 C-23 4.68 -23 3.36 -23 2 C-15.41 2 -7.82 2 0 2 C0 1.34 0 0.68 0 0 Z M35 70 C33.62131719 71.62935241 32.28725907 73.29749607 31 75 C29.63875 75.7115625 29.63875 75.7115625 28.25 76.4375 C27.5075 76.953125 26.765 77.46875 26 78 C25.58253392 81.12635209 25.58253392 81.12635209 26 84 C25.01 84.33 24.02 84.66 23 85 C23 85.99 23 86.98 23 88 C23.99 88 24.98 88 26 88 C25.9071875 89.3921875 25.9071875 89.3921875 25.8125 90.8125 C25.71722131 93.94482734 25.71722131 93.94482734 27.3125 95.875 C29.07800472 97.2773501 29.07800472 97.2773501 32 97 C32 97.99 32 98.98 32 100 C35.64436764 102.42957843 37.47927548 102.26845889 41.8125 102.25 C43.61654297 102.25773437 43.61654297 102.25773437 45.45703125 102.265625 C48.9942852 102.00042845 51.74111974 101.38344095 55 100 C55.33 99.34 55.66 98.68 56 98 C56.99 97.67 57.98 97.34 59 97 C59 95.02 59 93.04 59 91 C59.66 91 60.32 91 61 91 C61 87.7 61 84.4 61 81 C60.34 81 59.68 81 59 81 C59 79.35 59 77.7 59 76 C58.16855469 75.60167969 58.16855469 75.60167969 57.3203125 75.1953125 C56.59585938 74.84210938 55.87140625 74.48890625 55.125 74.125 C54.40570313 73.77695313 53.68640625 73.42890625 52.9453125 73.0703125 C51 72 51 72 49 70 C43.71798433 67.56214661 40.363027 67.70155986 35 70 Z M-48.8125 73.4375 C-49.19019531 74.07558594 -49.56789062 74.71367188 -49.95703125 75.37109375 C-51 77 -51 77 -54 78 C-54 83.28 -54 88.56 -54 94 C-53.01 94.33 -52.02 94.66 -51 95 C-50.67 95.66 -50.34 96.32 -50 97 C-49.34 97 -48.68 97 -48 97 C-48 97.99 -48 98.98 -48 100 C-47.01 100 -46.02 100 -45 100 C-45 100.66 -45 101.32 -45 102 C-43.02 102.33 -41.04 102.66 -39 103 C-39 103.66 -39 104.32 -39 105 C-37.02 105 -35.04 105 -33 105 C-33 104.34 -33 103.68 -33 103 C-30.03 102.505 -30.03 102.505 -27 102 C-27 101.34 -27 100.68 -27 100 C-25.68 100 -24.36 100 -23 100 C-22.34 97.03 -21.68 94.06 -21 91 C-20.34 91 -19.68 91 -19 91 C-19 87.7 -19 84.4 -19 81 C-19.66 81 -20.32 81 -21 81 C-21.66 78.69 -22.32 76.38 -23 74 C-25.475 73.505 -25.475 73.505 -28 73 C-28.33 72.01 -28.66 71.02 -29 70 C-39.93662842 68.57181208 -39.93662842 68.57181208 -48.8125 73.4375 Z M-27 129 C-27.33 130.32 -27.66 131.64 -28 133 C-28.7425 132.95875 -29.485 132.9175 -30.25 132.875 C-33.33421811 132.82866033 -33.33421811 132.82866033 -37 135 C-37 139.29 -37 143.58 -37 148 C-36.01 148.33 -35.02 148.66 -34 149 C-33.67 149.66 -33.34 150.32 -33 151 C-32.34 151 -31.68 151 -31 151 C-31 151.99 -31 152.98 -31 154 C-29.02 154 -27.04 154 -25 154 C-24.67 154.99 -24.34 155.98 -24 157 C-23.34 157 -22.68 157 -22 157 C-22 157.99 -22 158.98 -22 160 C-19.36 160 -16.72 160 -14 160 C-14 160.66 -14 161.32 -14 162 C-11.36 162.33 -8.72 162.66 -6 163 C-5.67 163.99 -5.34 164.98 -5 166 C-0.05 166 4.9 166 10 166 C10.33 165.01 10.66 164.02 11 163 C11.65226562 162.96261719 12.30453125 162.92523438 12.9765625 162.88671875 C18.31622957 162.48506238 22.3204092 161.83238391 27 159 C27 158.34 27 157.68 27 157 C27.74765625 156.82984375 28.4953125 156.6596875 29.265625 156.484375 C30.25046875 156.24203125 31.2353125 155.9996875 32.25 155.75 C33.22453125 155.51796875 34.1990625 155.2859375 35.203125 155.046875 C38.34543272 153.87070395 39.89435431 152.58693613 42 150 C42 149.34 42 148.68 42 148 C42.66 148 43.32 148 44 148 C44 143.71 44 139.42 44 135 C43.34 135 42.68 135 42 135 C42 134.34 42 133.68 42 133 C41.01 133 40.02 133 39 133 C38.505 131.02 38.505 131.02 38 129 C35.03 129 32.06 129 29 129 C28.67 129.99 28.34 130.98 28 132 C27.34 132.33 26.68 132.66 26 133 C26 133.66 26 134.32 26 135 C24.35 135 22.7 135 21 135 C20.67 136.32 20.34 137.64 20 139 C18.700625 138.979375 17.40125 138.95875 16.0625 138.9375 C14.70834367 138.91600546 13.35243917 138.92851801 12 139 C11.67 139.33 11.34 139.66 11 140 C8.14122091 140.23701239 5.30116703 140.42219182 2.4375 140.5625 C1.63119141 140.60568359 0.82488281 140.64886719 -0.00585938 140.69335938 C-2.00368805 140.79975262 -4.0018207 140.90040888 -6 141 C-6 140.34 -6 139.68 -6 139 C-8.97 138.67 -11.94 138.34 -15 138 C-15.33 137.01 -15.66 136.02 -16 135 C-18.95377498 132.63019987 -18.95377498 132.63019987 -23 133 C-23 131.68 -23 130.36 -23 129 C-24.32 129 -25.64 129 -27 129 Z " fill="#FFFFFF" transform="translate(225,0)"/>
</svg>
