<?xml version="1.0" encoding="UTF-8"?>
<svg version="1.1" xmlns="http://www.w3.org/2000/svg" width="604" height="612">
<path d="M0 0 C1.02867187 -0.02578125 2.05734375 -0.0515625 3.1171875 -0.078125 C6.52814553 0.29397951 8.338948 1.2997636 11.125 3.25 C11.7025 3.641875 12.28 4.03375 12.875 4.4375 C14.94569194 7.44000331 14.8304601 10.6566132 15.125 14.25 C15.785 14.25 16.445 14.25 17.125 14.25 C17.455 15.57 17.785 16.89 18.125 18.25 C17.135 18.58 16.145 18.91 15.125 19.25 C15.0425 20.28125 14.96 21.3125 14.875 22.375 C14.06036054 26.58397057 12.79584086 28.93168257 10.125 32.25 C9.465 32.25 8.805 32.25 8.125 32.25 C7.91255646 32.78743332 7.70011292 33.32486664 7.48123169 33.87858582 C5.61910277 37.13457738 3.07002608 39.57488461 0.42529297 42.19262695 C-0.15711655 42.77693481 -0.73952606 43.36124268 -1.33958435 43.96325684 C-3.26580907 45.89318477 -5.19914083 47.81581699 -7.1328125 49.73828125 C-8.47878901 51.08306481 -9.82439514 52.42821917 -11.16964722 53.77372742 C-13.99282784 56.59534357 -16.81933577 59.41356897 -19.6484375 62.22924805 C-23.25786143 65.82175581 -26.86074225 69.42073652 -30.46133614 73.02209187 C-33.24244946 75.80293179 -36.02617326 78.58114618 -38.81075668 81.35851097 C-40.13888258 82.68347408 -41.46642075 84.0090266 -42.79333878 85.33519936 C-55.36006987 97.88715953 -55.36006987 97.88715953 -61.37802124 102.9506073 C-63.59008284 104.87069913 -65.4738077 107.02706746 -67.375 109.25 C-76.61961688 119.72403916 -76.61961688 119.72403916 -82 122.24609375 C-84.9008583 123.79926163 -85.5706667 126.33077786 -86.875 129.25 C-87.205 129.58 -87.535 129.91 -87.875 130.25 C-87.49556512 134.34789669 -87.18194043 136.78958935 -84.875 140.25 C-81.86731725 141.38276363 -78.93983436 141.38452189 -75.75 141.375 C-74.44675781 141.37886719 -74.44675781 141.37886719 -73.1171875 141.3828125 C-70.83780551 141.39537934 -70.83780551 141.39537934 -68.875 140.25 C-68.483125 139.54875 -68.09125 138.8475 -67.6875 138.125 C-65.64930934 134.89200792 -63.27937811 132.58784026 -60.49609375 129.99609375 C-58.78581558 128.31866711 -58.78581558 128.31866711 -57.828125 126.1484375 C-56.34197818 123.18832538 -53.61270704 122.05791974 -50.875 120.25 C-48.98543961 118.43115081 -47.17942233 116.55834466 -45.390625 114.640625 C-43.875 113.25 -43.875 113.25 -41.875 113.25 C-41.875 112.59 -41.875 111.93 -41.875 111.25 C-41.318125 111.023125 -40.76125 110.79625 -40.1875 110.5625 C-35.62622688 107.97366931 -32.46752441 103.78644683 -29.0625 99.875 C-26.49705797 96.95885148 -23.90680238 94.31452172 -20.9375 91.8125 C-17.79759144 89.16416225 -15.0877484 86.33499518 -12.375 83.25 C-9.05435923 79.47861933 -5.6189772 76.14165569 -1.78515625 72.90234375 C1.35404759 70.18683613 4.2205797 67.21150964 7.125 64.25 C7.99125 63.404375 8.8575 62.55875 9.75 61.6875 C14.48725512 56.8766044 14.48725512 56.8766044 18.125 51.25 C18.785 51.25 19.445 51.25 20.125 51.25 C20.35316406 50.69183594 20.58132813 50.13367188 20.81640625 49.55859375 C23.03647157 45.6420009 26.47810874 42.86935 29.71484375 39.78515625 C32.17816042 37.3784922 32.17816042 37.3784922 33.70703125 34.61328125 C35.20940323 32.10932794 36.47919212 30.99456613 38.875 29.375 C41.74902926 27.3385749 44.16377756 25.26514812 46.5625 22.6875 C51.76107671 17.3948314 56.99072814 13.97319301 64.5625 13.875 C67.18089562 13.98153879 68.77850966 14.07675483 71.125 15.25 C71.125 15.91 71.125 16.57 71.125 17.25 C73.105 17.91 75.085 18.57 77.125 19.25 C77.455 21.23 77.785 23.21 78.125 25.25 C78.785 25.25 79.445 25.25 80.125 25.25 C81.76010385 28.52020769 81.64192513 31.71666469 81.125 35.25 C77.48750811 45.13333164 69.0948703 52.71967169 61.22265625 59.33984375 C57.74296232 62.50850359 54.71632777 66.08578128 51.58984375 69.59765625 C48.84166399 72.55488931 45.94031211 75.16484961 42.81640625 77.71484375 C41.01458165 79.24615054 41.01458165 79.24615054 39.52734375 81.44140625 C38.83318359 82.33666016 38.83318359 82.33666016 38.125 83.25 C37.465 83.25 36.805 83.25 36.125 83.25 C35.465 84.57 34.805 85.89 34.125 87.25 C33.465 87.25 32.805 87.25 32.125 87.25 C32.125 87.91 32.125 88.57 32.125 89.25 C31.465 89.25 30.805 89.25 30.125 89.25 C29.795 90.24 29.465 91.23 29.125 92.25 C27.65527344 93.70068359 27.65527344 93.70068359 25.734375 95.2734375 C20.33117309 99.85965215 15.37325924 104.85565106 10.375 109.875 C9.44300781 110.803125 8.51101563 111.73125 7.55078125 112.6875 C6.65230469 113.58726562 5.75382813 114.48703125 4.828125 115.4140625 C3.61624512 116.62763428 3.61624512 116.62763428 2.37988281 117.86572266 C0.1449467 120.22890867 -1.8554993 122.70265694 -3.875 125.25 C-5.88742485 127.07637048 -7.96617888 128.78486879 -10.0703125 130.50390625 C-11.9779342 132.15194915 -11.9779342 132.15194915 -12.9296875 134.40234375 C-13.875 136.25 -13.875 136.25 -16.875 137.25 C-18.04565529 138.65478635 -19.21155038 140.06403951 -20.34375 141.5 C-22.6677178 144.15596319 -25.374259 146.314406 -28.10546875 148.5390625 C-29.98132194 150.15855314 -29.98132194 150.15855314 -30.92578125 152.3984375 C-31.875 154.25 -31.875 154.25 -34.875 155.25 C-35.88142948 156.57848691 -36.88192179 157.91150329 -37.875 159.25 C-38.535 159.25 -39.195 159.25 -39.875 159.25 C-39.875 159.91 -39.875 160.57 -39.875 161.25 C-40.803125 162.054375 -40.803125 162.054375 -41.75 162.875 C-44.59110775 166.05035572 -45.62180828 169.0029131 -45.875 173.25 C-44.68804671 176.81085987 -43.87998123 178.61829751 -40.6875 180.625 C-40.089375 180.83125 -39.49125 181.0375 -38.875 181.25 C-38.875 181.91 -38.875 182.57 -38.875 183.25 C-30.31280034 182.71486252 -24.58360147 178.46502554 -18.95629883 172.1887207 C-18.43447021 171.59019287 -17.9126416 170.99166504 -17.375 170.375 C-13.39348822 165.94074489 -9.42038303 161.83510799 -4.83203125 158.01953125 C-1.38222725 154.90024739 1.59963141 151.33934042 4.69140625 147.87109375 C7.29175383 145.07039837 10.04440316 142.66195503 12.97265625 140.21875 C16.38052844 137.10156745 19.40626867 133.63456114 22.44506836 130.16040039 C23.63336724 128.8218838 24.87523982 127.53131978 26.125 126.25 C26.785 126.25 27.445 126.25 28.125 126.25 C28.125 125.59 28.125 124.93 28.125 124.25 C29.41015625 123.0234375 29.41015625 123.0234375 31.1875 121.625 C33.84063711 119.43166952 36.10912309 117.20546688 38.3125 114.5625 C41.81510525 110.42593905 45.76286677 106.86050641 49.78955078 103.25170898 C52.45921066 100.83995687 54.94299332 98.43715808 57.1875 95.625 C61.13909004 90.75879861 66.1986238 87.07422897 71.125 83.25 C71.69476563 82.77949219 72.26453125 82.30898438 72.8515625 81.82421875 C76.88315308 78.72732654 81.13575308 77.67670144 86.125 78.25 C91.67268732 80.20196406 96.1267579 82.25351579 98.8125 87.625 C100.01887935 101.61900044 100.01887935 101.61900044 95.46875 107.328125 C94.2275718 108.74225426 92.96656398 110.13929935 91.68359375 111.515625 C90.04970038 113.17959198 90.04970038 113.17959198 89.125 115.25 C87.64 115.745 87.64 115.745 86.125 116.25 C84.75860658 117.8896721 83.4300581 119.56110128 82.125 121.25 C79.5 124.0625 79.5 124.0625 77.125 126.25 C76.465 126.25 75.805 126.25 75.125 126.25 C74.795 127.24 74.465 128.23 74.125 129.25 C72.48011706 130.93816933 70.81162458 132.60353315 69.125 134.25 C68.568125 135.013125 68.01125 135.77625 67.4375 136.5625 C67.004375 137.119375 66.57125 137.67625 66.125 138.25 C65.465 138.25 64.805 138.25 64.125 138.25 C63.8775 138.8275 63.63 139.405 63.375 140 C61.94200012 142.57939979 60.34075324 144.31121592 58.125 146.25 C57.465 146.25 56.805 146.25 56.125 146.25 C55.87363281 146.82621094 55.62226563 147.40242187 55.36328125 147.99609375 C52.73332434 152.78311311 48.25458472 157.00341382 43.5625 159.75 C41.16353843 161.22628404 40.0278118 162.42462505 38.25 164.5625 C33.98615468 169.65436885 29.09088074 174.03518168 24.19189453 178.5012207 C23.23452393 179.37846802 23.23452393 179.37846802 22.2578125 180.2734375 C21.67918457 180.79856934 21.10055664 181.32370117 20.50439453 181.86474609 C19.00774605 183.22266087 19.00774605 183.22266087 18.125 185.25 C17.135 185.25 16.145 185.25 15.125 185.25 C15.0425 185.8275 14.96 186.405 14.875 187 C13.899018 189.92794601 12.48988777 191.30244537 10.125 193.25 C9.135 193.25 8.145 193.25 7.125 193.25 C7.125 194.24 7.125 195.23 7.125 196.25 C1.77616279 201.25 1.77616279 201.25 -0.875 201.25 C-3.26967267 206.78768055 -3.70597853 212.31572942 -2.875 218.25 C-1.27223654 221.60288313 -1.27223654 221.60288313 2.125 223.25 C5.79479844 223.92520168 9.39769286 224.17819548 13.125 224.25 C13.125 223.59 13.125 222.93 13.125 222.25 C13.785 222.25 14.445 222.25 15.125 222.25 C15.455 221.26 15.785 220.27 16.125 219.25 C16.785 219.25 17.445 219.25 18.125 219.25 C18.125 218.59 18.125 217.93 18.125 217.25 C18.785 217.25 19.445 217.25 20.125 217.25 C20.455 216.26 20.785 215.27 21.125 214.25 C21.785 214.25 22.445 214.25 23.125 214.25 C23.125 213.59 23.125 212.93 23.125 212.25 C23.785 212.25 24.445 212.25 25.125 212.25 C25.455 211.26 25.785 210.27 26.125 209.25 C26.785 209.25 27.445 209.25 28.125 209.25 C28.38023437 208.67894531 28.63546875 208.10789062 28.8984375 207.51953125 C32.81459234 200.27339762 41.17986207 190.89837931 49.125 188.25 C49.125 187.59 49.125 186.93 49.125 186.25 C49.785 186.25 50.445 186.25 51.125 186.25 C51.4653125 185.13625 51.4653125 185.13625 51.8125 184 C53.39375885 180.68688621 55.19339761 179.41380177 58.125 177.25 C59.2078125 176.13625 59.2078125 176.13625 60.3125 175 C62.125 173.25 62.125 173.25 64.125 173.25 C64.455 172.26 64.785 171.27 65.125 170.25 C65.785 170.25 66.445 170.25 67.125 170.25 C67.21910156 169.65703125 67.31320312 169.0640625 67.41015625 168.453125 C68.28445219 165.75857359 69.39220318 164.78677244 71.5625 163 C72.17996094 162.47921875 72.79742187 161.9584375 73.43359375 161.421875 C75.125 160.25 75.125 160.25 77.125 160.25 C77.455 159.26 77.785 158.27 78.125 157.25 C81.35368746 157.10415936 84.58152365 157.01575894 87.8125 156.9375 C88.72451172 156.89560547 89.63652344 156.85371094 90.57617188 156.81054688 C95.17785787 156.72687986 97.38142409 156.68967957 101.15234375 159.53125 C104.69825259 164.41828475 106.55840887 168.64219552 105.8125 174.75 C105.4721875 176.4825 105.4721875 176.4825 105.125 178.25 C104.465 178.25 103.805 178.25 103.125 178.25 C103.00898437 179.31734375 103.00898437 179.31734375 102.890625 180.40625 C101.92577584 183.98997546 100.26937088 185.92749658 97.875 188.75 C97.10671875 189.6678125 96.3384375 190.585625 95.546875 191.53125 C93.16218132 194.20826097 90.68075739 196.73690968 88.125 199.25 C87.0421875 200.3946875 87.0421875 200.3946875 85.9375 201.5625 C84.125 203.25 84.125 203.25 82.125 203.25 C82.125 203.91 82.125 204.57 82.125 205.25 C80.81665039 206.53930664 80.81665039 206.53930664 78.91015625 208.09765625 C73.39634823 212.7885803 68.3304101 217.89460237 63.22485352 223.01977539 C61.5657268 224.68426277 59.90131949 226.34333447 58.23632812 228.00195312 C53.15788973 233.07797403 48.15628789 238.15115715 43.54858398 243.66699219 C42.06002146 245.32225533 40.48854723 246.67532607 38.75 248.0625 C35.90020272 250.04713416 35.90020272 250.04713416 35.125 253.25 C33.7146823 254.47427579 32.24351069 255.62871813 30.75 256.75 C24.90875404 261.403066 19.64688349 266.52736288 14.375 271.8125 C13.57143066 272.61558594 12.76786133 273.41867187 11.93994141 274.24609375 C7.66483357 278.55920648 3.58287237 282.97136599 -0.37841797 287.57299805 C-2.13203601 289.53802289 -4.01125821 291.22554784 -6.0625 292.875 C-8.57440719 294.98442013 -10.47128303 296.89045936 -12.1875 299.6875 C-12.744375 300.533125 -13.30125 301.37875 -13.875 302.25 C-14.865 302.25 -15.855 302.25 -16.875 302.25 C-17.1121875 302.82234375 -17.349375 303.3946875 -17.59375 303.984375 C-22.80111368 313.19251809 -35.74199406 321.94011283 -44.875 327.25 C-47.75 328 -47.75 328 -49.875 328.25 C-49.875 328.91 -49.875 329.57 -49.875 330.25 C-52.10344214 330.8983289 -54.3327846 331.54356369 -56.5625 332.1875 C-57.80386719 332.54714844 -59.04523438 332.90679688 -60.32421875 333.27734375 C-71.93757459 336.45856004 -82.91529551 335.72985224 -93.875 330.25 C-93.875 329.59 -93.875 328.93 -93.875 328.25 C-96.185 327.59 -98.495 326.93 -100.875 326.25 C-100.875 325.59 -100.875 324.93 -100.875 324.25 C-102.195 323.92 -103.515 323.59 -104.875 323.25 C-104.875 322.59 -104.875 321.93 -104.875 321.25 C-106.23625 320.9096875 -106.23625 320.9096875 -107.625 320.5625 C-111.39585907 319.03965307 -112.46235575 317.44091659 -114.875 314.25 C-117.49357695 312.46037181 -117.49357695 312.46037181 -119.875 311.25 C-120.32230469 311.69730469 -120.76960938 312.14460938 -121.23046875 312.60546875 C-126.55273438 317.92773438 -126.55273438 317.92773438 -131.875 323.25 C-132.52855469 323.91515625 -133.18210937 324.5803125 -133.85546875 325.265625 C-134.56316406 325.98234375 -135.27085937 326.6990625 -136 327.4375 C-136.99386719 328.44876953 -136.99386719 328.44876953 -138.0078125 329.48046875 C-141.33320464 332.63193871 -143.91444699 333.92620587 -148.5546875 333.83203125 C-155.41072114 332.11225177 -161.13006656 325.28250516 -165.875 320.25 C-166.7721875 319.4146875 -166.7721875 319.4146875 -167.6875 318.5625 C-168.875 317.25 -168.875 317.25 -168.875 315.25 C-170.0815625 314.8478125 -170.0815625 314.8478125 -171.3125 314.4375 C-172.158125 314.045625 -173.00375 313.65375 -173.875 313.25 C-174.37 311.765 -174.37 311.765 -174.875 310.25 C-176.19684405 309.56083345 -177.53214585 308.89727502 -178.875 308.25 C-180.16769653 307.04420744 -181.41561904 305.78934003 -182.625 304.5 C-185.97155543 301.04021525 -189.4461822 298.20291687 -193.40625 295.4765625 C-193.8909375 295.07179688 -194.375625 294.66703125 -194.875 294.25 C-194.875 293.59 -194.875 292.93 -194.875 292.25 C-195.865 291.92 -196.855 291.59 -197.875 291.25 C-197.875 290.59 -197.875 289.93 -197.875 289.25 C-198.514375 288.981875 -199.15375 288.71375 -199.8125 288.4375 C-201.875 287.25 -201.875 287.25 -202.875 284.25 C-204.19132794 283.55035511 -205.52723681 282.88699027 -206.875 282.25 C-208.515625 280.76953125 -208.515625 280.76953125 -210.125 279.0625 C-213.32533852 275.75847881 -216.68686702 272.72586269 -220.17578125 269.73046875 C-221.45229445 268.61828828 -222.67783014 267.44716986 -223.875 266.25 C-223.875 265.26 -223.875 264.27 -223.875 263.25 C-224.865 262.92 -225.855 262.59 -226.875 262.25 C-227.50072422 254.27201622 -227.50072422 254.27201622 -225 250.1875 C-222.875 248.25 -222.875 248.25 -220.875 248.25 C-220.5965625 247.26 -220.5965625 247.26 -220.3125 246.25 C-218.57117525 242.61593095 -216.24215439 240.06931643 -213.53125 237.1171875 C-211.70698095 235.14656809 -211.70698095 235.14656809 -209.875 232.25 C-209.215 232.25 -208.555 232.25 -207.875 232.25 C-207.875 230.6 -207.875 228.95 -207.875 227.25 C-208.865 226.92 -209.855 226.59 -210.875 226.25 C-210.875 225.59 -210.875 224.93 -210.875 224.25 C-211.514375 223.981875 -212.15375 223.71375 -212.8125 223.4375 C-214.875 222.25 -214.875 222.25 -215.875 219.25 C-216.535 218.92 -217.195 218.59 -217.875 218.25 C-219.875 217.25 -219.875 217.25 -220.875 214.25 C-221.535 214.25 -222.195 214.25 -222.875 214.25 C-223.205 212.93 -223.535 211.61 -223.875 210.25 C-224.535 210.25 -225.195 210.25 -225.875 210.25 C-230.49538518 202.65936721 -234.99335418 194.13406465 -235.0078125 185.0625 C-235.00910156 184.28132812 -235.01039063 183.50015625 -235.01171875 182.6953125 C-235.00785156 181.88835937 -235.00398438 181.08140625 -235 180.25 C-235.00386719 179.44304687 -235.00773437 178.63609375 -235.01171875 177.8046875 C-235.01042969 177.02351562 -235.00914062 176.24234375 -235.0078125 175.4375 C-235.00668457 174.72980469 -235.00555664 174.02210938 -235.00439453 173.29296875 C-234.87011502 171.17287267 -234.45216498 169.29042437 -233.875 167.25 C-233.215 167.25 -232.555 167.25 -231.875 167.25 C-231.99875 165.950625 -232.1225 164.65125 -232.25 163.3125 C-232.28662909 157.54341767 -229.7028596 153.44477878 -225.875 149.25 C-225.215 149.25 -224.555 149.25 -223.875 149.25 C-223.38 147.27 -223.38 147.27 -222.875 145.25 C-222.215 145.25 -221.555 145.25 -220.875 145.25 C-220.99230469 144.5384375 -221.10960937 143.826875 -221.23046875 143.09375 C-220.71700044 138.98600351 -218.20495891 137.27575106 -215.1875 134.75 C-214.12014559 133.82400845 -213.05373061 132.89693288 -211.98828125 131.96875 C-211.4670166 131.51757812 -210.94575195 131.06640625 -210.40869141 130.6015625 C-205.69526248 126.58256431 -205.69526248 126.58256431 -202.875 121.25 C-201.0546875 119.671875 -201.0546875 119.671875 -198.75 118 C-191.25426654 112.59666819 -191.25426654 112.59666819 -185.99609375 105.23046875 C-184.4770257 102.5469583 -182.52339001 101.80250449 -179.875 100.25 C-177.98481433 98.44671942 -176.16795313 96.64339868 -174.375 94.75 C-170.02679649 90.15819965 -166.30243752 86.93777396 -160.125 85.1875 C-158.51625 84.7234375 -158.51625 84.7234375 -156.875 84.25 C-156.545 83.59 -156.215 82.93 -155.875 82.25 C-149.7865379 83.34112224 -142.92134263 84.75601992 -138.875 89.6875 C-138.38 90.9559375 -138.38 90.9559375 -137.875 92.25 C-137.483125 93.054375 -137.09125 93.85875 -136.6875 94.6875 C-134.77077555 100.73255405 -136.2498023 104.78083812 -138.875 110.25 C-139.535 110.25 -140.195 110.25 -140.875 110.25 C-141.143125 110.8275 -141.41125 111.405 -141.6875 112 C-142.90429189 114.30550043 -144.17833879 116.27056192 -145.875 118.25 C-146.535 118.25 -147.195 118.25 -147.875 118.25 C-147.91625 118.8275 -147.9575 119.405 -148 120 C-149.31248653 123.37496535 -151.863465 124.31807188 -154.875 126.25 C-157.97160661 128.95417951 -160.54627409 131.26382226 -161.875 135.25 C-161.94240865 136.81118428 -161.96014456 138.3750252 -161.9375 139.9375 C-161.92847656 140.74574219 -161.91945313 141.55398438 -161.91015625 142.38671875 C-161.89855469 143.00160156 -161.88695312 143.61648438 -161.875 144.25 C-159.04370331 145.66564834 -157.02418438 145.49224495 -153.875 145.25 C-149.96404724 143.86966373 -148.30893758 143.01773573 -146.25 139.375 C-145.79625 138.34375 -145.3425 137.3125 -144.875 136.25 C-142.8125 133.375 -142.8125 133.375 -140.875 131.25 C-140.215 131.25 -139.555 131.25 -138.875 131.25 C-138.66746094 130.71246094 -138.45992188 130.17492187 -138.24609375 129.62109375 C-135.98650877 125.71349237 -132.55115529 122.84885443 -129.30664062 119.75976562 C-126.23653067 116.78050973 -124.01586869 113.99157974 -121.875 110.25 C-119.5 108.6875 -119.5 108.6875 -116.875 107.25 C-115.6375 106.26 -115.6375 106.26 -114.375 105.25 C-111.875 103.25 -111.875 103.25 -109.4375 101.9375 C-106.41540747 99.94734151 -104.58036128 97.63321674 -102.40234375 94.7734375 C-100.61188168 92.98755462 -99.33928049 92.64216507 -96.875 92.25 C-96.875 91.26 -96.875 90.27 -96.875 89.25 C-95.77448006 88.11508881 -94.66297099 86.98940433 -93.5078125 85.91015625 C-90.65752883 83.01214056 -88.24181348 79.7545978 -85.7421875 76.5546875 C-84.19431472 74.64413323 -82.73401145 72.8569421 -80.875 71.25 C-80.215 71.25 -79.555 71.25 -78.875 71.25 C-78.875 70.59 -78.875 69.93 -78.875 69.25 C-78.215 69.25 -77.555 69.25 -76.875 69.25 C-76.63233398 68.68267151 -76.38966797 68.11534302 -76.13964844 67.53082275 C-74.63160785 64.81103662 -72.83823905 62.95898435 -70.640625 60.75683594 C-69.76631836 59.87622498 -68.89201172 58.99561401 -67.99121094 58.08831787 C-67.03606205 57.1367478 -66.08065216 56.18543964 -65.125 55.234375 C-64.14586602 54.25389341 -63.16702907 53.27311513 -62.18847656 52.29205322 C-60.14060571 50.24123841 -58.08917216 48.19407365 -56.03515625 46.14941406 C-53.39859985 43.52428192 -50.77116355 40.89023305 -48.14630127 38.25341415 C-46.12880379 36.2287041 -44.10658501 34.20876392 -42.08288574 32.19025421 C-41.11174562 31.22045069 -40.14209572 30.24915258 -39.1739502 29.27635956 C-37.82392166 27.92127264 -36.46682027 26.57324314 -35.109375 25.22558594 C-34.33819336 24.45599548 -33.56701172 23.68640503 -32.77246094 22.89349365 C-30.875 21.25 -30.875 21.25 -28.875 21.25 C-28.875 20.59 -28.875 19.93 -28.875 19.25 C-27.40625 17.8046875 -27.40625 17.8046875 -25.375 16.125 C-21.57041206 12.91403571 -18.13171155 9.48755492 -14.734375 5.8515625 C-12.74860721 4.14113226 -11.43587498 3.64659568 -8.875 3.25 C-8.875 2.59 -8.875 1.93 -8.875 1.25 C-5.71490467 0.19663489 -3.3196864 0.04967112 0 0 Z " fill="#FFFFFF" transform="translate(288.875,214.75)"/>
<path d="M0 0 C0.70318359 -0.01160156 1.40636719 -0.02320312 2.13085938 -0.03515625 C6.64037106 -0.00979817 9.49364933 0.60628311 13.0625 3.375 C14.73046875 5.1015625 14.73046875 5.1015625 16.25 7 C19.00142412 10.27407455 21.9116046 13.11492296 25.125 15.9375 C28.61994397 19.01073127 31.65665122 22.12990496 34.59765625 25.72265625 C36.15917256 27.48404665 37.81750327 28.93062643 39.625 30.4375 C44.25889956 34.35711832 48.26587332 38.80869958 52.31860352 43.31274414 C54.88313043 46.13784426 57.43602891 48.76842469 60.3984375 51.1796875 C63.0625 53.375 63.0625 53.375 64.0625 55.375 C65.0525 55.705 66.0425 56.035 67.0625 56.375 C67.68898438 57.44814453 67.68898438 57.44814453 68.328125 58.54296875 C70.6147625 62.27677999 73.56015471 64.79633711 76.8125 67.6875 C81.29046094 71.7461506 85.4714995 75.80379427 89.3359375 80.4609375 C92.30389685 83.75120918 95.67939531 86.59267055 99.0234375 89.4921875 C101.0625 91.375 101.0625 91.375 102.0625 93.375 C103.0525 93.705 104.0425 94.035 105.0625 94.375 C105.74814391 95.69867468 106.41271735 97.03335745 107.0625 98.375 C108.69073901 100.03282576 108.69073901 100.03282576 110.62132263 101.56492615 C115.36918487 105.58821708 119.73688401 109.9234772 124.12133789 114.33618164 C124.9890834 115.20538742 125.85682892 116.0745932 126.75086975 116.97013855 C128.62238142 118.84543661 130.49296926 120.72160297 132.36201668 122.59935188 C135.32321618 125.5741946 138.28833441 128.54511121 141.25401306 131.51548767 C147.54732705 137.81985026 153.8363865 144.12844918 160.125 150.4375 C166.91995728 157.25453133 173.71566545 164.07080425 180.51627725 170.88219541 C183.45866967 173.82954136 186.3986136 176.77930072 189.33664525 179.73099339 C191.60011417 182.00373057 193.86686058 184.27319549 196.13305664 186.54321289 C196.93688782 187.35221039 197.74071899 188.16120789 198.56890869 188.99472046 C202.43546837 192.861641 206.338867 196.59161669 210.55220699 200.08002377 C212.15065176 201.45058429 213.65878939 202.80355533 215.0625 204.375 C215.0625 205.035 215.0625 205.695 215.0625 206.375 C216.0525 206.705 217.0425 207.035 218.0625 207.375 C218.0625 208.035 218.0625 208.695 218.0625 209.375 C218.7225 209.375 219.3825 209.375 220.0625 209.375 C220.0625 210.035 220.0625 210.695 220.0625 211.375 C221.0525 211.705 222.0425 212.035 223.0625 212.375 C223.0625 213.035 223.0625 213.695 223.0625 214.375 C223.701875 214.643125 224.34125 214.91125 225 215.1875 C227.0625 216.375 227.0625 216.375 228.0625 219.375 C228.64 219.66375 229.2175 219.9525 229.8125 220.25 C233.79915579 222.2433279 236.44402269 225.56910533 239.125 229.0625 C240.83431508 231.42876255 240.83431508 231.42876255 242.96875 232.28125 C245.44463884 233.57462477 246.72392529 235.04226427 248.5 237.1875 C250.44686917 239.48909534 252.36595375 241.67845375 254.5 243.8125 C257.59136315 246.90386315 260.43196498 250.18027122 263.29296875 253.484375 C264.93113988 255.45408003 264.93113988 255.45408003 267.0625 256.375 C267.0625 257.035 267.0625 257.695 267.0625 258.375 C267.82046875 258.61863281 268.5784375 258.86226563 269.359375 259.11328125 C272.43892334 260.55070049 273.41990896 261.78574396 275.3125 264.5625 C277.76236705 267.89792505 280.08006843 270.33428704 283.4375 272.75 C288.11665927 276.16387641 291.36936128 280.25882508 294.9296875 284.79296875 C297.66921801 288.1095066 300.73232938 290.68557107 304.0625 293.375 C308.07450548 297.18126161 311.67601133 301.30723871 315.29296875 305.484375 C316.93113988 307.45408003 316.93113988 307.45408003 319.0625 308.375 C319.0625 309.035 319.0625 309.695 319.0625 310.375 C319.825625 310.6225 320.58875 310.87 321.375 311.125 C324.32330945 312.49630672 325.42084532 313.6101079 327.0625 316.375 C327.0625 317.035 327.0625 317.695 327.0625 318.375 C328.0525 318.375 329.0425 318.375 330.0625 318.375 C330.0625 319.365 330.0625 320.355 330.0625 321.375 C330.743125 321.560625 331.42375 321.74625 332.125 321.9375 C335.57498534 323.6257907 337.53525958 325.73912 340.15234375 328.5 C342.70341499 331.00411901 345.52037962 332.99470105 348.4609375 335.015625 C350.0625 336.375 350.0625 336.375 351.0625 339.375 C352.04003644 340.39696992 353.0430881 341.39479625 354.0625 342.375 C357.90370478 346.60032526 357.74616215 350.415912 357.5859375 355.9375 C356.03691205 366.11020446 347.66775756 373.16549255 340.5390625 379.94140625 C338.05547882 382.11861132 338.05547882 382.11861132 337.0625 384.375 C336.4025 384.375 335.7425 384.375 335.0625 384.375 C334.7325 385.365 334.4025 386.355 334.0625 387.375 C333.4025 387.375 332.7425 387.375 332.0625 387.375 C331.815 387.9525 331.5675 388.53 331.3125 389.125 C329.87950012 391.70439979 328.27825324 393.43621592 326.0625 395.375 C325.4025 395.375 324.7425 395.375 324.0625 395.375 C323.794375 396.014375 323.52625 396.65375 323.25 397.3125 C322.0625 399.375 322.0625 399.375 319.0625 400.375 C318.37763275 401.69907669 317.71379797 403.03409241 317.0625 404.375 C315.0625 406.625 315.0625 406.625 313.0625 408.375 C312.4025 408.375 311.7425 408.375 311.0625 408.375 C310.794375 409.014375 310.52625 409.65375 310.25 410.3125 C309.0625 412.375 309.0625 412.375 306.0625 413.375 C305.37763275 414.69907669 304.71379797 416.03409241 304.0625 417.375 C302.0625 419.625 302.0625 419.625 300.0625 421.375 C299.4025 421.375 298.7425 421.375 298.0625 421.375 C297.794375 422.014375 297.52625 422.65375 297.25 423.3125 C296.0625 425.375 296.0625 425.375 293.0625 426.375 C292.63130859 427.23738281 292.63130859 427.23738281 292.19140625 428.1171875 C290.65527326 431.18945347 288.46599406 433.12271077 286 435.5 C282.59796517 438.61605765 282.59796517 438.61605765 280.0625 442.375 C279.4025 442.375 278.7425 442.375 278.0625 442.375 C277.815 443.014375 277.5675 443.65375 277.3125 444.3125 C276.0625 446.375 276.0625 446.375 273.9375 447.125 C273.31875 447.2075 272.7 447.29 272.0625 447.375 C272.0625 448.365 272.0625 449.355 272.0625 450.375 C271.27875 450.6225 270.495 450.87 269.6875 451.125 C266.98608659 452.07733506 266.98608659 452.07733506 266.21875 454.1015625 C264.63884288 457.20800149 262.32089338 459.50169085 259.9375 462 C255.54643547 466.67279373 251.49295645 471.48982266 247.62109375 476.609375 C247.10675781 477.19203125 246.59242188 477.7746875 246.0625 478.375 C245.4025 478.375 244.7425 478.375 244.0625 478.375 C243.7325 479.365 243.4025 480.355 243.0625 481.375 C242.4025 481.375 241.7425 481.375 241.0625 481.375 C240.794375 482.014375 240.52625 482.65375 240.25 483.3125 C239.0625 485.375 239.0625 485.375 236.0625 486.375 C235.38222628 487.70144257 234.71815279 489.03621636 234.0625 490.375 C232.63621531 491.95192404 231.15217073 493.47738685 229.6328125 494.96484375 C228.75496094 495.83173828 227.87710937 496.69863281 226.97265625 497.59179688 C226.05355469 498.48962891 225.13445312 499.38746094 224.1875 500.3125 C222.37529726 502.09009915 220.56532335 503.86997397 218.7578125 505.65234375 C217.5514917 506.83171509 217.5514917 506.83171509 216.32080078 508.03491211 C213.98529231 510.37101732 213.98529231 510.37101732 211.89404297 513.17016602 C211.28963379 513.89776123 210.68522461 514.62535645 210.0625 515.375 C209.4025 515.375 208.7425 515.375 208.0625 515.375 C207.6603125 516.2721875 207.6603125 516.2721875 207.25 517.1875 C205.42650391 520.54657175 202.711606 522.6960193 199.8125 525.125 C195.51128138 528.86658051 191.47265696 532.85168213 187.4375 536.875 C186.80424805 537.50374023 186.17099609 538.13248047 185.51855469 538.78027344 C178.50005362 545.47173975 178.50005362 545.47173975 173.0625 553.375 C172.0725 553.705 171.0825 554.035 170.0625 554.375 C168.89078985 555.78105218 167.72340337 557.19110363 166.5859375 558.625 C164.30230569 561.24824885 161.68132278 563.42526039 159.02734375 565.6640625 C156.98486615 567.35814207 156.98486615 567.35814207 155.203125 569.55078125 C151.58992745 572.62991128 147.94413145 571.97581154 143.38671875 571.8125 C135.93873285 570.83227154 131.65486919 567.45709032 127.125 561.625 C126.30708984 560.45710937 126.30708984 560.45710937 125.47265625 559.265625 C124.19128366 557.25206594 124.19128366 557.25206594 122.0625 556.375 C122.0625 555.715 122.0625 555.055 122.0625 554.375 C121.505625 554.1275 120.94875 553.88 120.375 553.625 C117.58729349 552.11813162 115.36903497 550.5568574 113.0625 548.375 C112.70636903 546.71305547 112.37041692 545.046549 112.0625 543.375 C110.09491727 542.01479849 110.09491727 542.01479849 108.0625 541.375 C108.0625 540.715 108.0625 540.055 108.0625 539.375 C107.1653125 539.2203125 107.1653125 539.2203125 106.25 539.0625 C103.70811156 538.26362077 102.91172307 537.25141753 101.0625 535.375 C99.2331627 534.05490006 97.36696015 532.80715674 95.48828125 531.55859375 C95.01777344 531.16800781 94.54726563 530.77742187 94.0625 530.375 C94.0625 529.715 94.0625 529.055 94.0625 528.375 C93.0725 528.045 92.0825 527.715 91.0625 527.375 C91.0625 526.715 91.0625 526.055 91.0625 525.375 C88.73035852 524.16871992 86.56607861 523.2095262 84.0625 522.375 C82.69516972 523.32798777 81.35985507 524.32874591 80.0625 525.375 C79.4025 525.375 78.7425 525.375 78.0625 525.375 C78.0625 526.035 78.0625 526.695 78.0625 527.375 C76.59375 528.8203125 76.59375 528.8203125 74.5625 530.5 C71.57274736 533.03628046 68.74539724 535.63837679 66 538.4375 C63.58966366 540.89020553 61.15388769 543.18909697 58.5 545.375 C55.20797063 548.12710656 52.48164009 551.21503486 49.69921875 554.47265625 C47.59107103 556.92293773 45.44888401 559.19316319 43.0625 561.375 C42.4025 561.375 41.7425 561.375 41.0625 561.375 C40.86011719 561.93832031 40.65773438 562.50164063 40.44921875 563.08203125 C38.536541 566.24468431 35.86818926 568.01417319 32.875 570.0625 C32.32263672 570.46533203 31.77027344 570.86816406 31.20117188 571.28320312 C27.16017878 574.08514607 23.88735983 574.83890446 19.0625 575.375 C18.4025 576.035 17.7425 576.695 17.0625 577.375 C14.73239091 578.05284992 12.39890176 578.71916793 10.0625 579.375 C9.0725 580.035 8.0825 580.695 7.0625 581.375 C4.14453125 581.7890625 4.14453125 581.7890625 0.875 582 C-0.21167969 582.07476563 -1.29835937 582.14953125 -2.41796875 582.2265625 C-3.24941406 582.27554688 -4.08085937 582.32453125 -4.9375 582.375 C-4.9375 583.035 -4.9375 583.695 -4.9375 584.375 C-7.91379828 585.36709943 -9.90816157 585.51283024 -13.01635742 585.53613281 C-14.05140915 585.54574036 -15.08646088 585.5553479 -16.15287781 585.56524658 C-17.27160782 585.56949646 -18.39033783 585.57374634 -19.54296875 585.578125 C-20.6961409 585.58382507 -21.84931305 585.58952515 -23.03742981 585.59539795 C-25.48107993 585.60485142 -27.92474283 585.6113833 -30.3684082 585.61523438 C-34.09283982 585.6249164 -37.81671411 585.65592767 -41.54101562 585.6875 C-43.91666339 585.69403253 -46.29231511 585.69928202 -48.66796875 585.703125 C-49.77657761 585.7154718 -50.88518646 585.7278186 -52.02738953 585.74053955 C-58.45128329 585.72219304 -63.04344849 584.89836628 -68.9375 582.375 C-71.33933087 582.13996353 -73.51878407 582.22383025 -75.9375 582.375 C-75.9375 583.035 -75.9375 583.695 -75.9375 584.375 C-76.5975 584.375 -77.2575 584.375 -77.9375 584.375 C-78.2675 585.365 -78.5975 586.355 -78.9375 587.375 C-79.5975 587.375 -80.2575 587.375 -80.9375 587.375 C-81.205625 588.138125 -81.47375 588.90125 -81.75 589.6875 C-82.88884505 592.26488618 -83.75166671 593.64454864 -85.9375 595.375 C-86.5975 595.375 -87.2575 595.375 -87.9375 595.375 C-88.22625 596.138125 -88.515 596.90125 -88.8125 597.6875 C-89.9375 600.375 -89.9375 600.375 -91.9375 603.375 C-92.5975 603.375 -93.2575 603.375 -93.9375 603.375 C-94.3396875 604.3340625 -94.3396875 604.3340625 -94.75 605.3125 C-95.9375 607.375 -95.9375 607.375 -98.9375 608.375 C-99.67073796 610.39008358 -99.67073796 610.39008358 -99.9375 612.375 C-103.54159919 612.43300828 -107.14557851 612.46859869 -110.75 612.5 C-111.77416016 612.51675781 -112.79832031 612.53351562 -113.85351562 612.55078125 C-115.32788086 612.56044922 -115.32788086 612.56044922 -116.83203125 612.5703125 C-118.19098511 612.58602295 -118.19098511 612.58602295 -119.57739258 612.60205078 C-121.9375 612.375 -121.9375 612.375 -124.9375 610.375 C-124.9375 609.715 -124.9375 609.055 -124.9375 608.375 C-125.5975 608.375 -126.2575 608.375 -126.9375 608.375 C-128.2421875 607.046875 -128.2421875 607.046875 -129.8125 605.125 C-133.08481629 601.28209075 -136.51239395 597.64641658 -140.0625 594.0625 C-140.56507324 593.54719727 -141.06764648 593.03189453 -141.58544922 592.50097656 C-144.50294546 589.57484583 -147.40351376 587.47408757 -150.9375 585.375 C-151.64460678 583.72508418 -152.31693989 582.05937744 -152.9375 580.375 C-153.9275 580.045 -154.9175 579.715 -155.9375 579.375 C-155.9375 578.715 -155.9375 578.055 -155.9375 577.375 C-156.5975 577.375 -157.2575 577.375 -157.9375 577.375 C-159.21362305 576.07983398 -159.21362305 576.07983398 -160.76171875 574.18359375 C-165.55890031 568.54358008 -170.79511722 563.3673825 -176.03686523 558.14526367 C-177.76730137 556.42025287 -179.4922449 554.68987572 -181.21679688 552.95898438 C-182.31738729 551.85905367 -183.41828728 550.75943262 -184.51953125 549.66015625 C-185.29137505 548.88527611 -185.29137505 548.88527611 -186.07881165 548.09474182 C-188.75483759 545.3987081 -188.75483759 545.3987081 -191.9375 543.375 C-191.9375 542.715 -191.9375 542.055 -191.9375 541.375 C-192.9275 541.045 -193.9175 540.715 -194.9375 540.375 C-194.9375 539.715 -194.9375 539.055 -194.9375 538.375 C-195.494375 538.148125 -196.05125 537.92125 -196.625 537.6875 C-199.58700535 536.00636183 -201.54211192 533.80109819 -203.9375 531.375 C-205.97841479 529.43464913 -208.04968675 527.52843935 -210.125 525.625 C-210.65802734 525.13128906 -211.19105469 524.63757813 -211.74023438 524.12890625 C-214.61830594 521.445738 -214.61830594 521.445738 -217.9375 519.375 C-217.9375 518.715 -217.9375 518.055 -217.9375 517.375 C-218.82115234 516.98441406 -218.82115234 516.98441406 -219.72265625 516.5859375 C-222.07325944 515.30077526 -223.54077056 513.94013183 -225.375 512 C-227.48292231 509.81484777 -229.47596842 507.95109933 -231.875 506.0625 C-232.8959375 505.2271875 -232.8959375 505.2271875 -233.9375 504.375 C-233.9375 503.715 -233.9375 503.055 -233.9375 502.375 C-234.5975 502.375 -235.2575 502.375 -235.9375 502.375 C-237.55859375 500.765625 -237.55859375 500.765625 -239.375 498.625 C-239.97183594 497.92890625 -240.56867188 497.2328125 -241.18359375 496.515625 C-241.76238281 495.80921875 -242.34117187 495.1028125 -242.9375 494.375 C-243.49695313 493.7459375 -244.05640625 493.116875 -244.6328125 492.46875 C-247.2629226 488.24797451 -246.48336007 483.1528089 -245.9375 478.375 C-244.18933935 472.34038895 -240.87195987 469.04959778 -235.9375 465.375 C-233.70630199 463.47434984 -232.84074595 462.1814919 -231.5 459.5 C-229.9375 456.375 -229.9375 456.375 -227.6875 453.9375 C-225.57874764 451.39264949 -225.57874764 451.39264949 -226.0625 447.75 C-226.76597492 444.27680811 -226.76597492 444.27680811 -228.9375 441.375 C-229.0625 438.6875 -229.0625 438.6875 -228.9375 436.375 C-229.5975 436.375 -230.2575 436.375 -230.9375 436.375 C-231.05867187 435.55515625 -231.17984375 434.7353125 -231.3046875 433.890625 C-231.47226563 432.81296875 -231.63984375 431.7353125 -231.8125 430.625 C-231.97492188 429.55765625 -232.13734375 428.4903125 -232.3046875 427.390625 C-232.73149184 424.49561793 -232.73149184 424.49561793 -233.96044922 422.73754883 C-235.46228179 419.10605614 -235.22215702 415.42765627 -235.203125 411.55859375 C-235.20503845 410.70572281 -235.2069519 409.85285187 -235.20892334 408.97413635 C-235.21028215 407.17456771 -235.20660695 405.37498917 -235.19824219 403.57543945 C-235.18752508 400.81894991 -235.19815444 398.06311012 -235.2109375 395.30664062 C-235.20961611 393.55729023 -235.20705414 391.80794023 -235.203125 390.05859375 C-235.20717346 389.23354843 -235.21122192 388.40850311 -235.21539307 387.55845642 C-235.18331404 383.65222046 -235.15307607 381.6983641 -232.9375 378.375 C-232.56678725 376.80427636 -232.25970298 375.21784496 -232 373.625 C-231.17300893 369.19514861 -229.87235807 365.467969 -227.9375 361.375 C-227.50630859 360.34632813 -227.50630859 360.34632813 -227.06640625 359.296875 C-222.9136196 349.44046852 -217.30907969 340.17824877 -209.9375 332.375 C-209.2775 332.375 -208.6175 332.375 -207.9375 332.375 C-207.85371094 331.82328125 -207.76992187 331.2715625 -207.68359375 330.703125 C-206.69580535 327.62081146 -205.03008173 325.63598716 -203 323.125 C-202.28972656 322.23296875 -201.57945312 321.3409375 -200.84765625 320.421875 C-200.21730469 319.74640625 -199.58695313 319.0709375 -198.9375 318.375 C-198.2775 318.375 -197.6175 318.375 -196.9375 318.375 C-196.66164062 317.78332031 -196.38578125 317.19164062 -196.1015625 316.58203125 C-192.70178828 310.1361506 -186.73725737 304.67256796 -180.9375 300.375 C-180.2775 300.375 -179.6175 300.375 -178.9375 300.375 C-178.669375 299.79234375 -178.40125 299.2096875 -178.125 298.609375 C-176.92269009 296.34713399 -175.59924087 294.56923682 -173.9375 292.625 C-173.421875 292.01140625 -172.90625 291.3978125 -172.375 290.765625 C-170.9375 289.375 -170.9375 289.375 -168.9375 289.375 C-168.6075 288.385 -168.2775 287.395 -167.9375 286.375 C-167.2775 286.375 -166.6175 286.375 -165.9375 286.375 C-165.9375 285.715 -165.9375 285.055 -165.9375 284.375 C-165.2775 283.983125 -164.6175 283.59125 -163.9375 283.1875 C-161.59552116 281.43317795 -161.59552116 281.43317795 -161.3125 278 C-162.00774638 273.96757101 -162.95213503 273.02909489 -166.203125 270.69921875 C-169.22242469 268.39394264 -171.74051124 265.4679239 -173.9375 262.375 C-173.9375 261.715 -173.9375 261.055 -173.9375 260.375 C-174.576875 260.106875 -175.21625 259.83875 -175.875 259.5625 C-177.9375 258.375 -177.9375 258.375 -178.9375 255.375 C-179.9275 255.045 -180.9175 254.715 -181.9375 254.375 C-181.9375 253.715 -181.9375 253.055 -181.9375 252.375 C-182.5975 252.375 -183.2575 252.375 -183.9375 252.375 C-183.9375 251.715 -183.9375 251.055 -183.9375 250.375 C-184.9275 250.045 -185.9175 249.715 -186.9375 249.375 C-186.9375 248.715 -186.9375 248.055 -186.9375 247.375 C-187.5975 247.375 -188.2575 247.375 -188.9375 247.375 C-190.38276736 245.63951831 -191.7462222 243.83524037 -193.0625 242 C-194.14917969 240.50339844 -194.14917969 240.50339844 -195.2578125 238.9765625 C-196.9375 236.375 -196.9375 236.375 -196.9375 234.375 C-197.741875 234.106875 -198.54625 233.83875 -199.375 233.5625 C-200.220625 233.170625 -201.06625 232.77875 -201.9375 232.375 C-202.2675 231.385 -202.5975 230.395 -202.9375 229.375 C-203.5975 229.375 -204.2575 229.375 -204.9375 229.375 C-206.12109375 227.9140625 -206.12109375 227.9140625 -207.375 226 C-209.15438245 223.28909131 -210.12944031 222.24703979 -212.9375 220.375 C-214.1046568 216.87352959 -214.07107453 214.04829964 -213.9375 210.375 C-213.6075 209.715 -213.2775 209.055 -212.9375 208.375 C-212.2775 208.375 -211.6175 208.375 -210.9375 208.375 C-210.875625 207.50875 -210.81375 206.6425 -210.75 205.75 C-209.13720055 199.0506792 -203.8513274 195.38697557 -198.796875 191.12109375 C-197.0487086 189.47943329 -195.86973166 187.97215753 -194.625 185.9375 C-194.068125 185.091875 -193.51125 184.24625 -192.9375 183.375 C-191.9475 183.375 -190.9575 183.375 -189.9375 183.375 C-189.9375 182.385 -189.9375 181.395 -189.9375 180.375 C-188.25 178.8671875 -188.25 178.8671875 -185.9375 177.25 C-180.59422471 173.28481628 -174.96061781 168.42123562 -171.9375 162.375 C-170.9475 162.375 -169.9575 162.375 -168.9375 162.375 C-168.6075 161.385 -168.2775 160.395 -167.9375 159.375 C-166.40625 157.90234375 -166.40625 157.90234375 -164.4375 156.3125 C-160.2511808 152.77771885 -156.72811304 148.85556478 -153.12109375 144.7421875 C-151.15957126 142.61574272 -149.16863138 140.77168163 -146.9375 138.9375 C-143.74469023 136.65651793 -143.74469023 136.65651793 -142.9375 133.375 C-141.9475 133.375 -140.9575 133.375 -139.9375 133.375 C-139.73125 132.83875 -139.525 132.3025 -139.3125 131.75 C-137.40499574 128.45521991 -134.88930616 125.78136372 -131.9375 123.375 C-131.2775 123.375 -130.6175 123.375 -129.9375 123.375 C-129.4425 121.89 -129.4425 121.89 -128.9375 120.375 C-127.52222804 119.1956067 -126.10271228 118.02086011 -124.66015625 116.875 C-122.81702386 115.2700956 -121.31774054 113.56123327 -119.75 111.6875 C-116.00381456 107.27384277 -111.75712612 103.5373879 -107.44140625 99.69140625 C-105.52063536 97.91446844 -103.85885499 96.23265465 -102.25 94.1875 C-99.75356039 91.15128966 -97.0336993 88.77668073 -94.0546875 86.23046875 C-89.50659055 82.24459043 -85.2617448 77.99719988 -81.4375 73.3125 C-78.76933449 70.17740553 -75.89081352 67.67922861 -72.70703125 65.0859375 C-70.83117806 63.46644686 -70.83117806 63.46644686 -69.88671875 61.2265625 C-68.9375 59.375 -68.9375 59.375 -65.9375 58.375 C-64.7592797 56.96113564 -63.5856959 55.54302589 -62.44140625 54.1015625 C-60.81704177 52.23670769 -59.08151514 50.71401469 -57.1875 49.125 C-53.10006965 45.65337837 -49.65477315 41.76971136 -46.12109375 37.74609375 C-43.27295121 34.65338799 -40.16400067 32.06375056 -36.9375 29.375 C-36.6075 28.715 -36.2775 28.055 -35.9375 27.375 C-35.2775 27.375 -34.6175 27.375 -33.9375 27.375 C-33.68677734 26.79975586 -33.43605469 26.22451172 -33.17773438 25.63183594 C-31.77021173 23.07058804 -30.15579975 21.33442608 -28.09375 19.265625 C-27.34222656 18.51152344 -26.59070313 17.75742187 -25.81640625 16.98046875 C-25.03136719 16.20316406 -24.24632812 15.42585937 -23.4375 14.625 C-22.65246094 13.83222656 -21.86742187 13.03945312 -21.05859375 12.22265625 C-20.30707031 11.47371094 -19.55554688 10.72476562 -18.78125 9.953125 C-18.09224609 9.26637695 -17.40324219 8.57962891 -16.69335938 7.87207031 C-14.9375 6.375 -14.9375 6.375 -12.9375 6.375 C-12.6075 5.385 -12.2775 4.395 -11.9375 3.375 C-8.50626111 -0.27015653 -4.70865908 -0.0772615 0 0 Z M0.0625 36.375 C-1.07423739 37.51173739 -2.20797969 38.65159674 -3.328125 39.8046875 C-5.8777154 42.29239464 -8.62819955 44.5441414 -11.36328125 46.82421875 C-11.88277344 47.33597656 -12.40226563 47.84773438 -12.9375 48.375 C-12.9375 49.035 -12.9375 49.695 -12.9375 50.375 C-13.73136108 50.67881592 -13.73136108 50.67881592 -14.54125977 50.98876953 C-17.99293229 52.98557 -20.50293176 55.71545994 -23.27734375 58.5546875 C-23.88131485 59.16386017 -24.48528595 59.77303284 -25.1075592 60.40066528 C-27.03485971 62.3457462 -28.95534466 64.29737577 -30.875 66.25 C-32.79191538 68.19462691 -34.71030076 70.13774319 -36.63172913 72.07791138 C-37.82550439 73.28383952 -39.01659715 74.49243096 -40.20457458 75.70407104 C-42.67137546 78.20030857 -45.07309674 80.48133921 -47.84204102 82.65283203 C-48.87929321 83.50530518 -48.87929321 83.50530518 -49.9375 84.375 C-49.9375 85.035 -49.9375 85.695 -49.9375 86.375 C-50.535625 86.643125 -51.13375 86.91125 -51.75 87.1875 C-53.96783235 88.25736968 -53.96783235 88.25736968 -55.5 89.9375 C-56.9375 91.375 -56.9375 91.375 -59.9375 92.375 C-60.62236725 93.69907669 -61.28620203 95.03409241 -61.9375 96.375 C-63.27083333 97.70833333 -64.60416667 99.04166667 -65.9375 100.375 C-65.9375 101.035 -65.9375 101.695 -65.9375 102.375 C-66.5975 102.375 -67.2575 102.375 -67.9375 102.375 C-69.50614082 103.9257907 -69.50614082 103.9257907 -71.125 105.9375 C-73.52670401 108.76950931 -75.97077878 111.46548182 -78.625 114.0625 C-81.28581556 116.6873586 -83.75821895 119.32400653 -85.9375 122.375 C-85.9375 123.035 -85.9375 123.695 -85.9375 124.375 C-86.618125 124.560625 -87.29875 124.74625 -88 124.9375 C-93.04854595 127.40806504 -96.90443496 131.26395405 -99.375 136.3125 C-99.560625 136.993125 -99.74625 137.67375 -99.9375 138.375 C-100.9275 138.375 -101.9175 138.375 -102.9375 138.375 C-105.1875 140.125 -105.1875 140.125 -106.9375 142.375 C-106.9375 143.365 -106.9375 144.355 -106.9375 145.375 C-107.659375 145.601875 -108.38125 145.82875 -109.125 146.0625 C-112.51435109 147.64419718 -114.4799688 149.57614502 -116.9375 152.375 C-117.4325 153.86 -117.4325 153.86 -117.9375 155.375 C-119.4225 155.87 -119.4225 155.87 -120.9375 156.375 C-121.22625 157.179375 -121.515 157.98375 -121.8125 158.8125 C-122.369375 160.0809375 -122.369375 160.0809375 -122.9375 161.375 C-124.0203125 161.7771875 -124.0203125 161.7771875 -125.125 162.1875 C-129.47608435 164.0246245 -132.19955526 167.58764128 -134.9375 171.375 C-134.9375 172.035 -134.9375 172.695 -134.9375 173.375 C-135.9275 173.375 -136.9175 173.375 -137.9375 173.375 C-139.5708031 174.90484558 -139.5708031 174.90484558 -141.125 176.9375 C-143.61509137 179.92877502 -146.13608227 182.50737645 -149.125 185 C-151.61023717 187.09632601 -153.08236089 188.59930073 -154.875 191.375 C-157.3229486 194.9356525 -160.11194629 196.94689615 -163.546875 199.51171875 C-171.01608682 205.23140229 -171.01608682 205.23140229 -174.9375 213.375 C-175.5975 213.705 -176.2575 214.035 -176.9375 214.375 C-176.41800781 214.87128906 -175.89851563 215.36757812 -175.36328125 215.87890625 C-168.97694971 222.09997228 -168.97694971 222.09997228 -166.5 225.9375 C-163.97769459 229.71237885 -160.63961603 232.00424273 -157.01953125 234.67578125 C-154.22165167 236.95922893 -152.76577348 239.28099873 -150.9375 242.375 C-149.43863129 244.21189476 -149.43863129 244.21189476 -147.9375 245.375 C-147.2775 245.375 -146.6175 245.375 -145.9375 245.375 C-145.9375 246.035 -145.9375 246.695 -145.9375 247.375 C-144.49241072 248.28238164 -143.04674978 249.1888707 -141.59765625 250.08984375 C-139.68427105 251.571029 -138.54064253 253.12558044 -137.1875 255.125 C-136.445 256.1975 -135.7025 257.27 -134.9375 258.375 C-134.2775 258.375 -133.6175 258.375 -132.9375 258.375 C-132.9375 259.035 -132.9375 259.695 -132.9375 260.375 C-131.60416667 262.04166667 -131.60416667 262.04166667 -129.9375 263.375 C-129.2775 263.375 -128.6175 263.375 -127.9375 263.375 C-127.669375 263.931875 -127.40125 264.48875 -127.125 265.0625 C-124.94289268 269.50352263 -124.94289268 269.50352263 -121.9375 273.375 C-121.51706917 277.36100769 -121.19794726 281.10719531 -123.25 284.625 C-123.806875 285.2025 -124.36375 285.78 -124.9375 286.375 C-125.5253125 287.5815625 -125.5253125 287.5815625 -126.125 288.8125 C-127.95910015 291.40553815 -129.07265989 292.19754994 -131.75 293.75 C-135.46017424 295.90582073 -137.71525056 298.26274173 -140.3515625 301.60546875 C-142.69738281 304.22284954 -145.48563442 306.07375628 -148.3984375 308.015625 C-149.16027344 308.68851562 -149.16027344 308.68851562 -149.9375 309.375 C-149.9375 310.365 -149.9375 311.355 -149.9375 312.375 C-150.9275 312.375 -151.9175 312.375 -152.9375 312.375 C-154.54637924 314.0311468 -154.54637924 314.0311468 -156.0625 316.25 C-159.43208404 320.80504538 -163.12072342 324.90879128 -167.01953125 329.015625 C-168.96146777 331.40448377 -169.96472498 333.47211582 -170.9375 336.375 C-171.9275 336.375 -172.9175 336.375 -173.9375 336.375 C-175.34318804 338.32482535 -176.6670036 340.33450578 -177.9375 342.375 C-179.8416594 344.80444475 -181.78965752 347.19458747 -183.74609375 349.58203125 C-184.38675781 350.37996094 -185.02742188 351.17789062 -185.6875 352 C-186.30109375 352.75539063 -186.9146875 353.51078125 -187.546875 354.2890625 C-189.2148501 356.37319434 -189.2148501 356.37319434 -188.9375 359.375 C-189.9275 359.705 -190.9175 360.035 -191.9375 360.375 C-193.23827681 362.55380115 -194.35753236 364.65320125 -195.4375 366.9375 C-195.89987061 367.88834473 -195.89987061 367.88834473 -196.37158203 368.85839844 C-198.49878132 373.28940323 -200.33114601 377.7344218 -201.9375 382.375 C-202.2675 383.035 -202.5975 383.695 -202.9375 384.375 C-203.04845217 386.96605954 -203.10160192 389.52942805 -203.10546875 392.12109375 C-203.11046135 393.27146873 -203.11046135 393.27146873 -203.11555481 394.44508362 C-203.12062063 396.06828206 -203.12296324 397.69149093 -203.12280273 399.31469727 C-203.12498827 401.79916533 -203.14314457 404.28318872 -203.16210938 406.76757812 C-203.16504355 408.34374848 -203.16702818 409.91992095 -203.16796875 411.49609375 C-203.17515427 412.23991806 -203.18233978 412.98374237 -203.18974304 413.75010681 C-203.17308426 417.50809384 -203.07610716 419.16708927 -200.9375 422.375 C-200.46089876 423.92602023 -200.02724056 425.49055375 -199.625 427.0625 C-198.36842255 431.48307504 -196.56930892 434.82681893 -194.01171875 438.61328125 C-192.67593123 440.80397279 -192.17606674 442.83028806 -191.9375 445.375 C-191.2775 445.375 -190.6175 445.375 -189.9375 445.375 C-189.85589252 447.27010699 -189.79803541 449.16624504 -189.75 451.0625 C-189.71519531 452.11824219 -189.68039063 453.17398437 -189.64453125 454.26171875 C-189.97499688 457.77346682 -190.94224257 459.50988896 -192.9375 462.375 C-193.453125 463.2825 -193.96875 464.19 -194.5 465.125 C-195.9375 467.375 -195.9375 467.375 -197.9375 468.375 C-197.9375 469.035 -197.9375 469.695 -197.9375 470.375 C-198.5975 470.375 -199.2575 470.375 -199.9375 470.375 C-201.56427091 472.51270618 -203.07729644 474.6425534 -204.5625 476.875 C-204.98273438 477.49503906 -205.40296875 478.11507813 -205.8359375 478.75390625 C-206.87587167 480.29017264 -207.90747056 481.83207524 -208.9375 483.375 C-206.19186169 486.89759553 -203.59630774 489.77532081 -199.9375 492.375 C-199.2775 492.375 -198.6175 492.375 -197.9375 492.375 C-196.73121992 494.70714148 -195.7720262 496.87142139 -194.9375 499.375 C-194.339375 499.478125 -193.74125 499.58125 -193.125 499.6875 C-190.27757989 500.58240346 -189.7505255 502.11182999 -188.2578125 504.57421875 C-186.02973484 507.61310573 -183.08628507 509.85439709 -180.23828125 512.296875 C-177.42751678 514.83563 -175.05639939 517.6189763 -172.6171875 520.5078125 C-170.49670868 522.86499593 -168.14400528 524.79680622 -165.6953125 526.80078125 C-163.70288967 528.58510658 -162.03399968 530.51682181 -160.3125 532.5625 C-157.74401685 535.58964086 -155.43101351 537.44437411 -151.9375 539.375 C-150.27083333 541.04166667 -148.60416667 542.70833333 -146.9375 544.375 C-146.195 544.74625 -145.4525 545.1175 -144.6875 545.5 C-144.11 545.78875 -143.5325 546.0775 -142.9375 546.375 C-142.4425 547.86 -142.4425 547.86 -141.9375 549.375 C-140.38044806 550.95340572 -140.38044806 550.95340572 -138.4375 552.5 C-134.30373806 555.98459716 -130.5591851 559.75062826 -126.8203125 563.65234375 C-125.11689784 565.6000104 -125.11689784 565.6000104 -122.9375 565.375 C-122.9375 566.035 -122.9375 566.695 -122.9375 567.375 C-119.73186705 571.04439203 -116.71847433 574.23531574 -111.75 574.625 C-107.51413359 572.74239271 -104.92520498 570.11765773 -102.64453125 566.09375 C-100.53627792 562.73598268 -98.02194147 560.00378156 -95.3125 557.125 C-94.80976563 556.58359375 -94.30703125 556.0421875 -93.7890625 555.484375 C-89.0449783 550.38320919 -89.0449783 550.38320919 -87.03564453 550.22973633 C-84.37779626 550.20525822 -81.72047015 550.18933815 -79.0625 550.1875 C-78.13824219 550.17525391 -77.21398437 550.16300781 -76.26171875 550.15039062 C-74.92947266 550.14749023 -74.92947266 550.14749023 -73.5703125 550.14453125 C-72.75449707 550.14042236 -71.93868164 550.13631348 -71.09814453 550.13208008 C-68.9375 550.375 -68.9375 550.375 -65.9375 552.375 C-63.52717513 552.60276993 -61.10729673 552.73421246 -58.6875 552.8125 C-51.70978214 553.10400151 -45.33070489 554.18140511 -38.53515625 555.8515625 C-30.51245971 557.01881694 -22.33182411 554.82369246 -14.4375 553.375 C-13.4371875 553.19710937 -12.436875 553.01921875 -11.40625 552.8359375 C-10.4575 552.66320312 -9.50875 552.49046875 -8.53125 552.3125 C-7.24250977 552.07853516 -7.24250977 552.07853516 -5.92773438 551.83984375 C-3.94883903 551.56225559 -3.94883903 551.56225559 -2.9375 550.375 C-1.9475 550.271875 -0.9575 550.16875 0.0625 550.0625 C8.29935735 548.95077692 14.75358225 544.50678215 21.0625 539.375 C21.66707031 538.91609375 22.27164063 538.4571875 22.89453125 537.984375 C24.75208081 536.57822228 24.75208081 536.57822228 27.0625 534.375 C27.0625 533.385 27.0625 532.395 27.0625 531.375 C28.3825 531.045 29.7025 530.715 31.0625 530.375 C31.0625 529.715 31.0625 529.055 31.0625 528.375 C31.94035156 528.00568359 31.94035156 528.00568359 32.8359375 527.62890625 C35.40652017 526.18126232 36.81705693 524.58257518 38.6875 522.3125 C41.86805556 518.47222222 41.86805556 518.47222222 44.0625 517.375 C44.0625 516.715 44.0625 516.055 44.0625 515.375 C44.65160156 515.11203125 45.24070312 514.8490625 45.84765625 514.578125 C50.59916419 511.99705896 54.12885417 507.52410256 57.5 503.375 C60.19492927 500.21996085 63.08446153 497.69936786 66.29296875 495.0859375 C68.16882194 493.46644686 68.16882194 493.46644686 69.11328125 491.2265625 C70.0625 489.375 70.0625 489.375 73.0625 488.375 C73.0625 487.385 73.0625 486.395 73.0625 485.375 C74.7640625 484.9109375 74.7640625 484.9109375 76.5 484.4375 C79.85025099 483.74575469 79.85025099 483.74575469 81.0625 482.375 C82.58178038 482.30320036 84.10417482 482.29107993 85.625 482.3125 C86.45128906 482.32152344 87.27757812 482.33054687 88.12890625 482.33984375 C88.76699219 482.35144531 89.40507812 482.36304688 90.0625 482.375 C90.3925 483.035 90.7225 483.695 91.0625 484.375 C93.03550116 485.42726728 95.03926387 486.42288888 97.0625 487.375 C98.39583333 488.04166667 99.72916667 488.70833333 101.0625 489.375 C101.0625 490.035 101.0625 490.695 101.0625 491.375 C102.39583333 493.04166667 102.39583333 493.04166667 104.0625 494.375 C104.7225 494.375 105.3825 494.375 106.0625 494.375 C106.3925 495.365 106.7225 496.355 107.0625 497.375 C107.7225 497.375 108.3825 497.375 109.0625 497.375 C109.0625 498.035 109.0625 498.695 109.0625 499.375 C109.7225 499.375 110.3825 499.375 111.0625 499.375 C111.4646875 500.550625 111.4646875 500.550625 111.875 501.75 C112.91064432 504.65614923 112.91064432 504.65614923 116.0625 506.375 C116.3925 507.365 116.7225 508.355 117.0625 509.375 C118.7125 509.705 120.3625 510.035 122.0625 510.375 C122.0625 511.035 122.0625 511.695 122.0625 512.375 C122.7225 512.375 123.3825 512.375 124.0625 512.375 C124.17464844 513.22771484 124.17464844 513.22771484 124.2890625 514.09765625 C125.33337925 517.17258891 127.0747056 518.60646057 129.4375 520.8125 C132.6462471 523.81743417 134.84011469 526.59819351 137.0625 530.375 C141.00457778 533.72538779 141.00457778 533.72538779 145.9375 534.125 C146.63875 533.8775 147.34 533.63 148.0625 533.375 C148.0625 532.715 148.0625 532.055 148.0625 531.375 C148.63226563 531.30539062 149.20203125 531.23578125 149.7890625 531.1640625 C152.933728 530.07261502 154.27624132 528.26009342 156.4375 525.75 C157.21996094 524.85152344 158.00242187 523.95304687 158.80859375 523.02734375 C160.1773141 521.41666591 161.54483565 519.80496696 162.91015625 518.19140625 C166.92916667 513.44166667 166.92916667 513.44166667 169.0625 512.375 C169.0625 511.715 169.0625 511.055 169.0625 510.375 C169.7225 510.375 170.3825 510.375 171.0625 510.375 C173.46070305 507.73815253 173.46070305 507.73815253 174.0625 504.375 C174.79855469 504.1378125 175.53460938 503.900625 176.29296875 503.65625 C179.48965672 502.1773873 181.08528004 500.53124763 183.375 497.875 C184.07238281 497.0809375 184.76976562 496.286875 185.48828125 495.46875 C187.26281798 493.54516097 187.26281798 493.54516097 187.0625 491.375 C188.0525 491.045 189.0425 490.715 190.0625 490.375 C190.371875 489.735625 190.68125 489.09625 191 488.4375 C192.0625 486.375 192.0625 486.375 194.0625 485.4375 C196.81236668 483.97663333 197.15083304 482.26194538 198.0625 479.375 C198.7225 479.375 199.3825 479.375 200.0625 479.375 C201.4706132 477.98588239 201.4706132 477.98588239 202.875 476.1875 C206.01047501 472.40826804 209.38728869 468.98362341 212.9296875 465.58203125 C213.57164062 464.95683594 214.21359375 464.33164062 214.875 463.6875 C215.47957031 463.10613281 216.08414062 462.52476562 216.70703125 461.92578125 C218.28186724 460.46730108 218.28186724 460.46730108 218.0625 458.375 C219.0525 458.045 220.0425 457.715 221.0625 457.375 C221.0625 456.715 221.0625 456.055 221.0625 455.375 C221.7225 455.375 222.3825 455.375 223.0625 455.375 C223.0625 454.715 223.0625 454.055 223.0625 453.375 C224.0525 453.045 225.0425 452.715 226.0625 452.375 C226.0625 451.715 226.0625 451.055 226.0625 450.375 C227.0525 450.045 228.0425 449.715 229.0625 449.375 C229.0625 448.715 229.0625 448.055 229.0625 447.375 C229.7225 447.375 230.3825 447.375 231.0625 447.375 C231.0625 446.715 231.0625 446.055 231.0625 445.375 C232.0525 445.045 233.0425 444.715 234.0625 444.375 C234.0625 443.715 234.0625 443.055 234.0625 442.375 C234.7225 442.375 235.3825 442.375 236.0625 442.375 C236.0625 441.715 236.0625 441.055 236.0625 440.375 C237.0525 440.045 238.0425 439.715 239.0625 439.375 C239.0625 438.715 239.0625 438.055 239.0625 437.375 C240.0525 437.045 241.0425 436.715 242.0625 436.375 C242.0625 435.715 242.0625 435.055 242.0625 434.375 C242.7225 434.375 243.3825 434.375 244.0625 434.375 C244.0625 433.715 244.0625 433.055 244.0625 432.375 C245.0525 432.045 246.0425 431.715 247.0625 431.375 C247.0625 430.715 247.0625 430.055 247.0625 429.375 C247.7225 429.375 248.3825 429.375 249.0625 429.375 C249.0625 428.715 249.0625 428.055 249.0625 427.375 C250.0525 427.045 251.0425 426.715 252.0625 426.375 C252.0625 425.715 252.0625 425.055 252.0625 424.375 C252.7225 424.375 253.3825 424.375 254.0625 424.375 C255.72916667 423.04166667 255.72916667 423.04166667 257.0625 421.375 C257.0625 420.715 257.0625 420.055 257.0625 419.375 C258.0525 419.045 259.0425 418.715 260.0625 418.375 C260.0625 417.715 260.0625 417.055 260.0625 416.375 C260.7225 416.375 261.3825 416.375 262.0625 416.375 C262.0625 415.715 262.0625 415.055 262.0625 414.375 C263.0525 414.045 264.0425 413.715 265.0625 413.375 C265.0625 412.715 265.0625 412.055 265.0625 411.375 C265.7225 411.375 266.3825 411.375 267.0625 411.375 C268.59926516 409.89453208 268.59926516 409.89453208 270.1875 407.9375 C270.80496094 407.21433594 271.42242188 406.49117188 272.05859375 405.74609375 C272.71988281 404.96363281 273.38117188 404.18117188 274.0625 403.375 C275.450861 401.74361119 276.84661528 400.11848294 278.25 398.5 C279.19939453 397.39011719 279.19939453 397.39011719 280.16796875 396.2578125 C282.04601977 394.39137829 283.63875062 393.39609176 286.0625 392.375 C286.0625 391.715 286.0625 391.055 286.0625 390.375 C286.7225 390.375 287.3825 390.375 288.0625 390.375 C289.63448103 388.59207374 289.63448103 388.59207374 291.25 386.3125 C293.61688093 383.1583093 296.01318333 380.33714006 298.875 377.625 C301.51699889 375.0837051 303.07606722 372.99192021 304.0625 369.375 C304.7225 369.375 305.3825 369.375 306.0625 369.375 C306.0625 368.715 306.0625 368.055 306.0625 367.375 C306.7225 367.375 307.3825 367.375 308.0625 367.375 C312.35123219 363.21302836 315.90370621 358.42907007 319.0625 353.375 C318.11266642 351.86960339 317.15238109 350.37079653 316.1875 348.875 C315.38699219 347.62203125 315.38699219 347.62203125 314.5703125 346.34375 C314.07273437 345.6940625 313.57515625 345.044375 313.0625 344.375 C312.4025 344.375 311.7425 344.375 311.0625 344.375 C310.85625 343.818125 310.65 343.26125 310.4375 342.6875 C308.48566968 339.40487629 306.12019006 337.66826754 303.0625 335.375 C302.4025 335.375 301.7425 335.375 301.0625 335.375 C300.4025 333.725 299.7425 332.075 299.0625 330.375 C298.0725 330.375 297.0825 330.375 296.0625 330.375 C295.9696875 329.50875 295.9696875 329.50875 295.875 328.625 C294.7419098 325.48721174 292.68532275 324.35810989 290.0625 322.375 C289.4025 321.385 288.7425 320.395 288.0625 319.375 C287.4025 319.375 286.7425 319.375 286.0625 319.375 C286.0625 318.715 286.0625 318.055 286.0625 317.375 C284.73737122 316.0712889 284.73737122 316.0712889 283 314.75 C280.30204134 312.52148615 277.9975047 310.24345203 275.75 307.5625 C272.29834857 303.48892939 268.42551014 300.06332584 264.41796875 296.546875 C262.35471255 294.64443645 260.58047179 292.73418188 258.8125 290.5625 C256.26438968 287.44338457 253.4443421 285.58354994 250.0625 283.375 C248.31468114 281.73461209 246.6545833 280.02833768 244.99153137 278.30235291 C243.21494557 276.52731293 241.38961584 274.89924336 239.4753418 273.27563477 C234.36705579 268.83641055 229.61033153 264.06632619 224.83203125 259.27734375 C223.86909774 258.31508589 222.90601601 257.35297634 221.9427948 256.39100647 C219.93850874 254.38818373 217.93601432 252.38359184 215.93481445 250.37768555 C213.38309279 247.82025191 210.82688548 245.26735629 208.2693224 242.71576595 C206.28483901 240.73491209 204.30276309 238.75166299 202.32138634 236.7677021 C200.92636243 235.37169731 199.52934322 233.97768734 198.13227844 232.58372498 C191.09518594 225.52067988 191.09518594 225.52067988 188.13549805 221.75219727 C187.45140869 220.96772217 186.76731934 220.18324707 186.0625 219.375 C185.0725 219.375 184.0825 219.375 183.0625 219.375 C182.81113281 218.6428125 182.55976563 217.910625 182.30078125 217.15625 C180.96923841 214.16552916 179.46062799 212.27583499 177.25 209.875 C176.53199219 209.09382812 175.81398438 208.31265625 175.07421875 207.5078125 C171.6386319 203.86542333 168.13767931 200.41969961 164.35546875 197.140625 C160.46490153 193.74242335 156.64345954 190.28296092 152.875 186.75 C151.84137329 185.78223633 151.84137329 185.78223633 150.78686523 184.79492188 C145.62553582 179.91324885 140.58689565 174.92026974 135.578125 169.8828125 C134.59866158 168.8984169 134.59866158 168.8984169 133.59941101 167.89413452 C130.28770656 164.56284501 126.98369008 161.22430683 123.6887207 157.87646484 C122.46055797 156.63628552 121.23229112 155.39620929 120.00390625 154.15625 C119.43379822 153.57263702 118.86369019 152.98902405 118.27630615 152.38772583 C116.90914557 151.01190372 115.49034829 149.68773143 114.0625 148.375 C113.4025 148.375 112.7425 148.375 112.0625 148.375 C112.0625 147.715 112.0625 147.055 112.0625 146.375 C110.38290162 144.59828303 110.38290162 144.59828303 108.25 142.8125 C107.18845703 141.88244141 107.18845703 141.88244141 106.10546875 140.93359375 C104.04976532 139.19075246 104.04976532 139.19075246 101.0625 138.375 C100.39583333 137.04166667 99.72916667 135.70833333 99.0625 134.375 C97.4188186 132.68566078 95.7482124 131.02240076 94.0625 129.375 C92.48260539 127.51173363 90.92996202 125.63051368 89.39453125 123.73046875 C88.95496094 123.28316406 88.51539063 122.83585937 88.0625 122.375 C87.4025 122.375 86.7425 122.375 86.0625 122.375 C86.0625 121.715 86.0625 121.055 86.0625 120.375 C84.72916667 118.70833333 84.72916667 118.70833333 83.0625 117.375 C82.4025 117.375 81.7425 117.375 81.0625 117.375 C80.84787109 116.83584961 80.63324219 116.29669922 80.41210938 115.74121094 C78.57728949 112.52430168 76.07664382 110.10360745 73.46875 107.515625 C72.64775818 106.691763 72.64775818 106.691763 71.81018066 105.85125732 C70.6560222 104.69574141 69.49934833 103.54273315 68.34033203 102.39208984 C66.56176054 100.624265 64.79415237 98.8459787 63.02734375 97.06640625 C61.90428692 95.94467029 60.78061024 94.82355449 59.65625 93.703125 C58.8608783 92.9016806 58.8608783 92.9016806 58.04943848 92.08404541 C55.52699631 89.24755389 55.52699631 89.24755389 52.0625 88.375 C52.0625 87.715 52.0625 87.055 52.0625 86.375 C51.4025 86.375 50.7425 86.375 50.0625 86.375 C49.7325 85.385 49.4025 84.395 49.0625 83.375 C48.4025 83.375 47.7425 83.375 47.0625 83.375 C47.0625 82.715 47.0625 82.055 47.0625 81.375 C45.67338239 79.9668868 45.67338239 79.9668868 43.875 78.5625 C40.76012705 75.9803518 37.88874939 73.27562438 35.0625 70.375 C34.216875 69.55 33.37125 68.725 32.5 67.875 C30.0625 65.375 30.0625 65.375 27.875 62.5625 C27.276875 61.840625 26.67875 61.11875 26.0625 60.375 C25.4025 60.375 24.7425 60.375 24.0625 60.375 C23.815 59.7975 23.5675 59.22 23.3125 58.625 C21.87950012 56.04560021 20.27825324 54.31378408 18.0625 52.375 C17.4025 52.375 16.7425 52.375 16.0625 52.375 C16.0625 51.715 16.0625 51.055 16.0625 50.375 C13.42565253 47.97679695 13.42565253 47.97679695 10.0625 47.375 C9.876875 46.67375 9.69125 45.9725 9.5 45.25 C7.52961448 41.30922895 4.59262767 38.94960439 1.0625 36.375 C0.7325 36.375 0.4025 36.375 0.0625 36.375 Z " fill="#FFFFFF" transform="translate(246.9375,-0.375)"/>
</svg>
