<?xml version="1.0" encoding="UTF-8"?>
<svg version="1.1" xmlns="http://www.w3.org/2000/svg" width="542" height="513">
<path d="M0 0 C1.53888382 0.00666183 1.53888382 0.00666183 3.1088562 0.01345825 C4.85043503 0.01368484 4.85043503 0.01368484 6.62719727 0.01391602 C7.88555389 0.02423859 9.14391052 0.03456116 10.44039917 0.04519653 C11.72493988 0.04802643 13.00948059 0.05085632 14.33294678 0.05377197 C17.74921434 0.06141094 21.16531204 0.08106151 24.58151245 0.10317993 C28.0670034 0.12363279 31.55252177 0.13277248 35.03805542 0.14285278 C41.87796898 0.16430729 48.71776967 0.19844632 55.55758667 0.24050903 C55.55758667 1.23050903 55.55758667 2.22050903 55.55758667 3.24050903 C57.44477417 2.99300903 57.44477417 2.99300903 59.37008667 2.74050903 C63.74521047 2.16672231 67.41940188 2.34166544 71.74508667 3.24050903 C73.0966687 3.51894653 73.0966687 3.51894653 74.47555542 3.80300903 C75.16262573 3.94738403 75.84969604 4.09175903 76.55758667 4.24050903 C76.55758667 4.90050903 76.55758667 5.56050903 76.55758667 6.24050903 C78.86758667 6.24050903 81.17758667 6.24050903 83.55758667 6.24050903 C83.55758667 7.23050903 83.55758667 8.22050903 83.55758667 9.24050903 C84.40578979 9.16832153 85.25399292 9.09613403 86.12789917 9.02175903 C90.34356968 9.29064007 92.78071888 10.65372744 96.43258667 12.74050903 C97.02555542 13.07437622 97.61852417 13.40824341 98.22946167 13.75222778 C99.67863384 14.57030885 101.11905648 15.40385646 102.55758667 16.24050903 C102.55758667 16.90050903 102.55758667 17.56050903 102.55758667 18.24050903 C103.60946167 18.34363403 104.66133667 18.44675903 105.74508667 18.55300903 C109.45542969 19.22208728 111.61610794 19.92298033 114.55758667 22.24050903 C114.55758667 23.23050903 114.55758667 24.22050903 114.55758667 25.24050903 C115.54758667 25.24050903 116.53758667 25.24050903 117.55758667 25.24050903 C117.55758667 26.23050903 117.55758667 27.22050903 117.55758667 28.24050903 C119.20758667 28.24050903 120.85758667 28.24050903 122.55758667 28.24050903 C122.88758667 29.23050903 123.21758667 30.22050903 123.55758667 31.24050903 C124.54758667 31.24050903 125.53758667 31.24050903 126.55758667 31.24050903 C128.74508667 33.11550903 128.74508667 33.11550903 130.55758667 35.24050903 C130.55758667 35.90050903 130.55758667 36.56050903 130.55758667 37.24050903 C131.54758667 37.57050903 132.53758667 37.90050903 133.55758667 38.24050903 C133.55758667 38.90050903 133.55758667 39.56050903 133.55758667 40.24050903 C134.54758667 40.24050903 135.53758667 40.24050903 136.55758667 40.24050903 C137.93626948 41.86986144 139.2703276 43.5380051 140.55758667 45.24050903 C141.21758667 45.57050903 141.87758667 45.90050903 142.55758667 46.24050903 C142.55758667 47.56050903 142.55758667 48.88050903 142.55758667 50.24050903 C143.54758667 50.24050903 144.53758667 50.24050903 145.55758667 50.24050903 C145.55758667 51.23050903 145.55758667 52.22050903 145.55758667 53.24050903 C146.54758667 53.24050903 147.53758667 53.24050903 148.55758667 53.24050903 C148.55758667 54.23050903 148.55758667 55.22050903 148.55758667 56.24050903 C149.54758667 56.57050903 150.53758667 56.90050903 151.55758667 57.24050903 C151.88758667 58.89050903 152.21758667 60.54050903 152.55758667 62.24050903 C153.54758667 62.57050903 154.53758667 62.90050903 155.55758667 63.24050903 C155.55758667 64.23050903 155.55758667 65.22050903 155.55758667 66.24050903 C156.21758667 66.24050903 156.87758667 66.24050903 157.55758667 66.24050903 C160.17706363 69.7604312 162.02391592 73.15072036 163.55758667 77.24050903 C164.03196167 78.16863403 164.50633667 79.09675903 164.99508667 80.05300903 C166.78592935 83.7063281 168.17676411 87.41833524 169.55758667 91.24050903 C170.98197801 96.10272057 170.98197801 96.10272057 173.55758667 100.24050903 C173.84152645 102.75540419 174.00569907 105.27040485 174.17868042 107.79519653 C174.42083607 110.49119681 174.42083607 110.49119681 176.55758667 113.24050903 C176.80482483 115.78971863 176.80482483 115.78971863 176.80050659 118.87356567 C176.80358322 120.02808731 176.80665985 121.18260895 176.80982971 122.37211609 C176.8026442 123.61903732 176.79545868 124.86595856 176.78805542 126.15066528 C176.78736809 128.06823891 176.78736809 128.06823891 176.78666687 130.02455139 C176.78364355 132.72891501 176.7768252 135.43293845 176.76339722 138.13723755 C176.74639056 141.60649459 176.74258346 145.0756061 176.7433424 148.54489994 C176.74300543 151.85100282 176.73416961 155.15707509 176.72555542 158.46316528 C176.7244426 159.71211075 176.72332977 160.96105621 176.72218323 162.24784851 C176.71580338 163.39921799 176.70942352 164.55058746 176.70285034 165.73684692 C176.69903854 166.75372086 176.69522675 167.77059479 176.69129944 168.81828308 C176.55758667 171.24050903 176.55758667 171.24050903 175.55758667 173.24050903 C174.89758667 173.24050903 174.23758667 173.24050903 173.55758667 173.24050903 C173.55758667 176.21050903 173.55758667 179.18050903 173.55758667 182.24050903 C172.56758667 182.57050903 171.57758667 182.90050903 170.55758667 183.24050903 C170.55758667 187.86050903 170.55758667 192.48050903 170.55758667 197.24050903 C169.56758667 197.57050903 168.57758667 197.90050903 167.55758667 198.24050903 C167.55758667 200.22050903 167.55758667 202.20050903 167.55758667 204.24050903 C166.89758667 204.57050903 166.23758667 204.90050903 165.55758667 205.24050903 C164.85047989 206.89042486 164.19196011 208.56128523 163.55758667 210.24050903 C162.57276645 212.24802718 161.57606153 214.24985362 160.55758667 216.24050903 C159.89758667 216.24050903 159.23758667 216.24050903 158.55758667 216.24050903 C158.22758667 217.56050903 157.89758667 218.88050903 157.55758667 220.24050903 C156.89758667 220.24050903 156.23758667 220.24050903 155.55758667 220.24050903 C155.55758667 221.23050903 155.55758667 222.22050903 155.55758667 223.24050903 C154.57908472 224.26155454 153.5777824 225.26112113 152.55758667 226.24050903 C152.22758667 227.23050903 151.89758667 228.22050903 151.55758667 229.24050903 C150.89758667 229.57050903 150.23758667 229.90050903 149.55758667 230.24050903 C148.83599242 231.88414037 148.16407246 233.55101289 147.55758667 235.24050903 C146.89758667 235.24050903 146.23758667 235.24050903 145.55758667 235.24050903 C145.55758667 236.23050903 145.55758667 237.22050903 145.55758667 238.24050903 C143.68258667 240.42800903 143.68258667 240.42800903 141.55758667 242.24050903 C140.89758667 242.24050903 140.23758667 242.24050903 139.55758667 242.24050903 C139.22758667 243.23050903 138.89758667 244.22050903 138.55758667 245.24050903 C137.89758667 245.24050903 137.23758667 245.24050903 136.55758667 245.24050903 C136.22758667 246.23050903 135.89758667 247.22050903 135.55758667 248.24050903 C134.18258667 249.92800903 134.18258667 249.92800903 132.55758667 251.24050903 C131.56758667 251.24050903 130.57758667 251.24050903 129.55758667 251.24050903 C129.55758667 252.23050903 129.55758667 253.22050903 129.55758667 254.24050903 C128.24508667 255.92800903 128.24508667 255.92800903 126.55758667 257.24050903 C125.56758667 257.24050903 124.57758667 257.24050903 123.55758667 257.24050903 C123.22758667 258.23050903 122.89758667 259.22050903 122.55758667 260.24050903 C120.90758667 260.57050903 119.25758667 260.90050903 117.55758667 261.24050903 C117.22758667 262.23050903 116.89758667 263.22050903 116.55758667 264.24050903 C115.56758667 264.24050903 114.57758667 264.24050903 113.55758667 264.24050903 C113.55758667 264.90050903 113.55758667 265.56050903 113.55758667 266.24050903 C112.58821167 266.71488403 111.61883667 267.18925903 110.62008667 267.67800903 C107.7528123 268.9424485 107.7528123 268.9424485 106.55758667 270.24050903 C106.34630311 272.89035702 106.18146001 275.52390801 106.05758667 278.17800903 C105.6919347 285.97181296 105.6919347 285.97181296 104.55758667 288.24050903 C103.89758667 288.24050903 103.23758667 288.24050903 102.55758667 288.24050903 C102.55758667 295.50050903 102.55758667 302.76050903 102.55758667 310.24050903 C101.56758667 310.24050903 100.57758667 310.24050903 99.55758667 310.24050903 C99.58078979 311.14414185 99.60399292 312.04777466 99.62789917 312.97879028 C99.64594604 314.15828247 99.66399292 315.33777466 99.68258667 316.55300903 C99.70578979 317.72476685 99.72899292 318.89652466 99.75289917 320.10379028 C99.55758667 323.24050903 99.55758667 323.24050903 97.55758667 326.24050903 C97.35853596 328.40163102 97.24498012 330.57113666 97.18258667 332.74050903 C96.80938285 339.5145104 95.27186799 345.05447253 92.55758667 351.24050903 C91.56758667 351.24050903 90.57758667 351.24050903 89.55758667 351.24050903 C89.55758667 353.88050903 89.55758667 356.52050903 89.55758667 359.24050903 C88.56758667 359.57050903 87.57758667 359.90050903 86.55758667 360.24050903 C86.55758667 362.22050903 86.55758667 364.20050903 86.55758667 366.24050903 C85.56758667 366.24050903 84.57758667 366.24050903 83.55758667 366.24050903 C83.55758667 368.22050903 83.55758667 370.20050903 83.55758667 372.24050903 C82.56758667 372.24050903 81.57758667 372.24050903 80.55758667 372.24050903 C80.61946167 373.45738403 80.68133667 374.67425903 80.74508667 375.92800903 C80.74508667 379.90037455 79.88650774 381.96276826 77.55758667 385.24050903 C76.54257777 387.23293392 75.53885223 389.23125099 74.55758667 391.24050903 C73.56758667 391.24050903 72.57758667 391.24050903 71.55758667 391.24050903 C71.55758667 392.89050903 71.55758667 394.54050903 71.55758667 396.24050903 C70.56758667 396.57050903 69.57758667 396.90050903 68.55758667 397.24050903 C67.82434871 399.25559262 67.82434871 399.25559262 67.55758667 401.24050903 C66.89758667 401.24050903 66.23758667 401.24050903 65.55758667 401.24050903 C65.43383667 402.04488403 65.31008667 402.84925903 65.18258667 403.67800903 C64.97633667 404.52363403 64.77008667 405.36925903 64.55758667 406.24050903 C63.89758667 406.57050903 63.23758667 406.90050903 62.55758667 407.24050903 C61.42408133 409.25720731 61.42408133 409.25720731 60.55758667 411.24050903 C59.89758667 411.24050903 59.23758667 411.24050903 58.55758667 411.24050903 C58.43383667 411.81800903 58.31008667 412.39550903 58.18258667 412.99050903 C57.55109843 415.2638667 56.66900476 417.16586193 55.55758667 419.24050903 C54.56758667 419.24050903 53.57758667 419.24050903 52.55758667 419.24050903 C52.55758667 420.23050903 52.55758667 421.22050903 52.55758667 422.24050903 C51.56758667 422.24050903 50.57758667 422.24050903 49.55758667 422.24050903 C49.55758667 423.23050903 49.55758667 424.22050903 49.55758667 425.24050903 C48.56758667 425.24050903 47.57758667 425.24050903 46.55758667 425.24050903 C46.22758667 426.56050903 45.89758667 427.88050903 45.55758667 429.24050903 C44.89758667 429.24050903 44.23758667 429.24050903 43.55758667 429.24050903 C43.22758667 430.23050903 42.89758667 431.22050903 42.55758667 432.24050903 C41.89758667 432.24050903 41.23758667 432.24050903 40.55758667 432.24050903 C40.47508667 432.79738403 40.39258667 433.35425903 40.30758667 433.92800903 C39.31863126 436.97728823 37.71001201 438.89240866 35.55758667 441.24050903 C34.89758667 441.24050903 34.23758667 441.24050903 33.55758667 441.24050903 C33.22758667 442.23050903 32.89758667 443.22050903 32.55758667 444.24050903 C31.89758667 444.24050903 31.23758667 444.24050903 30.55758667 444.24050903 C30.55758667 444.90050903 30.55758667 445.56050903 30.55758667 446.24050903 C25.26346902 450.24050903 25.26346902 450.24050903 21.55758667 450.24050903 C21.55758667 451.23050903 21.55758667 452.22050903 21.55758667 453.24050903 C20.56758667 453.24050903 19.57758667 453.24050903 18.55758667 453.24050903 C18.22758667 454.23050903 17.89758667 455.22050903 17.55758667 456.24050903 C11.63028768 461.73105968 5.50177294 465.65167178 -2.44241333 467.24050903 C-2.77241333 467.90050903 -3.10241333 468.56050903 -3.44241333 469.24050903 C-4.43241333 469.24050903 -5.42241333 469.24050903 -6.44241333 469.24050903 C-6.77241333 470.23050903 -7.10241333 471.22050903 -7.44241333 472.24050903 C-8.7654505 472.61261324 -10.09979268 472.94681077 -11.44241333 473.24050903 C-11.77241333 473.90050903 -12.10241333 474.56050903 -12.44241333 475.24050903 C-13.76241333 475.24050903 -15.08241333 475.24050903 -16.44241333 475.24050903 C-16.77241333 476.23050903 -17.10241333 477.22050903 -17.44241333 478.24050903 C-19.09241333 478.24050903 -20.74241333 478.24050903 -22.44241333 478.24050903 C-22.77241333 479.23050903 -23.10241333 480.22050903 -23.44241333 481.24050903 C-26.08241333 481.24050903 -28.72241333 481.24050903 -31.44241333 481.24050903 C-31.44241333 482.23050903 -31.44241333 483.22050903 -31.44241333 484.24050903 C-33.42241333 484.57050903 -35.40241333 484.90050903 -37.44241333 485.24050903 C-37.44241333 485.90050903 -37.44241333 486.56050903 -37.44241333 487.24050903 C-38.08049927 487.44546997 -38.71858521 487.65043091 -39.37600708 487.86160278 C-40.20229614 488.13101685 -41.02858521 488.40043091 -41.87991333 488.67800903 C-43.11547974 489.07826294 -43.11547974 489.07826294 -44.37600708 489.48660278 C-46.40460921 490.06206398 -46.40460921 490.06206398 -47.44241333 491.24050903 C-48.96169371 491.31230867 -50.48408815 491.32442911 -52.00491333 491.30300903 C-52.83120239 491.2939856 -53.65749146 491.28496216 -54.50881958 491.27566528 C-55.14690552 491.26406372 -55.78499146 491.25246216 -56.44241333 491.24050903 C-56.44241333 492.23050903 -56.44241333 493.22050903 -56.44241333 494.24050903 C-57.21327271 494.28949341 -57.98413208 494.33847778 -58.77835083 494.38894653 C-59.78124146 494.46371216 -60.78413208 494.53847778 -61.81741333 494.61550903 C-62.81514771 494.68511841 -63.81288208 494.75472778 -64.84085083 494.82644653 C-67.59750212 495.00414867 -67.59750212 495.00414867 -69.44241333 497.24050903 C-71.32180786 497.55935669 -71.32180786 497.55935669 -73.57522583 497.65457153 C-74.38088989 497.69324341 -75.18655396 497.73191528 -76.01663208 497.77175903 C-76.85838989 497.80269653 -77.70014771 497.83363403 -78.56741333 497.86550903 C-79.41690552 497.90418091 -80.26639771 497.94285278 -81.14163208 497.98269653 C-83.24153017 498.07707398 -85.34194224 498.15988489 -87.44241333 498.24050903 C-87.44241333 498.90050903 -87.44241333 499.56050903 -87.44241333 500.24050903 C-94.22341003 500.38336235 -101.00441683 500.52572919 -107.78543091 500.66775513 C-110.09305046 500.71614515 -112.40066766 500.76464723 -114.70828247 500.81326294 C-118.02199709 500.88305534 -121.33571989 500.95244695 -124.64944458 501.02175903 C-125.68390213 501.04363281 -126.71835968 501.06550659 -127.78416443 501.08804321 C-128.74493393 501.10806396 -129.70570343 501.12808472 -130.69558716 501.14871216 C-131.54164017 501.16647705 -132.38769318 501.18424194 -133.25938416 501.20254517 C-138.35431283 501.29114829 -143.41696314 501.04189667 -148.50491333 500.80300903 C-149.89033325 500.74403442 -149.89033325 500.74403442 -151.30374146 500.68386841 C-152.18610474 500.64197388 -153.06846802 500.60007935 -153.97756958 500.55691528 C-154.78589233 500.52025757 -155.59421509 500.48359985 -156.42703247 500.4458313 C-158.44241333 500.24050903 -158.44241333 500.24050903 -160.44241333 499.24050903 C-160.44241333 498.58050903 -160.44241333 497.92050903 -160.44241333 497.24050903 C-161.70698364 497.26371216 -162.97155396 497.28691528 -164.27444458 497.31082153 C-165.93459493 497.32958029 -167.59475166 497.34778038 -169.25491333 497.36550903 C-170.08829224 497.38226685 -170.92167114 497.39902466 -171.78030396 497.41629028 C-172.58274536 497.4227356 -173.38518677 497.42918091 -174.21194458 497.43582153 C-174.95033569 497.44629517 -175.68872681 497.4567688 -176.44949341 497.46755981 C-178.44241333 497.24050903 -178.44241333 497.24050903 -181.44241333 495.24050903 C-183.46039223 494.86203859 -183.46039223 494.86203859 -185.56741333 494.74050903 C-186.84616333 494.57550903 -188.12491333 494.41050903 -189.44241333 494.24050903 C-189.77241333 493.58050903 -190.10241333 492.92050903 -190.44241333 492.24050903 C-192.33006236 491.55578238 -192.33006236 491.55578238 -194.50491333 491.11550903 C-195.23838989 490.94793091 -195.97186646 490.78035278 -196.72756958 490.60769653 C-197.29346802 490.48652466 -197.85936646 490.36535278 -198.44241333 490.24050903 C-198.44241333 489.58050903 -198.44241333 488.92050903 -198.44241333 488.24050903 C-200.42241333 488.24050903 -202.40241333 488.24050903 -204.44241333 488.24050903 C-204.77241333 487.25050903 -205.10241333 486.26050903 -205.44241333 485.24050903 C-207.42241333 484.91050903 -209.40241333 484.58050903 -211.44241333 484.24050903 C-211.44241333 483.25050903 -211.44241333 482.26050903 -211.44241333 481.24050903 C-212.09467896 481.20312622 -212.74694458 481.16574341 -213.41897583 481.12722778 C-218.80338544 480.72220582 -222.69909151 479.99825428 -227.44241333 477.24050903 C-229.10151337 476.55522858 -230.76573897 475.8815904 -232.44241333 475.24050903 C-232.44241333 474.25050903 -232.44241333 473.26050903 -232.44241333 472.24050903 C-233.76241333 472.24050903 -235.08241333 472.24050903 -236.44241333 472.24050903 C-236.44241333 471.25050903 -236.44241333 470.26050903 -236.44241333 469.24050903 C-238.09241333 469.24050903 -239.74241333 469.24050903 -241.44241333 469.24050903 C-241.93741333 467.75550903 -241.93741333 467.75550903 -242.44241333 466.24050903 C-243.43241333 466.24050903 -244.42241333 466.24050903 -245.44241333 466.24050903 C-245.44241333 465.25050903 -245.44241333 464.26050903 -245.44241333 463.24050903 C-247.42241333 462.91050903 -249.40241333 462.58050903 -251.44241333 462.24050903 C-251.44241333 461.58050903 -251.44241333 460.92050903 -251.44241333 460.24050903 C-252.34991333 460.15800903 -253.25741333 460.07550903 -254.19241333 459.99050903 C-257.86249421 459.14356729 -259.14107661 458.1614364 -261.44241333 455.24050903 C-261.44241333 454.58050903 -261.44241333 453.92050903 -261.44241333 453.24050903 C-262.43241333 453.24050903 -263.42241333 453.24050903 -264.44241333 453.24050903 C-264.44241333 452.25050903 -264.44241333 451.26050903 -264.44241333 450.24050903 C-265.43241333 450.24050903 -266.42241333 450.24050903 -267.44241333 450.24050903 C-268.82109614 448.61115662 -270.15515426 446.94301297 -271.44241333 445.24050903 C-272.10241333 444.91050903 -272.76241333 444.58050903 -273.44241333 444.24050903 C-273.44241333 443.25050903 -273.44241333 442.26050903 -273.44241333 441.24050903 C-274.43241333 441.24050903 -275.42241333 441.24050903 -276.44241333 441.24050903 C-276.44241333 440.25050903 -276.44241333 439.26050903 -276.44241333 438.24050903 C-277.43241333 438.24050903 -278.42241333 438.24050903 -279.44241333 438.24050903 C-281.12991333 436.86550903 -281.12991333 436.86550903 -282.44241333 435.24050903 C-282.44241333 434.58050903 -282.44241333 433.92050903 -282.44241333 433.24050903 C-283.76241333 432.58050903 -285.08241333 431.92050903 -286.44241333 431.24050903 C-286.44241333 430.58050903 -286.44241333 429.92050903 -286.44241333 429.24050903 C-287.43241333 428.91050903 -288.42241333 428.58050903 -289.44241333 428.24050903 C-289.44241333 427.25050903 -289.44241333 426.26050903 -289.44241333 425.24050903 C-290.43241333 425.24050903 -291.42241333 425.24050903 -292.44241333 425.24050903 C-292.44241333 424.25050903 -292.44241333 423.26050903 -292.44241333 422.24050903 C-293.43241333 422.24050903 -294.42241333 422.24050903 -295.44241333 422.24050903 C-295.44241333 421.25050903 -295.44241333 420.26050903 -295.44241333 419.24050903 C-296.10241333 419.24050903 -296.76241333 419.24050903 -297.44241333 419.24050903 C-297.77241333 417.26050903 -298.10241333 415.28050903 -298.44241333 413.24050903 C-299.43241333 413.24050903 -300.42241333 413.24050903 -301.44241333 413.24050903 C-303.12991333 411.92800903 -303.12991333 411.92800903 -304.44241333 410.24050903 C-304.44241333 409.25050903 -304.44241333 408.26050903 -304.44241333 407.24050903 C-305.43241333 406.91050903 -306.42241333 406.58050903 -307.44241333 406.24050903 C-307.44241333 405.25050903 -307.44241333 404.26050903 -307.44241333 403.24050903 C-308.43241333 402.91050903 -309.42241333 402.58050903 -310.44241333 402.24050903 C-310.44241333 400.59050903 -310.44241333 398.94050903 -310.44241333 397.24050903 C-311.43241333 397.24050903 -312.42241333 397.24050903 -313.44241333 397.24050903 C-313.77241333 395.26050903 -314.10241333 393.28050903 -314.44241333 391.24050903 C-315.43241333 390.91050903 -316.42241333 390.58050903 -317.44241333 390.24050903 C-318.72366333 388.38504028 -318.72366333 388.38504028 -319.94241333 386.05300903 C-320.58436646 384.84064575 -320.58436646 384.84064575 -321.23928833 383.60379028 C-322.65484012 380.82324212 -324.04705326 378.03122917 -325.44241333 375.24050903 C-325.77241333 374.91050903 -326.10241333 374.58050903 -326.44241333 374.24050903 C-326.48305165 372.57433788 -326.48513433 370.90662808 -326.44241333 369.24050903 C-327.43241333 368.91050903 -328.42241333 368.58050903 -329.44241333 368.24050903 C-329.44241333 365.60050903 -329.44241333 362.96050903 -329.44241333 360.24050903 C-330.43241333 360.24050903 -331.42241333 360.24050903 -332.44241333 360.24050903 C-332.44241333 357.93050903 -332.44241333 355.62050903 -332.44241333 353.24050903 C-333.43241333 352.91050903 -334.42241333 352.58050903 -335.44241333 352.24050903 C-335.44241333 349.60050903 -335.44241333 346.96050903 -335.44241333 344.24050903 C-336.43241333 343.91050903 -337.42241333 343.58050903 -338.44241333 343.24050903 C-338.44241333 339.61050903 -338.44241333 335.98050903 -338.44241333 332.24050903 C-339.43241333 331.91050903 -340.42241333 331.58050903 -341.44241333 331.24050903 C-341.47979614 330.52765747 -341.51717896 329.81480591 -341.55569458 329.08035278 C-341.62143677 328.12257935 -341.68717896 327.16480591 -341.75491333 326.17800903 C-341.81292114 325.23828247 -341.87092896 324.29855591 -341.93069458 323.33035278 C-342.31822044 320.12753419 -342.31822044 320.12753419 -343.95211792 317.01368713 C-345.61579899 313.21696174 -345.8107698 309.94531444 -345.79885864 305.77981567 C-345.80090302 305.06987961 -345.80294739 304.35994354 -345.80505371 303.62849426 C-345.80804002 301.30228144 -345.78964608 298.97679288 -345.77053833 296.65066528 C-345.76747599 295.02073847 -345.76560348 293.39080904 -345.76486206 291.76087952 C-345.76027201 288.35237534 -345.74589879 284.94410912 -345.72366333 281.53567505 C-345.6954049 277.18377557 -345.68445199 272.83206313 -345.67998123 268.4800806 C-345.6748048 264.30775184 -345.66027799 260.13546915 -345.64553833 255.96316528 C-345.64271725 254.78195949 -345.64271725 254.78195949 -345.63983917 253.57689095 C-345.63290136 251.32806409 -345.61923416 249.07937779 -345.60354614 246.83059692 C-345.59671814 245.5548732 -345.58989014 244.27914948 -345.58285522 242.96476746 C-345.43303145 238.99171889 -344.98935094 235.17637138 -344.44241333 231.24050903 C-343.45241333 230.91050903 -342.46241333 230.58050903 -341.44241333 230.24050903 C-341.44241333 226.28050903 -341.44241333 222.32050903 -341.44241333 218.24050903 C-340.45241333 218.24050903 -339.46241333 218.24050903 -338.44241333 218.24050903 C-338.44241333 215.27050903 -338.44241333 212.30050903 -338.44241333 209.24050903 C-337.45241333 208.91050903 -336.46241333 208.58050903 -335.44241333 208.24050903 C-335.48366333 207.29175903 -335.52491333 206.34300903 -335.56741333 205.36550903 C-335.44241333 202.24050903 -335.44241333 202.24050903 -333.44241333 200.24050903 C-332.79747891 197.61593579 -332.79747891 197.61593579 -332.37991333 194.67800903 C-331.53963555 189.33773126 -331.53963555 189.33773126 -330.44241333 188.24050903 C-330.07480602 185.9123294 -329.73999752 183.57867053 -329.44241333 181.24050903 C-328.45241333 180.91050903 -327.46241333 180.58050903 -326.44241333 180.24050903 C-326.44241333 178.59050903 -326.44241333 176.94050903 -326.44241333 175.24050903 C-325.45241333 174.91050903 -324.46241333 174.58050903 -323.44241333 174.24050903 C-323.25678833 173.12675903 -323.25678833 173.12675903 -323.06741333 171.99050903 C-322.48754632 169.43909419 -321.70532594 167.51375173 -320.44241333 165.24050903 C-319.45241333 165.24050903 -318.46241333 165.24050903 -317.44241333 165.24050903 C-317.34960083 164.03394653 -317.34960083 164.03394653 -317.25491333 162.80300903 C-316.336636 158.77671613 -314.71617318 155.89761111 -312.59866333 152.38894653 C-311.48603968 150.32157151 -310.89871865 148.53240619 -310.44241333 146.24050903 C-309.45241333 146.24050903 -308.46241333 146.24050903 -307.44241333 146.24050903 C-307.28772583 145.40519653 -307.28772583 145.40519653 -307.12991333 144.55300903 C-306.30062925 141.76359893 -305.09942277 139.62660263 -303.44241333 137.24050903 C-302.78241333 137.24050903 -302.12241333 137.24050903 -301.44241333 137.24050903 C-301.44241333 136.25050903 -301.44241333 135.26050903 -301.44241333 134.24050903 C-300.45241333 134.24050903 -299.46241333 134.24050903 -298.44241333 134.24050903 C-298.11241333 132.92050903 -297.78241333 131.60050903 -297.44241333 130.24050903 C-296.78241333 130.24050903 -296.12241333 130.24050903 -295.44241333 130.24050903 C-295.11241333 129.25050903 -294.78241333 128.26050903 -294.44241333 127.24050903 C-293.78241333 127.24050903 -293.12241333 127.24050903 -292.44241333 127.24050903 C-292.15366333 126.66300903 -291.86491333 126.08550903 -291.56741333 125.49050903 C-291.19616333 124.74800903 -290.82491333 124.00550903 -290.44241333 123.24050903 C-290.00928833 122.25050903 -290.00928833 122.25050903 -289.56741333 121.24050903 C-288.1842227 118.78150347 -286.56032677 117.09368329 -284.44241333 115.24050903 C-283.78241333 115.24050903 -283.12241333 115.24050903 -282.44241333 115.24050903 C-282.44241333 114.25050903 -282.44241333 113.26050903 -282.44241333 112.24050903 C-281.45241333 112.24050903 -280.46241333 112.24050903 -279.44241333 112.24050903 C-278.94741333 110.75550903 -278.94741333 110.75550903 -278.44241333 109.24050903 C-277.45241333 109.24050903 -276.46241333 109.24050903 -275.44241333 109.24050903 C-274.45241333 107.26050903 -274.45241333 107.26050903 -273.44241333 105.24050903 C-272.45241333 105.24050903 -271.46241333 105.24050903 -270.44241333 105.24050903 C-270.44241333 104.25050903 -270.44241333 103.26050903 -270.44241333 102.24050903 C-269.45241333 102.24050903 -268.46241333 102.24050903 -267.44241333 102.24050903 C-267.40116333 101.68363403 -267.35991333 101.12675903 -267.31741333 100.55300903 C-265.96877827 96.98875923 -263.47571055 95.42448303 -260.44241333 93.24050903 C-259.45241333 93.24050903 -258.46241333 93.24050903 -257.44241333 93.24050903 C-257.44241333 92.25050903 -257.44241333 91.26050903 -257.44241333 90.24050903 C-256.45241333 90.24050903 -255.46241333 90.24050903 -254.44241333 90.24050903 C-254.44241333 89.58050903 -254.44241333 88.92050903 -254.44241333 88.24050903 C-252.46241333 87.91050903 -250.48241333 87.58050903 -248.44241333 87.24050903 C-248.44241333 86.25050903 -248.44241333 85.26050903 -248.44241333 84.24050903 C-247.12241333 84.24050903 -245.80241333 84.24050903 -244.44241333 84.24050903 C-243.94741333 82.75550903 -243.94741333 82.75550903 -243.44241333 81.24050903 C-238.10336711 76.77144133 -231.85775959 73.81922665 -225.44241333 71.24050903 C-224.57616333 70.88988403 -223.70991333 70.53925903 -222.81741333 70.17800903 C-222.03366333 69.86863403 -221.24991333 69.55925903 -220.44241333 69.24050903 C-216.13071401 67.72293281 -216.13071401 67.72293281 -212.44241333 65.24050903 C-210.109439 65.19957966 -207.77536108 65.1980918 -205.44241333 65.24050903 C-205.11241333 64.25050903 -204.78241333 63.26050903 -204.44241333 62.24050903 C-201.47241333 62.24050903 -198.50241333 62.24050903 -195.44241333 62.24050903 C-195.44241333 61.25050903 -195.44241333 60.26050903 -195.44241333 59.24050903 C-192.47241333 59.24050903 -189.50241333 59.24050903 -186.44241333 59.24050903 C-186.44241333 58.25050903 -186.44241333 57.26050903 -186.44241333 56.24050903 C-183.36624146 55.94754028 -183.36624146 55.94754028 -180.29006958 55.65457153 C-179.68034302 55.51793091 -179.07061646 55.38129028 -178.44241333 55.24050903 C-178.11241333 54.58050903 -177.78241333 53.92050903 -177.44241333 53.24050903 C-175.41697777 52.98331087 -173.38891109 52.73208782 -171.35256958 52.58425903 C-169.20719177 52.38574691 -169.20719177 52.38574691 -167.44241333 50.24050903 C-164.72756958 49.89675903 -164.72756958 49.89675903 -161.50491333 49.74050903 C-156.66738436 49.52946704 -156.66738436 49.52946704 -152.44241333 47.24050903 C-146.94096237 46.14751416 -141.51481707 46.07986701 -135.93069458 46.07254028 C-134.59472481 46.06754768 -134.59472481 46.06754768 -133.23176575 46.06245422 C-131.36017368 46.05741664 -129.48857272 46.05504491 -127.61697388 46.0552063 C-124.75329993 46.05300779 -121.89000426 46.03478597 -119.02639771 46.01589966 C-117.20283131 46.01296748 -115.37926309 46.01098151 -113.55569458 46.01004028 C-112.70147415 46.00285477 -111.84725372 45.99566925 -110.96714783 45.98826599 C-110.16919296 45.99134262 -109.3712381 45.99441925 -108.54910278 45.99758911 C-107.85073807 45.99616409 -107.15237335 45.99473907 -106.43284607 45.99327087 C-104.09605279 46.28353161 -102.50610551 47.1350914 -100.44241333 48.24050903 C-98.13083098 48.68961097 -98.13083098 48.68961097 -95.67678833 48.87332153 C-94.78733521 48.9571106 -93.89788208 49.04089966 -92.98147583 49.12722778 C-92.06108521 49.2058606 -91.14069458 49.28449341 -90.19241333 49.36550903 C-89.25655396 49.45187622 -88.32069458 49.53824341 -87.35647583 49.62722778 C-85.0523398 49.83883211 -82.74779289 50.0429958 -80.44241333 50.24050903 C-80.11241333 48.92050903 -79.78241333 47.60050903 -79.44241333 46.24050903 C-78.78241333 46.24050903 -78.12241333 46.24050903 -77.44241333 46.24050903 C-77.44241333 45.25050903 -77.44241333 44.26050903 -77.44241333 43.24050903 C-76.45241333 43.24050903 -75.46241333 43.24050903 -74.44241333 43.24050903 C-74.44241333 42.25050903 -74.44241333 41.26050903 -74.44241333 40.24050903 C-73.45241333 40.24050903 -72.46241333 40.24050903 -71.44241333 40.24050903 C-71.44241333 39.25050903 -71.44241333 38.26050903 -71.44241333 37.24050903 C-69.81306092 35.86182623 -68.14491726 34.5277681 -66.44241333 33.24050903 C-66.11241333 32.58050903 -65.78241333 31.92050903 -65.44241333 31.24050903 C-64.45241333 31.24050903 -63.46241333 31.24050903 -62.44241333 31.24050903 C-62.11241333 30.25050903 -61.78241333 29.26050903 -61.44241333 28.24050903 C-60.45241333 28.24050903 -59.46241333 28.24050903 -58.44241333 28.24050903 C-58.44241333 27.25050903 -58.44241333 26.26050903 -58.44241333 25.24050903 C-56.46241333 25.24050903 -54.48241333 25.24050903 -52.44241333 25.24050903 C-52.44241333 24.25050903 -52.44241333 23.26050903 -52.44241333 22.24050903 C-51.45241333 22.24050903 -50.46241333 22.24050903 -49.44241333 22.24050903 C-49.11241333 21.25050903 -48.78241333 20.26050903 -48.44241333 19.24050903 C-46.79241333 18.91050903 -45.14241333 18.58050903 -43.44241333 18.24050903 C-43.44241333 17.58050903 -43.44241333 16.92050903 -43.44241333 16.24050903 C-40.34219834 14.69040154 -37.24180472 13.14209726 -34.12991333 11.61550903 C-31.58835131 10.48892384 -31.58835131 10.48892384 -30.44241333 9.24050903 C-28.44282969 9.1997012 -26.44196079 9.19796547 -24.44241333 9.24050903 C-24.44241333 8.58050903 -24.44241333 7.92050903 -24.44241333 7.24050903 C-23.81592896 7.11933716 -23.18944458 6.99816528 -22.54397583 6.87332153 C-21.72671021 6.70574341 -20.90944458 6.53816528 -20.06741333 6.36550903 C-19.25530396 6.20308716 -18.44319458 6.04066528 -17.60647583 5.87332153 C-15.2556741 5.37391972 -15.2556741 5.37391972 -13.44241333 3.24050903 C-11.13881996 2.86230714 -8.86480307 2.73546941 -6.53616333 2.58425903 C-3.58667938 2.1000154 -3.07440961 0.3027429 0 0 Z M17.55758667 43.24050903 C17.55758667 43.90050903 17.55758667 44.56050903 17.55758667 45.24050903 C15.95077026 45.3139856 15.95077026 45.3139856 14.31149292 45.38894653 C12.91433028 45.46396198 11.51719617 45.53951033 10.12008667 45.61550903 C9.41303589 45.64644653 8.70598511 45.67738403 7.97750854 45.70925903 C6.16519479 45.81331533 4.35940679 46.01970796 2.55758667 46.24050903 C2.22758667 46.90050903 1.89758667 47.56050903 1.55758667 48.24050903 C-0.50507155 48.63170283 -2.536846 48.74725422 -4.62991333 48.89675903 C-5.22803833 49.01019653 -5.82616333 49.12363403 -6.44241333 49.24050903 C-6.77241333 49.90050903 -7.10241333 50.56050903 -7.44241333 51.24050903 C-9.42130294 51.96744807 -11.42195891 52.63867154 -13.44241333 53.24050903 C-13.44241333 53.90050903 -13.44241333 54.56050903 -13.44241333 55.24050903 C-15.42241333 55.57050903 -17.40241333 55.90050903 -19.44241333 56.24050903 C-19.44241333 56.90050903 -19.44241333 57.56050903 -19.44241333 58.24050903 C-20.41178833 58.36425903 -21.38116333 58.48800903 -22.37991333 58.61550903 C-23.39053833 58.82175903 -24.40116333 59.02800903 -25.44241333 59.24050903 C-25.77241333 59.90050903 -26.10241333 60.56050903 -26.44241333 61.24050903 C-28.08604467 61.96210328 -29.75291719 62.63402324 -31.44241333 63.24050903 C-31.44241333 63.90050903 -31.44241333 64.56050903 -31.44241333 65.24050903 C-27.53436797 68.10640897 -23.06173209 69.61445819 -18.55178833 71.27566528 C-16.44241333 72.24050903 -16.44241333 72.24050903 -15.44241333 74.24050903 C-12.41306843 74.89823331 -12.41306843 74.89823331 -9.44241333 75.24050903 C-9.44241333 75.90050903 -9.44241333 76.56050903 -9.44241333 77.24050903 C-8.23585083 77.67363403 -8.23585083 77.67363403 -7.00491333 78.11550903 C-4.44241333 79.24050903 -4.44241333 79.24050903 -3.44241333 81.24050903 C-2.45241333 81.24050903 -1.46241333 81.24050903 -0.44241333 81.24050903 C-0.44241333 82.23050903 -0.44241333 83.22050903 -0.44241333 84.24050903 C0.76414917 84.42613403 0.76414917 84.42613403 1.99508667 84.61550903 C2.84071167 84.82175903 3.68633667 85.02800903 4.55758667 85.24050903 C4.88758667 85.90050903 5.21758667 86.56050903 5.55758667 87.24050903 C6.87758667 87.24050903 8.19758667 87.24050903 9.55758667 87.24050903 C9.88758667 88.23050903 10.21758667 89.22050903 10.55758667 90.24050903 C11.21758667 90.24050903 11.87758667 90.24050903 12.55758667 90.24050903 C12.88758667 91.23050903 13.21758667 92.22050903 13.55758667 93.24050903 C14.45477417 93.42613403 14.45477417 93.42613403 15.37008667 93.61550903 C18.52423225 94.51669348 19.55990229 96.72729319 21.55758667 99.24050903 C22.54758667 99.24050903 23.53758667 99.24050903 24.55758667 99.24050903 C24.55758667 100.23050903 24.55758667 101.22050903 24.55758667 102.24050903 C25.54758667 102.24050903 26.53758667 102.24050903 27.55758667 102.24050903 C27.55758667 103.23050903 27.55758667 104.22050903 27.55758667 105.24050903 C30.82660257 108.41871894 31.8792466 109.24050903 36.55758667 109.24050903 C36.55758667 110.23050903 36.55758667 111.22050903 36.55758667 112.24050903 C37.54758667 112.24050903 38.53758667 112.24050903 39.55758667 112.24050903 C39.88758667 113.23050903 40.21758667 114.22050903 40.55758667 115.24050903 C41.21758667 115.24050903 41.87758667 115.24050903 42.55758667 115.24050903 C42.88758667 116.23050903 43.21758667 117.22050903 43.55758667 118.24050903 C44.21758667 118.24050903 44.87758667 118.24050903 45.55758667 118.24050903 C45.88758667 119.56050903 46.21758667 120.88050903 46.55758667 122.24050903 C47.21758667 122.24050903 47.87758667 122.24050903 48.55758667 122.24050903 C48.88758667 123.89050903 49.21758667 125.54050903 49.55758667 127.24050903 C50.54758667 127.24050903 51.53758667 127.24050903 52.55758667 127.24050903 C52.55758667 128.23050903 52.55758667 129.22050903 52.55758667 130.24050903 C53.21758667 130.57050903 53.87758667 130.90050903 54.55758667 131.24050903 C54.88758667 132.23050903 55.21758667 133.22050903 55.55758667 134.24050903 C56.54758667 134.24050903 57.53758667 134.24050903 58.55758667 134.24050903 C58.64008667 134.94175903 58.72258667 135.64300903 58.80758667 136.36550903 C59.7323307 139.91036114 61.46150266 142.25517727 63.55758667 145.24050903 C64.25188046 146.55966723 64.93289162 147.8870031 65.55758667 149.24050903 C66.21758667 149.24050903 66.87758667 149.24050903 67.55758667 149.24050903 C67.68133667 150.20988403 67.80508667 151.17925903 67.93258667 152.17800903 C68.13883667 153.18863403 68.34508667 154.19925903 68.55758667 155.24050903 C69.21758667 155.57050903 69.87758667 155.90050903 70.55758667 156.24050903 C70.88758667 157.23050903 71.21758667 158.22050903 71.55758667 159.24050903 C72.21758667 159.57050903 72.87758667 159.90050903 73.55758667 160.24050903 C74.18258667 162.80300903 74.18258667 162.80300903 74.55758667 165.24050903 C75.54758667 165.24050903 76.53758667 165.24050903 77.55758667 165.24050903 C77.55758667 167.22050903 77.55758667 169.20050903 77.55758667 171.24050903 C78.54758667 171.24050903 79.53758667 171.24050903 80.55758667 171.24050903 C80.55758667 173.22050903 80.55758667 175.20050903 80.55758667 177.24050903 C81.54758667 177.24050903 82.53758667 177.24050903 83.55758667 177.24050903 C83.55758667 179.22050903 83.55758667 181.20050903 83.55758667 183.24050903 C84.54758667 183.57050903 85.53758667 183.90050903 86.55758667 184.24050903 C86.55758667 186.55050903 86.55758667 188.86050903 86.55758667 191.24050903 C87.54758667 191.57050903 88.53758667 191.90050903 89.55758667 192.24050903 C89.49571167 193.47800903 89.43383667 194.71550903 89.37008667 195.99050903 C89.3566046 199.83964095 90.13579023 201.23748145 92.55758667 204.24050903 C93.24508667 207.99050903 93.24508667 207.99050903 93.55758667 211.24050903 C94.21758667 211.24050903 94.87758667 211.24050903 95.55758667 211.24050903 C96.05258667 214.70550903 96.05258667 214.70550903 96.55758667 218.24050903 C99.65814298 218.56590472 99.65814298 218.56590472 101.74508667 216.36550903 C103.77390221 214.45239569 103.77390221 214.45239569 103.55758667 212.24050903 C104.14539917 211.96464966 104.73321167 211.68879028 105.33883667 211.40457153 C111.80504319 208.01208994 116.17795756 203.1724721 118.55758667 196.24050903 C118.55758667 195.25050903 118.55758667 194.26050903 118.55758667 193.24050903 C119.54758667 193.24050903 120.53758667 193.24050903 121.55758667 193.24050903 C121.55758667 191.26050903 121.55758667 189.28050903 121.55758667 187.24050903 C122.54758667 187.24050903 123.53758667 187.24050903 124.55758667 187.24050903 C124.55758667 185.26050903 124.55758667 183.28050903 124.55758667 181.24050903 C125.54758667 180.91050903 126.53758667 180.58050903 127.55758667 180.24050903 C127.74321167 179.03394653 127.74321167 179.03394653 127.93258667 177.80300903 C128.13883667 176.95738403 128.34508667 176.11175903 128.55758667 175.24050903 C129.21758667 174.91050903 129.87758667 174.58050903 130.55758667 174.24050903 C130.81830637 171.75774647 130.97892409 169.35494835 131.05758667 166.86550903 C131.28833692 159.64438366 131.28833692 159.64438366 133.55758667 156.24050903 C133.86743195 153.16961001 133.86743195 153.16961001 133.82321167 149.67410278 C133.82578979 148.38439575 133.82836792 147.09468872 133.83102417 145.76589966 C133.82683472 145.09534546 133.82264526 144.42479126 133.81832886 143.73391724 C133.80760637 141.68177848 133.81824302 139.63051155 133.83102417 137.57839966 C133.82844604 136.28998169 133.82586792 135.00156372 133.82321167 133.67410278 C133.81982788 131.89604248 133.81982788 131.89604248 133.81637573 130.08206177 C133.85109747 127.10731356 133.85109747 127.10731356 131.55758667 125.24050903 C131.14352417 122.63894653 131.14352417 122.63894653 130.93258667 119.61550903 C130.85782104 118.61261841 130.78305542 117.60972778 130.70602417 116.57644653 C130.65703979 115.80558716 130.60805542 115.03472778 130.55758667 114.24050903 C129.56758667 114.24050903 128.57758667 114.24050903 127.55758667 114.24050903 C127.55758667 111.27050903 127.55758667 108.30050903 127.55758667 105.24050903 C126.56758667 105.24050903 125.57758667 105.24050903 124.55758667 105.24050903 C124.45446167 104.51863403 124.35133667 103.79675903 124.24508667 103.05300903 C123.4896472 99.96257482 122.40227352 97.82307062 120.55758667 95.24050903 C119.89758667 95.24050903 119.23758667 95.24050903 118.55758667 95.24050903 C118.61946167 94.47738403 118.68133667 93.71425903 118.74508667 92.92800903 C118.5149938 89.63001124 117.9082149 89.42323525 115.55758667 87.24050903 C114.86700032 86.04568504 114.20237929 84.83565507 113.55758667 83.61550903 C111.90919201 79.99386051 111.90919201 79.99386051 108.55758667 79.24050903 C107.21931363 77.57780617 105.88568882 75.91134722 104.55758667 74.24050903 C103.89758667 74.24050903 103.23758667 74.24050903 102.55758667 74.24050903 C102.55758667 73.25050903 102.55758667 72.26050903 102.55758667 71.24050903 C101.56758667 71.24050903 100.57758667 71.24050903 99.55758667 71.24050903 C99.55758667 70.25050903 99.55758667 69.26050903 99.55758667 68.24050903 C98.56758667 68.24050903 97.57758667 68.24050903 96.55758667 68.24050903 C96.55758667 67.25050903 96.55758667 66.26050903 96.55758667 65.24050903 C95.56758667 65.24050903 94.57758667 65.24050903 93.55758667 65.24050903 C93.55758667 64.25050903 93.55758667 63.26050903 93.55758667 62.24050903 C89.79021024 59.27227306 86.25997392 58.70152739 81.55758667 58.24050903 C81.55758667 57.58050903 81.55758667 56.92050903 81.55758667 56.24050903 C80.42321167 55.76613403 79.28883667 55.29175903 78.12008667 54.80300903 C74.55758667 53.24050903 74.55758667 53.24050903 73.55758667 52.24050903 C71.89141552 52.19987071 70.22370572 52.19778803 68.55758667 52.24050903 C68.55758667 51.25050903 68.55758667 50.26050903 68.55758667 49.24050903 C67.42321167 48.93113403 66.28883667 48.62175903 65.12008667 48.30300903 C61.55758667 47.24050903 61.55758667 47.24050903 60.55758667 46.24050903 C59.40258667 46.09613403 58.24758667 45.95175903 57.05758667 45.80300903 C55.90258667 45.61738403 54.74758667 45.43175903 53.55758667 45.24050903 C53.06258667 44.25050903 53.06258667 44.25050903 52.55758667 43.24050903 C41.00758667 43.24050903 29.45758667 43.24050903 17.55758667 43.24050903 Z M-143.44241333 130.24050903 C-143.77241333 130.90050903 -144.10241333 131.56050903 -144.44241333 132.24050903 C-148.06703719 132.63921766 -151.67448672 132.74986683 -155.31741333 132.89675903 C-156.86428833 133.06691528 -156.86428833 133.06691528 -158.44241333 133.24050903 C-158.77241333 133.90050903 -159.10241333 134.56050903 -159.44241333 135.24050903 C-161.05116333 135.45707153 -161.05116333 135.45707153 -162.69241333 135.67800903 C-166.52269588 136.25255142 -168.27706702 137.13027816 -171.44241333 139.24050903 C-175.52249748 141.49757686 -178.86795748 142.49583017 -183.44241333 143.24050903 C-183.77241333 143.90050903 -184.10241333 144.56050903 -184.44241333 145.24050903 C-186.10908 145.57384237 -187.77574666 145.9071757 -189.44241333 146.24050903 C-189.77241333 146.90050903 -190.10241333 147.56050903 -190.44241333 148.24050903 C-191.92741333 148.73550903 -191.92741333 148.73550903 -193.44241333 149.24050903 C-193.77241333 149.90050903 -194.10241333 150.56050903 -194.44241333 151.24050903 C-196.46028192 152.35381584 -198.53437299 153.28254773 -200.62991333 154.24050903 C-202.61442856 155.11195472 -202.61442856 155.11195472 -203.44241333 157.24050903 C-205.14944458 158.17019653 -205.14944458 158.17019653 -207.25491333 159.11550903 C-210.60246279 160.72617915 -213.08307225 162.29133269 -215.44241333 165.24050903 C-215.44241333 165.90050903 -215.44241333 166.56050903 -215.44241333 167.24050903 C-216.43241333 167.57050903 -217.42241333 167.90050903 -218.44241333 168.24050903 C-218.44241333 168.90050903 -218.44241333 169.56050903 -218.44241333 170.24050903 C-219.43241333 170.57050903 -220.42241333 170.90050903 -221.44241333 171.24050903 C-221.44241333 171.90050903 -221.44241333 172.56050903 -221.44241333 173.24050903 C-222.43241333 173.57050903 -223.42241333 173.90050903 -224.44241333 174.24050903 C-226.17184808 175.55318859 -226.17184808 175.55318859 -227.44241333 177.24050903 C-227.44241333 178.23050903 -227.44241333 179.22050903 -227.44241333 180.24050903 C-228.43241333 180.24050903 -229.42241333 180.24050903 -230.44241333 180.24050903 C-230.44241333 181.23050903 -230.44241333 182.22050903 -230.44241333 183.24050903 C-231.43241333 183.24050903 -232.42241333 183.24050903 -233.44241333 183.24050903 C-233.44241333 184.23050903 -233.44241333 185.22050903 -233.44241333 186.24050903 C-234.43241333 186.24050903 -235.42241333 186.24050903 -236.44241333 186.24050903 C-236.73116333 187.31300903 -237.01991333 188.38550903 -237.31741333 189.49050903 C-238.17185896 192.33866114 -238.89639882 194.72823546 -240.44241333 197.24050903 C-241.43241333 197.73550903 -241.43241333 197.73550903 -242.44241333 198.24050903 C-243.56177049 199.8203491 -243.56177049 199.8203491 -244.56741333 201.67800903 C-245.09721802 202.60420044 -245.09721802 202.60420044 -245.63772583 203.54910278 C-246.58561658 205.22933621 -246.58561658 205.22933621 -246.44241333 207.24050903 C-247.10241333 207.24050903 -247.76241333 207.24050903 -248.44241333 207.24050903 C-248.44241333 208.56050903 -248.44241333 209.88050903 -248.44241333 211.24050903 C-249.43241333 211.24050903 -250.42241333 211.24050903 -251.44241333 211.24050903 C-251.77241333 212.89050903 -252.10241333 214.54050903 -252.44241333 216.24050903 C-253.92741333 216.73550903 -253.92741333 216.73550903 -255.44241333 217.24050903 C-255.77241333 222.19050903 -256.10241333 227.14050903 -256.44241333 232.24050903 C-257.10241333 232.24050903 -257.76241333 232.24050903 -258.44241333 232.24050903 C-258.62803833 234.15863403 -258.62803833 234.15863403 -258.81741333 236.11550903 C-259.19241333 239.99050903 -259.19241333 239.99050903 -261.44241333 242.24050903 C-261.82501154 245.09695249 -261.94899571 247.92955527 -262.09866333 250.80691528 C-262.21210083 251.61000122 -262.32553833 252.41308716 -262.44241333 253.24050903 C-263.43241333 253.73550903 -263.43241333 253.73550903 -264.44241333 254.24050903 C-264.44241333 266.12050903 -264.44241333 278.00050903 -264.44241333 290.24050903 C-263.78241333 290.24050903 -263.12241333 290.24050903 -262.44241333 290.24050903 C-262.39342896 291.37230591 -262.34444458 292.50410278 -262.29397583 293.67019653 C-262.21894819 295.15199242 -262.14340036 296.63376203 -262.06741333 298.11550903 C-262.02100708 299.23505981 -262.02100708 299.23505981 -261.97366333 300.37722778 C-261.88597502 304.77524091 -261.88597502 304.77524091 -259.44241333 308.24050903 C-259.06517777 310.57679742 -258.93725833 312.8835559 -258.78616333 315.24441528 C-258.67272583 315.90312622 -258.55928833 316.56183716 -258.44241333 317.24050903 C-257.78241333 317.57050903 -257.12241333 317.90050903 -256.44241333 318.24050903 C-256.05121953 320.30316725 -255.93566814 322.33494171 -255.78616333 324.42800903 C-255.67272583 325.02613403 -255.55928833 325.62425903 -255.44241333 326.24050903 C-254.78241333 326.57050903 -254.12241333 326.90050903 -253.44241333 327.24050903 C-252.66116333 328.91238403 -252.66116333 328.91238403 -251.94241333 330.99050903 C-251.68846802 331.70722778 -251.43452271 332.42394653 -251.17288208 333.16238403 C-250.93182739 333.84816528 -250.69077271 334.53394653 -250.44241333 335.24050903 C-249.78174614 336.90956298 -249.11803081 338.57745063 -248.44241333 340.24050903 C-247.78241333 340.24050903 -247.12241333 340.24050903 -246.44241333 340.24050903 C-246.11241333 342.22050903 -245.78241333 344.20050903 -245.44241333 346.24050903 C-244.78241333 346.24050903 -244.12241333 346.24050903 -243.44241333 346.24050903 C-243.11241333 348.22050903 -242.78241333 350.20050903 -242.44241333 352.24050903 C-241.78241333 352.24050903 -241.12241333 352.24050903 -240.44241333 352.24050903 C-240.38053833 353.31300903 -240.31866333 354.38550903 -240.25491333 355.49050903 C-239.28351034 359.97390744 -238.03818707 360.63357307 -234.44241333 363.24050903 C-233.62991333 365.49050903 -233.62991333 365.49050903 -233.44241333 367.24050903 C-232.45241333 367.24050903 -231.46241333 367.24050903 -230.44241333 367.24050903 C-230.44241333 368.23050903 -230.44241333 369.22050903 -230.44241333 370.24050903 C-229.45241333 370.24050903 -228.46241333 370.24050903 -227.44241333 370.24050903 C-227.44241333 371.23050903 -227.44241333 372.22050903 -227.44241333 373.24050903 C-226.45241333 373.24050903 -225.46241333 373.24050903 -224.44241333 373.24050903 C-224.44241333 374.23050903 -224.44241333 375.22050903 -224.44241333 376.24050903 C-223.45241333 376.24050903 -222.46241333 376.24050903 -221.44241333 376.24050903 C-221.11241333 377.23050903 -220.78241333 378.22050903 -220.44241333 379.24050903 C-218.42673754 381.13661208 -218.42673754 381.13661208 -216.00491333 382.92800903 C-215.20182739 383.55062622 -214.39874146 384.17324341 -213.57131958 384.81472778 C-211.59249542 386.42599505 -211.59249542 386.42599505 -209.44241333 386.24050903 C-209.44241333 386.90050903 -209.44241333 387.56050903 -209.44241333 388.24050903 C-208.12241333 388.57050903 -206.80241333 388.90050903 -205.44241333 389.24050903 C-205.44241333 389.90050903 -205.44241333 390.56050903 -205.44241333 391.24050903 C-203.76281496 393.01722601 -203.76281496 393.01722601 -201.62991333 394.80300903 C-200.92221802 395.4230481 -200.21452271 396.04308716 -199.48538208 396.68191528 C-197.42967865 398.42475657 -197.42967865 398.42475657 -194.44241333 399.24050903 C-194.11241333 399.90050903 -193.78241333 400.56050903 -193.44241333 401.24050903 C-192.45241333 401.57050903 -191.46241333 401.90050903 -190.44241333 402.24050903 C-190.11241333 402.90050903 -189.78241333 403.56050903 -189.44241333 404.24050903 C-187.57748931 404.63046006 -187.57748931 404.63046006 -185.44241333 404.74050903 C-183.25491333 404.89675903 -183.25491333 404.89675903 -181.44241333 405.24050903 C-181.11241333 405.90050903 -180.78241333 406.56050903 -180.44241333 407.24050903 C-178.46241333 407.24050903 -176.48241333 407.24050903 -174.44241333 407.24050903 C-174.44241333 408.23050903 -174.44241333 409.22050903 -174.44241333 410.24050903 C-173.87651489 410.37328247 -173.31061646 410.50605591 -172.72756958 410.64285278 C-171.99409302 410.81945435 -171.26061646 410.99605591 -170.50491333 411.17800903 C-169.40856567 411.43904419 -169.40856567 411.43904419 -168.29006958 411.70535278 C-166.44241333 412.24050903 -166.44241333 412.24050903 -165.44241333 413.24050903 C-163.44282969 413.28131686 -161.44196079 413.2830526 -159.44241333 413.24050903 C-158.94741333 414.72550903 -158.94741333 414.72550903 -158.44241333 416.24050903 C-157.14303833 416.36425903 -155.84366333 416.48800903 -154.50491333 416.61550903 C-152.29006958 416.82644653 -152.29006958 416.82644653 -150.44241333 417.24050903 C-150.11241333 417.90050903 -149.78241333 418.56050903 -149.44241333 419.24050903 C-132.61241333 419.24050903 -115.78241333 419.24050903 -98.44241333 419.24050903 C-98.44241333 418.58050903 -98.44241333 417.92050903 -98.44241333 417.24050903 C-97.52717896 417.19152466 -96.61194458 417.14254028 -95.66897583 417.09207153 C-93.88620239 416.9799231 -93.88620239 416.9799231 -92.06741333 416.86550903 C-90.88405396 416.79589966 -89.70069458 416.72629028 -88.48147583 416.65457153 C-85.33679014 416.53833557 -85.33679014 416.53833557 -83.44241333 414.24050903 C-81.27835083 413.82644653 -81.27835083 413.82644653 -78.81741333 413.61550903 C-77.59151489 413.5033606 -77.59151489 413.5033606 -76.34085083 413.38894653 C-75.71436646 413.33996216 -75.08788208 413.29097778 -74.44241333 413.24050903 C-74.44241333 412.25050903 -74.44241333 411.26050903 -74.44241333 410.24050903 C-71.80241333 410.24050903 -69.16241333 410.24050903 -66.44241333 410.24050903 C-66.11241333 409.25050903 -65.78241333 408.26050903 -65.44241333 407.24050903 C-64.12241333 407.24050903 -62.80241333 407.24050903 -61.44241333 407.24050903 C-61.11241333 406.58050903 -60.78241333 405.92050903 -60.44241333 405.24050903 C-57.87991333 404.61550903 -57.87991333 404.61550903 -55.44241333 404.24050903 C-55.44241333 403.25050903 -55.44241333 402.26050903 -55.44241333 401.24050903 C-53.46241333 401.24050903 -51.48241333 401.24050903 -49.44241333 401.24050903 C-49.44241333 400.25050903 -49.44241333 399.26050903 -49.44241333 398.24050903 C-47.46241333 398.24050903 -45.48241333 398.24050903 -43.44241333 398.24050903 C-43.44241333 397.25050903 -43.44241333 396.26050903 -43.44241333 395.24050903 C-42.45241333 394.91050903 -41.46241333 394.58050903 -40.44241333 394.24050903 C-40.44241333 393.58050903 -40.44241333 392.92050903 -40.44241333 392.24050903 C-39.45241333 392.24050903 -38.46241333 392.24050903 -37.44241333 392.24050903 C-35.21309509 390.42790772 -35.21309509 390.42790772 -33.44241333 388.24050903 C-33.44241333 387.58050903 -33.44241333 386.92050903 -33.44241333 386.24050903 C-32.32866333 385.80738403 -32.32866333 385.80738403 -31.19241333 385.36550903 C-28.87501536 384.41748259 -26.66324218 383.39204992 -24.44241333 382.24050903 C-24.44241333 381.25050903 -24.44241333 380.26050903 -24.44241333 379.24050903 C-23.45241333 379.24050903 -22.46241333 379.24050903 -21.44241333 379.24050903 C-21.11241333 378.58050903 -20.78241333 377.92050903 -20.44241333 377.24050903 C-17.87991333 376.61550903 -17.87991333 376.61550903 -15.44241333 376.24050903 C-15.44241333 374.26050903 -15.44241333 372.28050903 -15.44241333 370.24050903 C-14.45241333 370.24050903 -13.46241333 370.24050903 -12.44241333 370.24050903 C-10.0833098 365.97678093 -10.0833098 365.97678093 -9.44241333 361.24050903 C-8.45241333 360.91050903 -7.46241333 360.58050903 -6.44241333 360.24050903 C-3.46323393 357.94883257 -2.93763503 355.90514958 -2.44241333 352.24050903 C-1.78241333 352.24050903 -1.12241333 352.24050903 -0.44241333 352.24050903 C-0.11241333 351.25050903 0.21758667 350.26050903 0.55758667 349.24050903 C1.55758667 348.24050903 2.55758667 347.24050903 3.55758667 346.24050903 C3.88758667 345.25050903 4.21758667 344.26050903 4.55758667 343.24050903 C5.21758667 342.91050903 5.87758667 342.58050903 6.55758667 342.24050903 C7.30462186 339.90602407 7.95981507 337.61291505 8.55758667 335.24050903 C9.15535827 332.86810301 9.81055148 330.574994 10.55758667 328.24050903 C11.21758667 327.91050903 11.87758667 327.58050903 12.55758667 327.24050903 C12.55758667 324.93050903 12.55758667 322.62050903 12.55758667 320.24050903 C13.54758667 320.24050903 14.53758667 320.24050903 15.55758667 320.24050903 C15.55758667 317.27050903 15.55758667 314.30050903 15.55758667 311.24050903 C16.54758667 311.24050903 17.53758667 311.24050903 18.55758667 311.24050903 C18.55758667 307.94050903 18.55758667 304.64050903 18.55758667 301.24050903 C19.54758667 300.91050903 20.53758667 300.58050903 21.55758667 300.24050903 C21.55758667 299.25050903 21.55758667 298.26050903 21.55758667 297.24050903 C20.89758667 297.24050903 20.23758667 297.24050903 19.55758667 297.24050903 C19.22758667 294.60050903 18.89758667 291.96050903 18.55758667 289.24050903 C14.59758667 288.91050903 10.63758667 288.58050903 6.55758667 288.24050903 C6.55758667 287.58050903 6.55758667 286.92050903 6.55758667 286.24050903 C5.5269812 286.16703247 5.5269812 286.16703247 4.47555542 286.09207153 C3.57450073 286.01730591 2.67344604 285.94254028 1.74508667 285.86550903 C0.85176636 285.79589966 -0.04155396 285.72629028 -0.96194458 285.65457153 C-3.44241333 285.24050903 -3.44241333 285.24050903 -6.44241333 283.24050903 C-10.08094524 282.62409892 -13.7217139 282.22283862 -17.38772583 281.80300903 C-18.39577271 281.61738403 -19.40381958 281.43175903 -20.44241333 281.24050903 C-20.77241333 280.58050903 -21.10241333 279.92050903 -21.44241333 279.24050903 C-23.77489094 278.90123956 -26.10826804 278.56810837 -28.44241333 278.24050903 C-29.10241333 277.58050903 -29.76241333 276.92050903 -30.44241333 276.24050903 C-32.43062646 275.84286641 -34.43185672 275.50275555 -36.44241333 275.24050903 C-36.44241333 274.58050903 -36.44241333 273.92050903 -36.44241333 273.24050903 C-37.76241333 273.24050903 -39.08241333 273.24050903 -40.44241333 273.24050903 C-40.77241333 272.25050903 -41.10241333 271.26050903 -41.44241333 270.24050903 C-42.7654505 269.86840483 -44.09979268 269.5342073 -45.44241333 269.24050903 C-45.77241333 268.58050903 -46.10241333 267.92050903 -46.44241333 267.24050903 C-47.43241333 267.24050903 -48.42241333 267.24050903 -49.44241333 267.24050903 C-49.44241333 266.58050903 -49.44241333 265.92050903 -49.44241333 265.24050903 C-50.24678833 264.95175903 -51.05116333 264.66300903 -51.87991333 264.36550903 C-54.44241333 263.24050903 -54.44241333 263.24050903 -55.44241333 261.24050903 C-58.47175824 260.58278475 -58.47175824 260.58278475 -61.44241333 260.24050903 C-61.77241333 259.25050903 -62.10241333 258.26050903 -62.44241333 257.24050903 C-63.75509289 255.51107428 -63.75509289 255.51107428 -65.44241333 254.24050903 C-66.43241333 254.24050903 -67.42241333 254.24050903 -68.44241333 254.24050903 C-68.44241333 253.25050903 -68.44241333 252.26050903 -68.44241333 251.24050903 C-69.43241333 251.24050903 -70.42241333 251.24050903 -71.44241333 251.24050903 C-71.44241333 250.25050903 -71.44241333 249.26050903 -71.44241333 248.24050903 C-72.43241333 248.24050903 -73.42241333 248.24050903 -74.44241333 248.24050903 C-74.44241333 247.25050903 -74.44241333 246.26050903 -74.44241333 245.24050903 C-75.43241333 245.24050903 -76.42241333 245.24050903 -77.44241333 245.24050903 C-77.44241333 244.25050903 -77.44241333 243.26050903 -77.44241333 242.24050903 C-78.43241333 242.24050903 -79.42241333 242.24050903 -80.44241333 242.24050903 C-80.44241333 241.25050903 -80.44241333 240.26050903 -80.44241333 239.24050903 C-81.43241333 239.24050903 -82.42241333 239.24050903 -83.44241333 239.24050903 C-83.44241333 238.25050903 -83.44241333 237.26050903 -83.44241333 236.24050903 C-84.43241333 236.24050903 -85.42241333 236.24050903 -86.44241333 236.24050903 C-86.77241333 234.92050903 -87.10241333 233.60050903 -87.44241333 232.24050903 C-88.10241333 232.24050903 -88.76241333 232.24050903 -89.44241333 232.24050903 C-90.58584893 230.0353118 -91.57467255 227.88506238 -92.44241333 225.55300903 C-93.21475512 223.08623304 -93.21475512 223.08623304 -95.44241333 222.24050903 C-96.06741333 219.67800903 -96.06741333 219.67800903 -96.44241333 217.24050903 C-97.43241333 217.24050903 -98.42241333 217.24050903 -99.44241333 217.24050903 C-99.44241333 215.92050903 -99.44241333 214.60050903 -99.44241333 213.24050903 C-100.10241333 213.24050903 -100.76241333 213.24050903 -101.44241333 213.24050903 C-101.77241333 211.26050903 -102.10241333 209.28050903 -102.44241333 207.24050903 C-103.10241333 207.24050903 -103.76241333 207.24050903 -104.44241333 207.24050903 C-104.56616333 206.12675903 -104.68991333 205.01300903 -104.81741333 203.86550903 C-105.08899463 200.20947226 -105.08899463 200.20947226 -107.44241333 198.24050903 C-108.13597756 195.91502897 -108.80390545 193.58170458 -109.44241333 191.24050903 C-109.77241333 190.91050903 -110.10241333 190.58050903 -110.44241333 190.24050903 C-110.79129817 188.87428774 -111.09662678 187.49682362 -111.37991333 186.11550903 C-111.98802514 183.24286146 -112.66389229 180.49790311 -113.50491333 177.67800903 C-114.55259149 173.83652243 -115.02602739 170.19617544 -115.44241333 166.24050903 C-116.10241333 166.24050903 -116.76241333 166.24050903 -117.44241333 166.24050903 C-117.44241333 154.36050903 -117.44241333 142.48050903 -117.44241333 130.24050903 C-126.02241333 130.24050903 -134.60241333 130.24050903 -143.44241333 130.24050903 Z M-71.44241333 140.24050903 C-71.44241333 148.49050903 -71.44241333 156.74050903 -71.44241333 165.24050903 C-70.78241333 165.24050903 -70.12241333 165.24050903 -69.44241333 165.24050903 C-69.11241333 168.87050903 -68.78241333 172.50050903 -68.44241333 176.24050903 C-67.45241333 176.57050903 -66.46241333 176.90050903 -65.44241333 177.24050903 C-65.44241333 179.22050903 -65.44241333 181.20050903 -65.44241333 183.24050903 C-64.78241333 183.57050903 -64.12241333 183.90050903 -63.44241333 184.24050903 C-62.71547429 186.21939864 -62.04425082 188.22005461 -61.44241333 190.24050903 C-60.78241333 190.24050903 -60.12241333 190.24050903 -59.44241333 190.24050903 C-59.44241333 192.22050903 -59.44241333 194.20050903 -59.44241333 196.24050903 C-58.45241333 196.24050903 -57.46241333 196.24050903 -56.44241333 196.24050903 C-56.44241333 197.23050903 -56.44241333 198.22050903 -56.44241333 199.24050903 C-55.32252908 200.42826506 -54.19015538 201.60647827 -53.00100708 202.72488403 C-48.87532774 206.73682284 -45.22507974 211.25450492 -41.62991333 215.74050903 C-40.54710083 216.97800903 -40.54710083 216.97800903 -39.44241333 218.24050903 C-38.78241333 218.24050903 -38.12241333 218.24050903 -37.44241333 218.24050903 C-37.44241333 219.23050903 -37.44241333 220.22050903 -37.44241333 221.24050903 C-36.45241333 221.24050903 -35.46241333 221.24050903 -34.44241333 221.24050903 C-34.44241333 222.23050903 -34.44241333 223.22050903 -34.44241333 224.24050903 C-33.23585083 224.42613403 -33.23585083 224.42613403 -32.00491333 224.61550903 C-31.15928833 224.82175903 -30.31366333 225.02800903 -29.44241333 225.24050903 C-29.11241333 225.90050903 -28.78241333 226.56050903 -28.44241333 227.24050903 C-26.03281974 228.3476196 -23.79749653 229.17146508 -21.19241333 229.67800903 C-20.32616333 229.95644653 -20.32616333 229.95644653 -19.44241333 230.24050903 C-19.11241333 231.23050903 -18.78241333 232.22050903 -18.44241333 233.24050903 C-17.23585083 233.42613403 -17.23585083 233.42613403 -16.00491333 233.61550903 C-15.15928833 233.82175903 -14.31366333 234.02800903 -13.44241333 234.24050903 C-13.11241333 234.90050903 -12.78241333 235.56050903 -12.44241333 236.24050903 C-11.61741333 236.40550903 -10.79241333 236.57050903 -9.94241333 236.74050903 C-9.11741333 236.90550903 -8.29241333 237.07050903 -7.44241333 237.24050903 C-7.11241333 237.90050903 -6.78241333 238.56050903 -6.44241333 239.24050903 C-4.46241333 239.24050903 -2.48241333 239.24050903 -0.44241333 239.24050903 C-0.11241333 240.23050903 0.21758667 241.22050903 0.55758667 242.24050903 C6.49758667 242.24050903 12.43758667 242.24050903 18.55758667 242.24050903 C18.55758667 241.25050903 18.55758667 240.26050903 18.55758667 239.24050903 C17.56758667 239.24050903 16.57758667 239.24050903 15.55758667 239.24050903 C15.55758667 236.27050903 15.55758667 233.30050903 15.55758667 230.24050903 C14.07258667 229.74550903 14.07258667 229.74550903 12.55758667 229.24050903 C12.55758667 226.27050903 12.55758667 223.30050903 12.55758667 220.24050903 C11.56758667 220.24050903 10.57758667 220.24050903 9.55758667 220.24050903 C9.55758667 218.26050903 9.55758667 216.28050903 9.55758667 214.24050903 C8.89758667 213.91050903 8.23758667 213.58050903 7.55758667 213.24050903 C6.93258667 210.67800903 6.93258667 210.67800903 6.55758667 208.24050903 C5.56758667 208.24050903 4.57758667 208.24050903 3.55758667 208.24050903 C3.45446167 207.51863403 3.35133667 206.79675903 3.24508667 206.05300903 C2.4896472 202.96257482 1.40227352 200.82307062 -0.44241333 198.24050903 C-1.10241333 198.24050903 -1.76241333 198.24050903 -2.44241333 198.24050903 C-2.93741333 195.27050903 -2.93741333 195.27050903 -3.44241333 192.24050903 C-4.43241333 192.24050903 -5.42241333 192.24050903 -6.44241333 192.24050903 C-6.44241333 191.25050903 -6.44241333 190.26050903 -6.44241333 189.24050903 C-7.10241333 189.24050903 -7.76241333 189.24050903 -8.44241333 189.24050903 C-8.68991333 188.27113403 -8.93741333 187.30175903 -9.19241333 186.30300903 C-9.60491333 185.29238403 -10.01741333 184.28175903 -10.44241333 183.24050903 C-11.7654505 182.86840483 -13.09979268 182.5342073 -14.44241333 182.24050903 C-15.69241333 179.67800903 -15.69241333 179.67800903 -16.44241333 177.24050903 C-17.10241333 177.24050903 -17.76241333 177.24050903 -18.44241333 177.24050903 C-18.44241333 176.25050903 -18.44241333 175.26050903 -18.44241333 174.24050903 C-19.43241333 173.74550903 -19.43241333 173.74550903 -20.44241333 173.24050903 C-20.77241333 172.25050903 -21.10241333 171.26050903 -21.44241333 170.24050903 C-22.43241333 170.24050903 -23.42241333 170.24050903 -24.44241333 170.24050903 C-24.50428833 169.45675903 -24.56616333 168.67300903 -24.62991333 167.86550903 C-24.89803833 166.99925903 -25.16616333 166.13300903 -25.44241333 165.24050903 C-27.91877345 163.86584278 -27.91877345 163.86584278 -30.44241333 163.24050903 C-30.44241333 162.58050903 -30.44241333 161.92050903 -30.44241333 161.24050903 C-32.42241333 160.91050903 -34.40241333 160.58050903 -36.44241333 160.24050903 C-36.44241333 159.58050903 -36.44241333 158.92050903 -36.44241333 158.24050903 C-37.43241333 157.91050903 -38.42241333 157.58050903 -39.44241333 157.24050903 C-39.77241333 156.58050903 -40.10241333 155.92050903 -40.44241333 155.24050903 C-41.43241333 155.24050903 -42.42241333 155.24050903 -43.44241333 155.24050903 C-43.44241333 154.25050903 -43.44241333 153.26050903 -43.44241333 152.24050903 C-44.24678833 152.11675903 -45.05116333 151.99300903 -45.87991333 151.86550903 C-46.72553833 151.65925903 -47.57116333 151.45300903 -48.44241333 151.24050903 C-48.77241333 150.58050903 -49.10241333 149.92050903 -49.44241333 149.24050903 C-50.43241333 149.24050903 -51.42241333 149.24050903 -52.44241333 149.24050903 C-52.44241333 148.25050903 -52.44241333 147.26050903 -52.44241333 146.24050903 C-53.77272583 145.80738403 -53.77272583 145.80738403 -55.12991333 145.36550903 C-58.44241333 144.24050903 -58.44241333 144.24050903 -61.06741333 143.11550903 C-63.64613256 142.01003879 -63.64613256 142.01003879 -67.44241333 142.24050903 C-67.44241333 141.58050903 -67.44241333 140.92050903 -67.44241333 140.24050903 C-68.76241333 140.24050903 -70.08241333 140.24050903 -71.44241333 140.24050903 Z " fill="#FFFFFF" transform="translate(353.4424133300781,4.759490966796875)"/>
</svg>
